<svg width="75" height="33" viewBox="0 0 75 33" fill="none" xmlns="http://www.w3.org/2000/svg">
<path d="M12.0119 32.3754C8.58789 32.3754 5.81989 31.2394 3.70789 28.9674C1.62789 26.6954 0.587891 23.4954 0.587891 19.3674C0.587891 16.9034 1.06789 14.5994 2.02789 12.4554C2.98789 10.3114 4.34789 8.39142 6.10789 6.69542C7.89989 4.99942 10.0279 3.62342 12.4919 2.56742C14.9879 1.47942 17.7559 0.791418 20.7959 0.503418L20.9399 1.22342C17.0359 2.02342 14.0599 3.49542 12.0119 5.63942C9.99589 7.78342 8.66789 10.6954 8.02789 14.3754C9.88389 13.2874 11.9639 12.7434 14.2679 12.7434C16.2199 12.7434 17.8359 13.1434 19.1159 13.9434C20.3959 14.7434 21.3559 15.8314 21.9959 17.2074C22.6679 18.5514 23.0039 20.0714 23.0039 21.7674C23.0039 24.0394 22.4599 25.9754 21.3719 27.5754C20.3159 29.1434 18.9399 30.3434 17.2439 31.1754C15.5799 31.9754 13.8359 32.3754 12.0119 32.3754ZM7.59589 20.3754C7.59589 24.3434 7.93189 27.1754 8.60389 28.8714C9.30789 30.5674 10.3959 31.4154 11.8679 31.4154C13.3399 31.4154 14.4119 30.7274 15.0839 29.3514C15.7879 27.9434 16.1399 25.6074 16.1399 22.3434C16.1399 19.3354 15.7879 17.2394 15.0839 16.0554C14.3799 14.8714 13.2279 14.2794 11.6279 14.2794C10.2839 14.2794 9.03589 14.6154 7.88389 15.2874C7.69189 16.8234 7.59589 18.5194 7.59589 20.3754Z" fill="#584592"/>
<path d="M36.217 32.3754C34.361 32.3754 32.697 32.1994 31.225 31.8474C29.785 31.5274 28.505 30.9834 27.385 30.2154L27.721 24.1674H28.201L30.409 28.1034C31.049 29.2554 31.833 30.1034 32.761 30.6474C33.689 31.1594 34.713 31.4154 35.833 31.4154C39.513 31.4154 41.353 28.6154 41.353 23.0154C41.353 20.4874 40.857 18.5674 39.865 17.2554C38.905 15.9434 37.465 15.2874 35.545 15.2874C34.649 15.2874 33.753 15.4154 32.857 15.6714C31.993 15.8954 31.193 16.1994 30.457 16.5834L29.593 16.0554L30.649 1.22342H47.449V6.69542H31.609L30.937 14.9994C31.673 14.4554 32.665 13.9434 33.913 13.4634C35.161 12.9834 36.473 12.7434 37.849 12.7434C39.929 12.7434 41.769 13.1114 43.369 13.8474C45.001 14.5834 46.265 15.6714 47.161 17.1114C48.089 18.5194 48.553 20.2634 48.553 22.3434C48.553 24.4874 48.009 26.3114 46.921 27.8154C45.865 29.3194 44.409 30.4554 42.553 31.2234C40.697 31.9914 38.585 32.3754 36.217 32.3754Z" fill="#584592"/>
<path d="M62.4839 28.1514V16.5834H51.4919V15.6234H62.4839V4.24742H63.6359V15.6234H74.6279V16.5834H63.6359V28.1514H62.4839Z" fill="#584592"/>
</svg>
