<svg width="56" height="56" viewBox="0 0 56 56" fill="none" xmlns="http://www.w3.org/2000/svg">
<g clip-path="url(#clip0_115_116)">
<path d="M50.9145 6.94248L29.704 0.472139C29.0195 0.263633 28.2908 0.157715 27.5385 0.157715C26.786 0.157715 26.0573 0.263633 25.3728 0.472139L4.1619 6.94248C3.79055 7.05678 3.55078 7.31942 3.55078 7.61387C3.55078 7.9082 3.79055 8.17096 4.16212 8.28525L13.9806 11.2802V19.5762C13.9831 23.8655 15.4413 27.9856 18.0867 31.1757C19.3579 32.7069 20.821 33.9229 22.4354 34.7886C24.1479 35.7086 25.9233 36.1748 27.7124 36.1748C29.5006 36.1748 31.2763 35.7086 32.9896 34.7886C35.4171 33.4842 37.5057 31.3891 39.0295 28.7311C40.6085 25.9722 41.4434 22.8062 41.4442 19.5762V11.1743L46.3044 9.69141V16.587C45.6384 16.6712 45.122 17.2418 45.122 17.9298C45.122 18.5286 45.514 19.0474 46.075 19.22L45.0442 26.0215C45.019 26.1908 45.0682 26.3618 45.1798 26.4926C45.2917 26.622 45.4541 26.6969 45.6254 26.6969H49.5219C49.6929 26.6969 49.8553 26.6218 49.9675 26.4918C50.0787 26.3625 50.1282 26.1907 50.103 26.0206L49.0722 19.22C49.6333 19.0474 50.0252 18.5287 50.0252 17.9298C50.0252 17.2418 49.5085 16.6712 48.8424 16.587V8.91732L50.9148 8.28515C51.2862 8.17085 51.5261 7.90734 51.5261 7.61376C51.526 7.32028 51.2861 7.05667 50.9145 6.94248ZM27.7124 32.1556C26.5938 32.1556 25.4572 31.8503 24.3342 31.2473C22.5946 30.3182 21.014 28.716 19.8829 26.7344C19.3615 25.8237 18.938 24.8328 18.6229 23.7862C25.1625 22.6287 29.2051 18.4818 31.4855 15.0883C32.5857 17.3201 34.4569 20.1107 37.3107 21.3884C36.9754 24.0722 35.8897 26.6318 34.2457 28.6084C33.3202 29.726 32.2291 30.6385 31.0902 31.2481C29.9668 31.8503 28.8302 32.1556 27.7124 32.1556Z" fill="#584592"/>
<path d="M40.191 33.9129L40.0831 33.8453L28.2095 44.2947L16.3356 33.8452L16.2277 33.9128C12.2689 36.3874 8.06152 43.1137 8.06152 50.7056V50.8082L8.1524 50.8565C8.23351 50.9 16.4123 55.1577 28.2095 55.1577C40.0064 55.1577 48.1854 50.9 48.2664 50.8568L48.3573 50.8084V50.7058C48.3574 43.1137 44.1498 36.3874 40.191 33.9129Z" fill="#584592"/>
</g>
<defs>
<clipPath id="clip0_115_116">
<rect width="55" height="55" fill="white" transform="translate(0.0380859 0.157715)"/>
</clipPath>
</defs>
</svg>
