<svg width="110" height="88" viewBox="0 0 110 88" fill="none" xmlns="http://www.w3.org/2000/svg">
<g clip-path="url(#clip0_41_152)">
<path d="M88.5144 29.834C88.4616 29.8733 88.3956 29.9082 88.378 29.9606C88.3736 29.9781 88.5496 30.0872 88.5716 30.0828C88.6552 30.0697 88.7168 30.0261 88.7828 29.9955C88.708 29.9519 88.6332 29.9082 88.5144 29.834Z" fill="#C1FAB4"/>
<path d="M87.1774 29.5459C87.151 29.5371 87.1114 29.5459 87.0762 29.5459L87.1334 29.6114H87.2346C87.217 29.5852 87.2038 29.5546 87.1774 29.5415V29.5459Z" fill="#C1FAB4"/>
<path d="M109.991 28.9998C109.983 28.751 109.956 28.5065 109.925 28.2576L109.864 27.8909C109.842 27.7686 109.811 27.6464 109.785 27.5241C109.763 27.4019 109.723 27.2796 109.688 27.1574C109.653 27.0351 109.622 26.9129 109.578 26.7907L109.45 26.4239L109.296 26.0528C109.081 25.5595 108.834 25.0617 108.509 24.564L108.39 24.3763C108.35 24.3152 108.302 24.2497 108.262 24.1886L107.998 23.8131L107.708 23.4376C107.659 23.3765 107.611 23.311 107.558 23.2499L107.4 23.0621C106.564 22.0667 105.517 21.0975 104.395 20.1719C103.831 19.7091 103.251 19.255 102.665 18.8097L101.803 18.1505L101.416 17.8492C101.293 17.7532 101.183 17.6615 101.086 17.5829L100.716 17.2729L99.8494 16.5394C99.2686 16.0505 98.6834 15.5658 98.0938 15.0812C95.7266 13.1427 93.2494 11.2392 90.6094 9.47972C90.2794 9.25706 89.945 9.04312 89.6106 8.82483L89.4874 8.74187L89.351 8.65892L89.0782 8.49302L88.537 8.16121L88.2642 7.9953L87.9958 7.84249L87.4546 7.53251C87.0938 7.32295 86.7374 7.13521 86.381 6.94311C84.9554 6.17907 83.5562 5.49798 82.1966 4.85183C80.5598 4.07469 78.9846 3.34121 77.5018 2.59464C76.0234 1.84806 74.6418 1.08402 73.4406 0.27196C72.8642 0.158445 72.6486 0.298155 72.6134 0.542648C72.5782 0.78714 72.719 1.14515 72.8202 1.45076C72.8642 1.59484 72.917 1.72145 72.9434 1.82187C72.9698 1.92228 72.9742 2.00087 72.9434 2.0489C72.873 2.13621 72.6354 2.09692 72.1294 1.82187C71.7774 1.63413 71.5354 1.63413 71.3242 1.65596C71.1086 1.68216 70.9106 1.74328 70.6378 1.68216C70.453 1.64286 70.2638 2.0358 70.9458 2.46366C71.6806 2.87842 71.6014 3.07489 71.751 3.51148C71.9578 4.07032 71.949 4.35848 71.6762 4.3934C71.5398 4.41087 71.333 4.37157 71.0646 4.27116C70.7962 4.16637 70.4618 4.00047 70.057 3.77781C69.3574 3.35868 68.9262 3.23643 68.7986 3.38924C68.671 3.54205 68.847 3.96991 69.3794 4.65973C69.7534 5.10068 70.1274 5.48489 70.2682 5.76867C70.409 6.05246 70.321 6.26202 69.7402 6.37554C69.4058 6.43229 68.847 6.51961 68.6006 6.82523C68.4774 6.97804 68.4334 7.19197 68.5434 7.48885C68.5962 7.63293 68.693 7.81193 68.8338 7.9953C68.9746 8.17867 69.1638 8.38823 69.4102 8.61963C69.7314 8.92524 69.5598 9.07369 69.3398 9.07369C68.5654 9.06495 68.5654 9.23523 68.8822 9.50155C68.9614 9.56704 69.0626 9.63689 69.1726 9.71548C69.2826 9.7897 69.4058 9.85955 69.5334 9.93377C69.7886 10.0822 70.057 10.2394 70.2902 10.3966C70.5586 10.5756 70.827 10.724 71.0954 10.8725C71.3638 11.0165 71.6366 11.1606 71.9006 11.2741C72.433 11.5142 72.9698 11.7282 73.489 11.9115C74.0082 12.0949 74.5274 12.2783 75.051 12.466C75.5702 12.6581 76.0674 12.8459 76.5734 13.0816C77.0266 13.2912 77.4842 13.4658 77.9242 13.6841C78.1398 13.7976 78.5314 13.8588 78.4962 14.0465C78.4654 14.2037 78.1398 13.9417 77.9462 13.9286C77.9022 13.9286 77.8626 13.9286 77.8186 13.9417C77.7614 13.9417 77.6998 13.9417 77.6382 13.9417C77.669 13.9635 77.6954 13.9854 77.7262 14.0116L77.7702 14.0465L77.7922 14.0727C77.823 14.1076 77.8582 14.1382 77.8978 14.16C78.0914 14.2691 78.2938 14.3608 78.4962 14.4569C80.3178 15.3257 82.0118 16.2164 83.5034 17.1463C83.8686 17.3646 84.2866 17.644 84.6826 17.9016C85.083 18.1636 85.4834 18.4343 85.8838 18.7049C86.0026 18.7879 86.1214 18.8708 86.2446 18.9538L86.0334 18.9058C85.677 18.8359 85.3206 18.7748 84.9598 18.7093C84.6034 18.6482 84.247 18.5783 83.8862 18.5259L82.8126 18.3819C82.4562 18.3338 82.0954 18.2858 81.739 18.2596C78.8702 17.9758 76.0058 17.9627 73.1854 18.1767C67.5402 18.6002 62.0842 19.9143 56.9054 21.8266C55.0046 22.5295 53.1566 23.3416 51.3306 24.2104C51.159 23.9048 51.0006 23.5948 50.8202 23.2935C50.4506 22.6605 50.0502 22.0449 49.641 21.4293C49.223 20.8224 48.7962 20.2156 48.3386 19.6305C47.8898 19.0411 47.4058 18.4648 46.913 17.8972C46.4114 17.3384 45.8966 16.7796 45.3466 16.2513C44.8054 15.7143 44.229 15.1991 43.6394 14.697C43.3358 14.4525 43.041 14.1993 42.7286 13.9635L42.2622 13.6099L41.7782 13.265C41.6198 13.1515 41.4526 13.038 41.2898 12.9288L40.7926 12.6014C40.4494 12.3918 40.115 12.1779 39.7586 11.9814C39.0634 11.5754 38.3242 11.2174 37.5762 10.8768C36.0626 10.2176 34.4522 9.69801 32.7714 9.39676C31.095 9.08242 29.357 8.99946 27.6498 9.11298C25.9426 9.23959 24.2706 9.58013 22.691 10.0779C21.1158 10.5887 19.633 11.2523 18.2514 12.0207C17.8994 12.2084 17.5694 12.4136 17.235 12.6145C16.8962 12.8153 16.5794 13.0292 16.2582 13.2432C15.6202 13.671 15.0086 14.1163 14.397 14.5966C13.1914 15.5484 12.087 16.57 11.0574 17.6353C9.00704 19.7702 7.26464 22.0885 5.75984 24.5422C4.25944 27.0002 2.99664 29.5936 2.01544 32.3354C1.68104 33.3003 1.36424 34.2695 1.10464 35.2693C0.963836 35.7626 0.853836 36.2735 0.735036 36.7755C0.677836 37.0288 0.629436 37.2864 0.581036 37.544C0.532636 37.8015 0.479836 38.0548 0.440236 38.3167L0.312636 39.0939L0.211436 39.8841L0.163036 40.277L0.127836 40.6787C0.105836 40.945 0.0794359 41.2113 0.0618359 41.4777C0.0398359 42.019 0.00463594 42.556 0.00903594 43.1062C0.00903594 43.3812 0.000235937 43.6519 0.0178359 43.927L0.0530359 44.7565C0.347836 45.5773 0.603036 45.6777 0.809836 45.49C1.02104 45.3022 1.18384 44.8263 1.37304 44.4683C1.54024 44.1278 1.67224 43.8702 1.78664 43.8833C1.90544 43.8964 1.98904 44.1758 2.10344 44.918C2.18704 45.3939 2.32784 45.634 2.48184 45.8087L3.03184 47.1883C3.03184 47.1883 3.07584 47.2101 3.09784 47.2276C3.12424 47.2451 3.15064 47.2625 3.20344 47.3106C3.26944 47.376 3.33984 47.4415 3.40584 47.507L3.43224 47.5332L3.47184 47.5725L3.52024 47.6162C3.58624 47.6729 3.65224 47.7253 3.72264 47.7777L3.76664 47.8083C3.79744 47.8301 3.83264 47.8519 3.86784 47.8738C3.93384 47.9174 4.00424 47.9567 4.07904 47.996C4.22424 48.0746 4.38264 48.1401 4.54544 48.1881C4.70824 48.2405 4.87104 48.2711 5.02944 48.2929C5.07344 48.2973 5.09544 48.3016 5.15704 48.306C5.31104 48.3191 5.49584 48.3191 5.70704 48.2972C5.91824 48.2711 6.16024 48.2187 6.41544 48.1182C6.67064 48.0178 6.93024 47.8694 7.16344 47.6773C7.39664 47.4896 7.59024 47.2582 7.73544 47.0355C7.88064 46.8085 7.97744 46.5858 8.03904 46.3893C8.10064 46.1972 8.13584 46.0051 8.14904 45.8742L8.15784 45.7956C8.16664 45.6908 8.17104 45.586 8.16664 45.4769C8.16224 45.2629 8.12704 45.0446 8.07424 44.8438L8.05224 44.7696L8.04344 44.7434L8.02584 44.6954L7.99064 44.5949L7.95104 44.4989L7.93344 44.4596L7.92464 44.4378C8.03464 44.4727 8.14904 44.4989 8.25904 44.4989C8.65504 44.4902 9.02464 44.1845 9.28424 43.2284C9.37224 42.9141 9.59224 42.9708 9.71104 43.1018C10.1158 43.5602 10.261 43.4816 10.3182 43.2109C10.3314 43.1455 10.3402 43.0625 10.3446 42.9752C10.3446 42.8879 10.349 42.7918 10.3578 42.6914C10.371 42.4906 10.3798 42.2723 10.4062 42.0845C10.5514 41.2026 10.569 40.3512 10.6086 39.4781C10.6218 39.2598 10.6218 39.0415 10.6438 38.8232C10.6614 38.6049 10.6834 38.3822 10.7054 38.1595C10.767 37.7186 10.8418 37.2689 10.9782 36.8236C11.0882 36.4175 11.1982 36.0028 11.3434 35.6055C11.361 35.5531 11.383 35.5007 11.405 35.4439C11.427 35.3828 11.4534 35.3173 11.4754 35.2475C11.5238 35.1121 11.5722 34.9724 11.6206 34.8327C11.7262 34.5533 11.8362 34.2651 11.9418 33.9988C12.1662 33.4749 12.3686 33.0558 12.505 33.0034C12.5578 32.9815 12.549 33.0601 12.4962 33.2042C12.4478 33.3483 12.3598 33.5579 12.2586 33.7936C12.153 34.0294 12.0474 34.2957 11.9506 34.5446C11.9022 34.6712 11.8538 34.7934 11.8142 34.9069C11.7746 35.0204 11.7438 35.1296 11.7174 35.2213C11.669 35.3915 11.6426 35.54 11.6162 35.6797C11.6206 35.7365 11.6382 35.7845 11.6426 35.8412C11.6602 35.815 11.6778 35.7888 11.6954 35.7626L11.7262 35.7234L11.7878 35.6011C11.867 35.4352 11.9462 35.2649 12.0166 35.0859C12.3686 34.2171 12.747 33.3352 13.165 32.4795C14.1198 30.5323 15.2902 28.668 16.6102 26.9653C17.9302 25.2669 19.4218 23.7258 20.997 22.512L21.2918 22.285L21.5998 22.0667L21.9078 21.8484L22.2202 21.6432L22.5326 21.438L22.845 21.2503C22.9506 21.1892 23.0518 21.1193 23.1574 21.0625L23.4742 20.8879C24.3146 20.4339 25.1594 20.0627 26.0042 19.8095C26.2154 19.7484 26.4266 19.6829 26.6334 19.6349C26.739 19.6087 26.8446 19.5781 26.9458 19.5607L27.2582 19.4995C27.311 19.4908 27.3638 19.4777 27.4166 19.469L27.575 19.4471L27.8874 19.3991L28.1998 19.3686L28.3538 19.3511L28.5078 19.3424L28.8202 19.3249H29.1326C29.3394 19.3162 29.5462 19.338 29.753 19.3424L30.061 19.3686L30.215 19.3817C30.2678 19.386 30.3162 19.3948 30.369 19.4035L30.677 19.4428L30.985 19.4995L31.139 19.5257L31.293 19.5607L31.601 19.6305C31.8034 19.6916 32.0146 19.7353 32.217 19.8095C32.6306 19.9318 33.0354 20.102 33.4446 20.2767C34.2586 20.6478 35.0638 21.1018 35.8426 21.6563C36.2342 21.927 36.6126 22.2326 36.991 22.5426C37.365 22.8657 37.7346 23.1931 38.091 23.5511C38.8126 24.254 39.4902 25.0268 40.1282 25.852C40.7662 26.6728 41.3602 27.546 41.9058 28.4584C42.0642 28.7248 42.2094 28.9998 42.3634 29.2705L42.2622 29.3404L40.5902 30.4973L38.9534 31.7023C38.817 31.8027 38.6806 31.9032 38.5442 32.0079L38.1438 32.3223L37.343 32.951C37.079 33.1606 36.8062 33.3701 36.5466 33.584L35.7634 34.2389C34.7118 35.099 33.7042 36.0159 32.6966 36.9327L31.2182 38.3473C30.9674 38.5787 30.7342 38.8275 30.4966 39.072L29.7838 39.8055C29.5462 40.05 29.3042 40.2901 29.0754 40.5434L28.3846 41.303C27.927 41.8095 27.4606 42.3072 27.025 42.8398L26.3606 43.6257L26.0306 44.0186C25.9206 44.1496 25.8106 44.2806 25.705 44.4159L24.4334 46.0357C22.779 48.2274 21.2434 50.5239 19.8618 52.9208L18.8586 54.737C18.5374 55.3526 18.2338 55.9769 17.9258 56.5969C17.6046 57.2125 17.3406 57.8543 17.0546 58.4873L16.6322 59.4391C16.5618 59.5963 16.4914 59.7797 16.421 59.9499C16.3506 60.1246 16.2846 60.2948 16.2186 60.4651C15.6906 61.8404 15.255 63.2113 14.8854 64.6259C14.5158 66.036 14.2298 67.4855 14.0318 68.9874L13.9658 69.555L13.935 69.8388L13.9086 70.1269L13.8602 70.7032L13.8294 71.2926L13.8162 71.5852V71.8864L13.803 72.4845C13.8118 72.8949 13.8118 73.2922 13.8426 73.7114C13.8866 74.5365 13.9966 75.3966 14.1594 76.2698L14.3002 76.9291C14.353 77.1517 14.4146 77.3744 14.4762 77.6014L14.5686 77.9376L14.683 78.2781C14.7622 78.5052 14.8326 78.7278 14.925 78.9592C15.2726 79.8673 15.7434 80.7842 16.3242 81.6617C16.9094 82.5393 17.6354 83.3601 18.445 84.0805C18.6518 84.2551 18.8586 84.4254 19.0698 84.5956L19.2282 84.7223L19.391 84.8358L19.721 85.0628C20.1566 85.3728 20.6318 85.626 21.1026 85.8836C21.217 85.9491 21.3446 86.0058 21.4722 86.0626L21.8506 86.2285C22.1058 86.3376 22.3566 86.4512 22.625 86.5298C22.8934 86.6171 23.1618 86.7044 23.4302 86.783C23.703 86.8572 23.9802 86.9096 24.2574 86.9707L24.6754 87.0537L25.0934 87.106C25.3706 87.1366 25.6522 87.1715 25.9294 87.1846C26.2066 87.1934 26.4794 87.1977 26.7566 87.1977H26.9634L27.1658 87.1846L27.5662 87.1584C28.1118 87.1279 28.609 87.0362 29.1238 86.9489C29.3702 86.8965 29.6122 86.8397 29.8542 86.7786C29.973 86.748 30.1006 86.7219 30.215 86.6869L30.5582 86.5821C31.4954 86.3071 32.3182 85.9447 33.119 85.5605C33.5018 85.364 33.8934 85.1676 34.2498 84.9537C34.4302 84.8489 34.615 84.7441 34.791 84.6349L35.3058 84.3075L35.561 84.1416L35.8074 83.9713L36.2958 83.6308L36.7666 83.2815C36.9206 83.1636 37.079 83.0457 37.2286 82.9279C37.5278 82.6877 37.8314 82.452 38.113 82.2031C38.2538 82.0809 38.4034 81.9586 38.5398 81.8364L38.9534 81.4653C40.0578 80.4698 41.0522 79.4395 42.007 78.3916C42.953 77.3395 43.8418 76.2698 44.6866 75.1783C44.8978 74.9033 45.1046 74.6369 45.3114 74.3532L45.9274 73.4974L46.5434 72.6417L47.1198 71.7642C48.6642 69.424 50.0194 66.9835 51.1898 64.4599C52.3646 61.9364 53.337 59.3212 54.1202 56.6449C54.899 53.9642 55.4842 51.2181 55.8318 48.4151C56.1794 45.6122 56.2894 42.7569 56.1046 39.8797C56.0034 38.3822 55.801 36.9109 55.515 35.4658C55.3918 34.8545 55.2466 34.2477 55.097 33.6452C55.933 33.226 56.7734 32.82 57.6314 32.4489L58.1726 32.2088L58.7182 31.9818C59.0834 31.8333 59.4442 31.6761 59.8094 31.5364L60.9138 31.1173C61.0986 31.0431 61.2834 30.982 61.4682 30.9165L62.0226 30.7244C62.643 30.4973 63.259 30.2878 63.8794 30.0738C63.5274 30.1612 63.1754 30.2485 62.8234 30.3358C62.4714 30.4231 62.1238 30.5323 61.763 30.6414C59.9106 31.2177 58.0758 31.8988 56.2806 32.6716C55.8538 32.8637 55.427 33.047 55.0002 33.2435C54.9518 33.0689 54.899 32.8942 54.8462 32.7196C55.141 32.5799 55.4402 32.4445 55.735 32.3092L56.2366 32.0778C56.4038 31.9992 56.5754 31.9337 56.747 31.8595L57.7678 31.4273L58.7974 31.0212L59.3122 30.8204L59.8314 30.6327L60.8742 30.2572L61.9258 29.9123L62.4494 29.742L62.9774 29.5849L64.0334 29.2749L65.0982 28.9954C65.2742 28.9518 65.4502 28.8994 65.6306 28.8557L66.1674 28.7335C66.5238 28.6549 66.8802 28.5632 67.2366 28.489C67.9538 28.3537 68.6666 28.1921 69.3838 28.083C69.7446 28.0262 70.101 27.9564 70.4574 27.9083L71.5354 27.7643C72.9698 27.5984 74.4086 27.4674 75.8342 27.4412C76.5514 27.4062 77.2598 27.4324 77.9726 27.4281C78.329 27.4368 78.681 27.4586 79.033 27.4717L79.5654 27.4936L80.0934 27.5372L81.145 27.6245L82.1878 27.7555C82.3594 27.7774 82.5354 27.7905 82.707 27.8254L83.2218 27.9127L83.7366 27.9957C83.9082 28.0218 84.0798 28.048 84.2514 28.0873C84.4714 28.1354 84.4714 28.131 84.5374 28.1441L84.709 28.1747L85.0522 28.2314C85.281 28.2707 85.5142 28.2969 85.743 28.3493C87.1994 28.6069 88.6514 28.9474 90.077 29.3797C89.9626 29.4408 89.8526 29.5019 89.7426 29.563L89.0078 29.9691L88.6426 30.1743C88.5194 30.2441 88.4006 30.314 88.2862 30.3926C86.1478 31.7111 84.1502 33.2697 82.3594 34.9724C82.0646 35.2649 81.915 35.3348 82.3594 35.2213C83.059 35.0466 83.2262 35.3348 82.3418 36.2123C82.2318 36.3215 82.0382 36.5267 82.0558 36.5398C82.2406 36.7057 82.2714 36.9327 82.1482 37.2427C82.0338 37.5614 81.7654 37.9631 81.3342 38.4783C81.2682 38.5569 81.1934 38.6398 81.1186 38.7228C81.0482 38.8057 80.9822 38.8887 80.925 38.9716C80.8106 39.1332 80.7314 39.286 80.7622 39.4126L81.2462 39.0022C81.4046 38.8625 81.5806 38.7402 81.7478 38.6092C81.9458 38.4564 82.1394 38.2949 82.333 38.1421C82.1966 38.3036 82.069 38.4739 81.9238 38.6311C81.7214 38.8537 81.497 39.0677 81.2946 39.2991C81.4002 39.3078 81.5146 39.203 81.629 39.0982C81.7434 38.9978 81.849 38.893 81.9238 38.8843C82.5926 38.8144 81.8886 39.6221 81.8358 40.0369C81.7874 40.3338 80.9294 41.1589 81.9238 40.6918C81.9986 40.6569 82.0118 40.9407 81.959 41.124C81.6598 42.1326 82.2714 42.3814 83.3934 41.7571C83.6442 41.6174 83.7938 41.517 83.7366 41.8095C83.6662 42.1806 83.6398 42.3596 83.7498 42.3334C83.807 42.3203 83.895 42.2592 84.0314 42.1413C84.0974 42.0802 84.181 42.0103 84.2734 41.9274C84.3702 41.8444 84.4846 41.7527 84.6122 41.6479C84.8498 41.4558 85.083 41.2594 85.3162 41.0673C85.4306 40.9668 85.5538 40.8795 85.677 40.7878L86.0466 40.5172C85.9498 40.6394 85.8486 40.7529 85.743 40.8664C85.633 40.9756 85.523 41.0891 85.413 41.1982C85.1886 41.4209 84.951 41.6348 84.7046 41.8444C84.599 41.9361 84.4758 42.0365 84.3614 42.1456C84.247 42.2592 84.137 42.3727 84.0534 42.4775C83.8862 42.687 83.8158 42.8617 84.0138 42.901C84.2602 42.949 84.3306 43.2459 84.5066 43.4074C84.6826 43.5689 84.9466 43.5951 85.5758 43.1454C85.8794 42.9446 86.1742 42.722 86.4646 42.4906C86.5394 42.4338 86.6098 42.3727 86.6802 42.3159L86.9046 42.15C87.0542 42.0409 87.2038 41.9274 87.3534 41.8182C87.503 41.7091 87.6526 41.5999 87.8022 41.4951C87.9562 41.3903 88.1146 41.2987 88.2686 41.207C88.5854 41.0236 88.8978 40.8533 89.2234 40.7267C90.693 39.6789 92.2638 38.762 93.9006 37.9674L94.1646 37.8321L94.4374 37.7099L94.983 37.4654L95.5286 37.2209L96.083 36.9982C96.457 36.8541 96.8178 36.6882 97.2006 36.566L97.7638 36.3652L98.0454 36.2647L98.1862 36.2123L98.2214 36.1992C98.2214 36.1992 98.239 36.1905 98.2698 36.1818L98.4106 36.1425L100.659 35.5007L100.941 35.4221C100.967 35.4177 100.985 35.409 101.015 35.4046L101.103 35.3872L101.279 35.3523L101.992 35.2169L103.418 34.9462L104.131 34.8109L104.487 34.741L104.87 34.6886L106.405 34.4791L109.472 34.0599L109.78 34.0163L109.855 34.0075H109.895L109.912 33.9988C109.917 33.9988 109.925 33.9988 109.925 33.9944V33.9028L109.934 33.5404L109.947 32.8113L109.965 31.8115L109.987 30.4973L110 29.7071V29.3273L110.009 29.1395C110.009 29.0784 110.005 29.0173 110 28.9518L109.991 28.9998ZM75.6934 12.0862C75.4338 12.0076 75.1082 11.9334 74.787 11.8068C74.5054 11.6976 74.4086 11.5317 74.6066 11.5186C74.8662 11.4968 75.2182 11.6278 75.5482 11.833C75.667 11.9072 75.8958 12.012 75.6934 12.0862ZM81.497 7.98657C81.3342 7.94291 81.1758 7.89488 81.0042 7.84249C80.9602 7.82939 80.9206 7.8163 80.8766 7.8032C80.8326 7.7901 80.8018 7.78137 80.7182 7.75081C80.5774 7.69842 80.4322 7.64603 80.2826 7.58927C80.1594 7.50632 79.9702 7.3797 79.7898 7.25309C79.5302 7.06536 79.2706 6.88199 79.0154 6.69425C79.341 6.69425 79.6226 6.93874 79.935 7.06972C80.2694 7.20943 80.6082 7.34914 80.9426 7.48012C81.1538 7.55871 81.365 7.63293 81.5762 7.71151C81.7434 7.777 81.981 7.85996 81.937 8.01713C81.8842 8.2005 81.6466 8.03023 81.497 7.98657ZM85.6462 7.25309C85.567 7.3928 85.325 7.24872 85.1446 7.1745C84.8542 7.05226 84.5638 6.93874 84.2734 6.8296C83.983 6.72045 83.697 6.6244 83.4066 6.52398C82.8258 6.31878 82.2626 6.13541 81.6994 5.90838C81.3034 5.74248 80.9118 5.56784 80.5202 5.38884C80.133 5.20983 79.7502 5.0221 79.3674 4.82126C78.9538 4.62043 78.4038 4.4327 77.9682 4.22313C77.537 4.01793 77.207 3.79964 77.229 3.54205C77.2378 3.41543 77.581 3.58134 78.0166 3.82583C78.4522 4.06596 79.0066 4.38031 79.4026 4.54184L80.9734 5.17491L81.7698 5.49798L81.871 5.53728L81.937 5.56347L82.0646 5.6115L82.3154 5.70318C82.9842 5.94768 83.6662 6.214 84.3482 6.47595C84.6474 6.5982 84.9554 6.71172 85.237 6.86016C85.4086 6.95184 85.7694 7.03479 85.6506 7.24872L85.6462 7.25309ZM7.28224 45.944C7.25144 46.35 6.77184 47.1577 6.06784 47.3804C5.32424 47.6074 5.07344 47.4634 5.06904 47.4852C4.86664 47.4546 4.65544 47.3848 4.47064 47.2887C4.38264 47.2407 4.28144 47.1796 4.21984 47.1315L4.18904 47.1054C4.14504 47.0704 4.10544 47.0355 4.06144 47.0006L4.01304 46.9525L3.99544 46.9351L3.92944 46.8696L3.90304 46.839L3.84144 46.7692C3.81504 46.7342 3.78424 46.6993 3.75784 46.66L3.38384 45.7214C3.37944 45.669 3.37064 45.6122 3.36184 45.5511C3.19464 44.5731 3.41024 44.4945 3.67424 44.071C3.84584 43.796 3.99544 43.6257 4.12744 43.5471C4.25944 43.4685 4.36504 43.4904 4.45304 43.5951C4.54104 43.7043 4.62464 43.9051 4.69944 44.1933C4.73904 44.3373 4.76984 44.5033 4.81384 44.691C4.82264 44.7346 4.83584 44.7914 4.84464 44.8351C4.83144 44.8351 4.81824 44.8351 4.80944 44.8351C4.73024 44.8787 4.68624 45.0097 4.69064 45.2105C4.69064 45.311 4.70824 45.4288 4.73024 45.5642C4.74344 45.6297 4.75664 45.6995 4.76984 45.7781C4.76984 45.7956 4.77424 45.813 4.77864 45.8305V45.8523V45.8611V45.8654L4.82704 45.8392L5.04264 45.7257C5.04264 45.7257 5.06464 45.717 5.07784 45.7083C5.09104 45.7214 5.09984 45.7301 5.10864 45.7432L5.12624 45.7606L5.13944 45.7737C5.13944 45.7737 5.14824 45.7825 5.18344 45.813C5.19224 45.8174 5.17904 45.813 5.21424 45.8349C5.24064 45.8523 5.27584 45.8654 5.30664 45.8698C5.28904 45.8523 5.41224 45.9527 5.62784 45.7475C5.73344 45.5162 5.66744 45.6122 5.68504 45.5598C5.68504 45.538 5.68504 45.5162 5.67624 45.4987C5.66744 45.4725 5.67184 45.4812 5.66744 45.4725L5.65864 45.4507C5.65864 45.4507 5.64544 45.4245 5.64544 45.4201C5.63664 45.407 5.63224 45.4026 5.62784 45.3939C5.61464 45.3764 5.60584 45.3677 5.59704 45.3546L5.63224 45.3284L5.81704 45.1756L5.88744 45.1189C5.88744 45.1189 5.88744 45.0927 5.87864 45.0752L6.01504 45.4157C6.02824 45.3546 6.04144 45.2935 6.05464 45.228C6.10744 44.9573 6.14704 44.7041 6.19544 44.4858C6.25264 44.2675 6.30984 44.0841 6.38464 43.9531C6.50784 43.7436 6.68824 43.7043 6.97424 43.8746C6.93904 43.8964 6.90824 43.9269 6.88624 43.9793C6.86424 44.0405 6.85984 44.1234 6.88624 44.2369C6.89944 44.2937 6.92144 44.3548 6.95664 44.429C6.96544 44.4509 6.97864 44.4727 6.98744 44.4945C7.00504 44.5294 7.02264 44.5644 7.04464 44.5993L7.07984 44.6648L7.11944 44.7477L7.13704 44.787L7.15904 44.8394C7.17664 44.8787 7.18984 44.9224 7.20304 44.966L7.22504 45.0315C7.23824 45.0752 7.26024 45.1538 7.26904 45.2149C7.28224 45.2804 7.29104 45.3502 7.29544 45.4157C7.29984 45.4856 7.30424 45.5511 7.29984 45.6166C7.29104 45.7344 7.31304 45.634 7.26464 45.9309L7.28224 45.944ZM4.20224 35.4483C4.15824 35.1121 4.36504 34.7672 4.45304 34.4223C4.55864 34.0468 4.66424 33.6757 4.76984 33.3046C5.13064 32.2219 5.54864 31.1653 6.00624 30.1175C6.09864 29.9123 6.20424 29.6853 6.30544 29.4582C6.41104 29.2312 6.52544 29.0129 6.63104 28.8121C6.84224 28.4148 7.04024 28.1179 7.15024 28.0917C7.39224 28.0262 6.66624 29.2792 6.37144 30.0127C6.04144 30.7724 5.73784 31.5539 5.43864 32.3834C5.36384 32.5886 5.29344 32.8025 5.22304 33.0165C5.18784 33.1213 5.14824 33.2304 5.11304 33.3396L5.08664 33.4225C5.08664 33.4225 5.07784 33.4443 5.07784 33.4487V33.4618L5.06024 33.5186C5.02504 33.6714 4.98544 33.8285 4.94584 33.9901C4.87544 34.1298 4.76544 34.3437 4.65984 34.5489C4.50584 34.8545 4.35624 35.1514 4.20224 35.4527V35.4483ZM10.1378 38.081C10.1378 38.2163 10.129 38.356 10.107 38.4957C10.0718 38.7402 9.93984 38.8494 9.87384 38.6922C9.79024 38.4826 9.82104 38.1683 9.94424 37.8627C9.99264 37.7535 10.041 37.5483 10.1598 37.7055C10.151 37.819 10.1466 37.9456 10.1422 38.081H10.1378ZM13.0858 16.7621C11.3654 18.4037 9.87824 20.1719 8.56704 22.0361C7.90704 22.9661 7.29984 23.9222 6.72344 24.8958C6.14704 25.8694 5.61904 26.8692 5.12184 27.8821C4.62024 28.895 4.17584 29.9385 3.75784 30.9994C3.65664 31.2657 3.55104 31.5321 3.44984 31.7984C3.35304 32.0691 3.25624 32.3354 3.16384 32.6061L3.10664 32.7676L3.08464 32.8375L3.04504 32.9772L2.96144 33.2522C2.90424 33.4356 2.84704 33.6233 2.78984 33.8067C2.73264 33.9944 2.67984 34.1778 2.62264 34.3656C2.56544 34.5533 2.50824 34.741 2.44664 34.9288C2.38944 35.1165 2.33224 35.3086 2.27504 35.4963C2.12984 36.0028 2.04624 36.6664 1.92744 37.2165C1.82624 37.771 1.68104 38.2119 1.43024 38.2905C1.29824 38.3255 1.38184 37.8758 1.52264 37.2951C1.58864 37.0026 1.68984 36.6882 1.76904 36.3782C1.80864 36.2254 1.84824 36.0726 1.88784 35.9286C1.92744 35.7845 1.96264 35.6535 1.98464 35.5313C2.11224 34.9026 2.26624 34.2826 2.42464 33.6626L2.68424 32.7414C2.69304 32.7021 2.70624 32.6628 2.71944 32.6279L2.82944 32.3179L3.06704 31.6456C3.23424 31.2046 3.40144 30.7593 3.58184 30.3227C5.01184 26.8256 6.89504 23.5468 9.23144 20.5255C10.2478 19.2201 11.361 17.9453 12.6018 16.7796C12.7866 16.6006 13.0198 16.3866 13.2574 16.1683C13.3762 16.0592 13.4994 15.95 13.6182 15.8409C13.7414 15.7361 13.8646 15.6313 13.9834 15.5353C14.4498 15.1511 14.8546 14.8891 14.9206 14.9939C14.9998 15.1249 13.8162 16.0548 13.077 16.7665L13.0858 16.7621ZM20.2138 11.6845C20.073 11.7587 19.9014 11.8504 19.721 11.9465C19.5406 12.0425 19.347 12.1429 19.1534 12.239C18.6298 12.5184 18.093 12.776 17.587 13.0729C18.0446 12.7149 18.5242 12.3743 19.1138 11.9814C19.413 11.8548 19.7518 11.6976 20.0334 11.5797C20.3194 11.4662 20.535 11.3876 20.5614 11.3964C20.6582 11.4226 20.4954 11.5361 20.2138 11.6889V11.6845ZM33.7394 9.95997C33.5018 9.97744 33.163 9.93378 32.7538 9.88575C32.547 9.86392 32.3314 9.82463 32.0938 9.79843C31.8606 9.76787 31.6098 9.73731 31.359 9.70675C30.3382 9.58887 29.181 9.53211 28.2438 9.60196C27.9534 9.60633 27.5706 9.62379 27.1746 9.67618C26.9766 9.69801 26.7742 9.71984 26.5762 9.75041C26.3782 9.78097 26.189 9.8159 26.0086 9.84209C25.6478 9.89448 25.3486 9.95997 25.1682 9.97743C24.9878 9.9949 24.9262 9.97744 25.0538 9.89012C25.3134 9.71984 26.2374 9.50591 27.3594 9.4186C27.4298 9.41423 27.5002 9.4055 27.5706 9.40113C27.641 9.40113 27.7158 9.3924 27.7862 9.38803C27.9314 9.3793 28.081 9.37494 28.2262 9.3662C28.521 9.34874 28.8246 9.35311 29.1194 9.35311C29.4142 9.35311 29.709 9.36184 29.9906 9.37494C30.1314 9.3793 30.2678 9.38367 30.3998 9.38803C30.5318 9.39676 30.6638 9.4055 30.787 9.41423C31.0598 9.43169 31.403 9.45352 31.7594 9.50591C31.9354 9.52774 32.1158 9.55394 32.2918 9.58013C32.4678 9.61506 32.6394 9.64562 32.7978 9.67618C32.9562 9.71111 33.1058 9.73731 33.2378 9.77224C33.3654 9.80716 33.4798 9.83772 33.5634 9.86392C33.735 9.91631 33.8098 9.95124 33.735 9.95997H33.7394ZM41.7738 40.7355C41.9146 40.6263 42.073 40.5041 42.2358 40.3774C42.403 40.2552 42.5746 40.1286 42.7286 40.0194C43.0366 39.7968 43.283 39.6221 43.3226 39.6221C43.635 39.6134 42.6978 40.2246 42.315 40.539C42.0642 40.7573 41.6946 41.0673 41.3822 41.3205C41.0698 41.5737 40.819 41.7745 40.8014 41.7702C40.5902 41.7483 41.4262 41.1153 41.7738 40.7398V40.7355ZM33.977 48.2318C34.1398 48.0222 34.2762 47.8738 34.3246 47.817C35.0286 47.0399 35.627 46.3719 36.2034 45.8436C36.771 45.3022 37.2726 44.8525 37.7742 44.5033C37.6202 44.6648 37.4618 44.8438 37.3078 45.0141C37.1582 45.1887 37.013 45.3546 36.8722 45.4856C36.573 45.7694 36.2738 46.0532 35.9746 46.3326L35.7502 46.5421L35.5346 46.7604L35.1034 47.1927C34.813 47.4808 34.527 47.769 34.2366 48.0571C33.955 48.3496 33.6822 48.6509 33.4006 48.9478C33.603 48.6902 33.8098 48.437 33.9726 48.2274L33.977 48.2318ZM31.425 52.052L31.6098 51.7944C31.6714 51.7114 31.7374 51.6285 31.8034 51.5455L32.1906 51.0478L32.965 50.0524L33.779 49.0831L34.1882 48.5985L34.3906 48.354L34.6018 48.1182L35.4554 47.1796L35.8822 46.708L36.3266 46.254L37.2154 45.3459L37.4354 45.1189L37.6642 44.9006L38.1262 44.4596C40.4406 42.2373 42.931 40.1853 45.549 38.2993C45.5754 38.4521 45.6062 38.6005 45.6282 38.7533L44.7878 39.3558L44.4842 39.5741C44.383 39.6483 44.2862 39.7269 44.185 39.8011L43.591 40.2552L42.997 40.7093L42.7022 40.9363L42.4118 41.172L41.259 42.1195L40.9686 42.3552L40.687 42.5997L40.1282 43.0931L39.5694 43.5864L39.2878 43.8353L39.015 44.0929L37.9326 45.1189L37.6642 45.3764L37.4046 45.6428L36.881 46.1754L36.3574 46.708C36.2694 46.7954 36.1814 46.8827 36.0978 46.9744L35.847 47.2494L34.8438 48.3496C34.6722 48.5286 34.5138 48.7207 34.3554 48.9085L33.8758 49.4761C33.559 49.8559 33.229 50.227 32.9342 50.6243L32.0234 51.7944C31.8694 51.9865 31.7286 52.1917 31.5834 52.3925L31.1522 52.995L30.721 53.5975L30.611 53.7459L30.5098 53.8987L30.3074 54.2087L29.4978 55.4443C29.2338 55.8591 28.9918 56.2869 28.7366 56.7104L28.3582 57.3435C28.235 57.5574 28.125 57.7757 28.0062 57.9896L27.311 59.2863L26.673 60.6092C26.585 60.7926 26.4926 60.9847 26.4002 61.1768C26.3078 61.3732 26.2286 61.5784 26.1362 61.7793C25.9602 62.1897 25.7754 62.6044 25.5862 63.0105C25.485 63.22 25.4058 63.4034 25.3222 63.5911C25.2386 63.7789 25.155 63.9622 25.0714 64.1412C24.9042 64.5036 24.7414 64.8441 24.5742 65.1541C24.6842 64.7787 24.803 64.4032 24.9262 64.0364C24.9922 63.8531 25.0494 63.6697 25.1154 63.4907C25.1814 63.3117 25.243 63.1327 25.3266 62.9406C25.4806 62.5608 25.639 62.1766 25.7974 61.7967C25.8766 61.6046 25.9558 61.4125 26.035 61.2248C26.1186 61.0327 26.211 60.8493 26.299 60.6616C27.707 57.6622 29.4318 54.785 31.4206 52.0738L31.425 52.052ZM23.109 68.4198C23.3246 67.3196 23.6414 66.1932 23.9846 65.1148C24.2002 64.4207 24.4466 63.7352 24.7106 63.0759C24.7722 62.9144 24.8558 62.7354 24.9306 62.5651L25.1594 62.0456L25.617 61.0065C25.947 60.321 26.2902 59.6443 26.6246 58.9632C26.9942 58.2952 27.355 57.6273 27.7246 56.9636C27.487 57.5967 27.1922 58.256 26.8578 58.9152C26.7698 59.0767 26.6994 59.2514 26.6158 59.4173C26.5366 59.5876 26.453 59.7535 26.3694 59.9237C26.2022 60.2599 26.0306 60.5961 25.859 60.9323C25.5378 61.609 25.2298 62.2813 24.9394 62.9231C24.6754 63.53 24.4686 64.1238 24.3278 64.6739C24.099 65.3288 23.9098 65.9618 23.747 66.5731C23.5886 67.1887 23.4522 67.7781 23.3378 68.35C23.1178 69.4939 22.9594 70.5592 22.8494 71.5764C22.7834 70.6115 22.8978 69.5244 23.1134 68.4242L23.109 68.4198ZM23.6986 68.8084C23.6766 69.0311 23.6546 69.2756 23.6326 69.5157L23.549 69.6336C23.571 69.3978 23.5886 69.1577 23.6194 68.9219C23.6502 68.8826 23.7074 68.7866 23.703 68.8084H23.6986ZM23.9714 76.9422C23.9318 76.8679 23.8922 76.7981 23.857 76.7282C23.7162 76.4182 23.5094 76.1301 23.3334 75.7765C23.1662 75.4184 23.0166 75.008 23.0122 74.5409C23.0122 74.5147 23.153 74.7112 23.1838 74.8509C23.329 75.3748 23.5534 75.855 23.7426 76.213C23.7822 76.3135 23.835 76.3877 23.8746 76.4706C23.8922 76.5099 23.9098 76.5536 23.9274 76.5929C23.945 76.6322 23.9626 76.6627 23.9802 76.702C24.011 76.7719 24.0286 76.8505 24.0462 76.9203C24.0594 76.9683 24.0638 77.0164 24.0638 77.0688C24.033 77.0251 24.0022 76.9858 23.9714 76.9422ZM24.363 77.3918C24.3234 77.3526 24.2838 77.3133 24.2442 77.274C24.2266 77.2565 24.209 77.239 24.1914 77.2216C24.2354 77.2565 24.275 77.2914 24.319 77.3264C24.3982 77.3962 24.495 77.4442 24.583 77.5054C24.5918 77.5054 24.6094 77.5752 24.627 77.6101C24.5434 77.5316 24.451 77.4661 24.363 77.3918ZM26.321 77.7062C26.2946 77.7149 26.2682 77.7193 26.233 77.7193C26.1978 77.7193 26.1626 77.728 26.123 77.7193C25.969 77.6975 25.7886 77.6363 25.6522 77.5796C25.617 77.5621 25.5818 77.549 25.5422 77.5316C25.507 77.5141 25.4674 77.5097 25.4278 77.4835C25.353 77.4399 25.2738 77.3962 25.1946 77.3569C25.1198 77.3045 25.0494 77.2521 24.9746 77.2085C24.9042 77.1561 24.847 77.095 24.7766 77.0469C24.5258 76.8243 24.3102 76.5623 24.1166 76.2261L24.0902 76.2392C23.8658 75.8725 23.659 75.401 23.5314 74.8334C23.4654 74.5103 23.3598 74.0519 23.3334 73.6328C23.2982 73.218 23.3114 72.8775 23.3862 72.8731C23.4698 72.8731 23.5094 73.1962 23.549 73.5978C23.5886 74.0039 23.659 74.4536 23.7338 74.7636C23.8394 75.139 23.9538 75.4839 24.0902 75.7721C24.231 76.0515 24.3806 76.296 24.539 76.4925C24.7062 76.6802 24.8734 76.8461 25.0714 76.9946C25.1198 77.0295 25.1814 77.06 25.2342 77.0993L25.3134 77.1561C25.3442 77.1692 25.3706 77.1823 25.4014 77.1954C25.4586 77.2216 25.5114 77.2521 25.5686 77.2871C25.6214 77.3045 25.6742 77.322 25.727 77.3438C25.793 77.3831 25.8678 77.3875 25.9426 77.4093C25.9602 77.4137 25.9778 77.4224 25.9954 77.4268C26.013 77.4355 26.0306 77.4311 26.0526 77.4355C26.0878 77.4399 26.123 77.4486 26.1582 77.4573C26.1758 77.4617 26.189 77.4704 26.2066 77.4748C26.2242 77.4792 26.2374 77.4792 26.255 77.4835C26.2858 77.4923 26.3122 77.501 26.3342 77.5141C26.3782 77.5403 26.4046 77.5752 26.409 77.6145C26.409 77.6625 26.3826 77.6844 26.3342 77.6975L26.321 77.7062ZM31.8122 74.8945C31.7022 74.9906 31.5746 75.1128 31.4646 75.187C30.9542 75.5669 30.325 76.0995 29.7882 76.4706C29.2514 76.8461 28.8158 77.0557 28.6838 76.964C28.6398 76.9334 28.7322 76.8548 28.9126 76.7413C29.0006 76.6846 29.115 76.6278 29.2426 76.5449C29.3702 76.4619 29.5154 76.3921 29.6694 76.2829C29.9774 76.0908 30.3206 75.8594 30.6418 75.6193C30.963 75.3835 31.2622 75.1303 31.4778 74.9338C32.349 74.2746 33.097 73.349 33.7262 72.9997C33.1058 73.6764 32.4678 74.3182 31.8166 74.9033L31.8122 74.8945ZM38.817 66.5643C38.7598 66.6778 38.6894 66.8001 38.6102 66.9311C38.531 67.062 38.4518 67.2018 38.3506 67.3415C38.157 67.6209 37.937 67.9221 37.717 68.2321C37.607 68.3849 37.497 68.5421 37.3826 68.6993C37.2682 68.8564 37.1494 69.0136 37.0394 69.1664C36.6654 69.6336 36.1418 70.271 35.605 70.8822C35.7634 70.4718 36.1462 69.9479 36.5818 69.376C36.7974 69.0878 37.035 68.791 37.2506 68.4941C37.4618 68.1972 37.6686 67.909 37.8534 67.6296C37.9414 67.4943 38.0646 67.3153 38.1966 67.1275C38.3242 66.9354 38.4562 66.7259 38.5794 66.5425C38.8258 66.1758 39.0282 65.9094 39.0194 66.0273C39.0062 66.1583 38.9314 66.3417 38.8126 66.5687L38.817 66.5643ZM43.4194 57.147C43.1906 57.7277 42.9266 58.3651 42.7198 58.9021C42.5086 59.3518 42.2182 60.0023 41.9806 60.5175C41.7254 61.024 41.523 61.3951 41.5362 61.299C41.5714 60.9847 41.8046 60.4826 42.0466 59.9019C42.2974 59.3256 42.6142 58.6925 42.8122 58.125C42.8914 57.911 42.997 57.6404 43.107 57.3653C43.1642 57.2256 43.2214 57.0859 43.2742 56.9462C43.327 56.8065 43.3754 56.6668 43.4238 56.5358C43.6174 56.0162 43.7714 55.6277 43.7758 55.7193C43.7758 56.0293 43.6262 56.562 43.415 57.147H43.4194ZM45.8966 42.8529L45.8834 43.665C45.8218 45.8305 45.5578 48.0135 45.1178 50.1702L44.9462 50.9779C44.889 51.2486 44.8362 51.5193 44.757 51.7856C44.6162 52.3226 44.4798 52.8553 44.3346 53.3923L43.8462 54.9815C43.6702 55.5098 43.4766 56.0293 43.2962 56.5532C42.5262 58.6402 41.6066 60.679 40.5594 62.6437L39.9918 63.6915C39.7938 64.0365 39.587 64.3726 39.3846 64.7132C38.993 65.403 38.5354 66.0491 38.1086 66.7128C38.003 66.8787 37.8842 67.0359 37.7698 67.1974L37.4266 67.6776L37.0834 68.1579C37.0262 68.2365 36.969 68.3194 36.9118 68.398L36.727 68.6381C36.2342 69.2799 35.737 69.9086 35.2222 70.5155C34.197 71.7292 33.1278 72.8687 32.0366 73.8685C31.491 74.3706 30.9366 74.8247 30.391 75.2307C29.8454 75.6367 29.2998 75.9904 28.7894 76.2654C28.279 76.5449 27.795 76.7457 27.3946 76.8548C26.9942 76.964 26.6862 76.9902 26.4618 76.9771C26.233 76.9596 26.0658 76.9203 25.837 76.8068C25.8238 76.8068 25.8062 76.7937 25.793 76.785L25.749 76.7588C25.7182 76.7413 25.6874 76.7239 25.6566 76.7108C25.639 76.702 25.6214 76.6977 25.6082 76.6846L25.5642 76.6496C25.5334 76.6278 25.507 76.606 25.4762 76.5885C25.463 76.5798 25.4454 76.5711 25.4322 76.558L25.397 76.523C25.3706 76.5012 25.3442 76.4794 25.3178 76.4575C25.287 76.4401 25.265 76.4139 25.243 76.3877C25.221 76.3615 25.1946 76.3397 25.1726 76.3178C24.9878 76.1301 24.8206 75.8943 24.6622 75.5494C24.5038 75.2089 24.3674 74.7635 24.275 74.2396C24.0814 73.1918 24.0814 71.8515 24.2486 70.4631C24.4158 69.066 24.7326 67.5991 25.1638 66.1627C25.3794 65.4423 25.6258 64.7263 25.8898 64.0408C25.9558 63.8662 26.0262 63.7003 26.0922 63.53C26.1626 63.3597 26.2506 63.1676 26.3298 62.9886L26.8138 61.8971C28.1338 58.9938 29.7794 56.2171 31.6582 53.5888C35.4202 48.3278 40.1238 43.6388 45.4258 39.6964L45.725 39.4737C45.7646 39.7924 45.8042 40.1111 45.8306 40.4298C45.8438 40.5521 45.8482 40.6874 45.8526 40.8228L45.8702 41.2244L45.9054 42.0278C45.9054 42.1631 45.923 42.2941 45.9186 42.4294L45.9098 42.8355L45.8966 42.8529ZM56.5094 31.6674C56.4038 31.7154 56.2982 31.7635 56.197 31.8115C56.0958 31.8595 55.9902 31.9119 55.8934 31.9599C55.4974 32.152 55.1146 32.3398 54.7626 32.51C54.7494 32.4664 54.7362 32.4227 54.723 32.379C55.5282 31.9905 56.3378 31.6368 57.143 31.3792C56.9318 31.4753 56.7162 31.5714 56.5094 31.6674ZM57.0726 23.4463C56.483 23.6384 55.9594 23.9222 55.4182 24.1755C54.877 24.4243 54.3358 24.6819 53.7154 24.8434C53.6318 24.8653 53.6582 24.7998 53.755 24.7474C54.0718 24.5728 54.3886 24.4112 54.701 24.2584C55.0178 24.11 55.3346 23.979 55.647 23.8567C55.9594 23.7345 56.2674 23.621 56.5798 23.5293C56.8526 23.4507 57.121 23.3852 57.385 23.3241C57.2794 23.3678 57.1694 23.4158 57.0726 23.4507V23.4463ZM58.925 22.9312C58.6566 23.0229 58.4014 23.0971 58.177 23.1538C57.9878 23.2019 57.8294 23.2193 57.6886 23.2193L58.265 23.0054L59.035 22.7434C59.5498 22.5688 60.0602 22.3942 60.5838 22.2413C60.5926 22.2413 60.6322 22.3243 60.6146 22.3287C60.0646 22.4946 59.4662 22.7434 58.9294 22.9268L58.925 22.9312ZM65.4062 21.0887C64.931 21.1717 64.4734 21.2503 64.0158 21.3332C64.5042 21.1979 64.9926 21.0364 65.4854 20.9272C65.9694 20.8268 66.4534 20.77 66.9374 20.6958C66.4534 20.8224 65.965 20.9447 65.4062 21.0887ZM86.4822 7.68968C86.3854 7.63729 86.3062 7.55871 86.2182 7.48885C86.3414 7.48885 86.469 7.48012 86.6186 7.48012C86.7022 7.56744 86.8298 7.66349 86.821 7.69842C86.7858 7.82066 86.623 7.76827 86.4866 7.69405L86.4822 7.68968ZM88.9462 8.80736C88.6602 8.95144 88.3346 8.56287 88.0178 8.43626C87.8638 8.30092 87.3798 8.21796 87.5866 8.06952C87.6878 7.9953 87.8418 8.06079 88.009 8.15684C88.1762 8.25289 88.361 8.40133 88.5282 8.46682C88.7086 8.54104 89.0386 8.75934 88.9462 8.80736ZM87.6834 39.5654C87.6262 39.6134 87.5294 39.6309 87.4458 39.6614L87.6218 39.4562C87.7054 39.4126 87.789 39.3733 87.8682 39.3296C87.8066 39.4082 87.7582 39.4999 87.679 39.5654H87.6834ZM96.4966 35.1951C96.413 35.2213 96.3162 35.2082 96.2282 35.2169C96.303 35.1601 96.3778 35.1121 96.4658 35.051C96.5582 35.051 96.6462 35.051 96.7298 35.051C96.6506 35.099 96.5802 35.1645 96.4966 35.1907V35.1951ZM97.5218 26.3104C97.6054 26.3104 97.6714 26.3148 97.7374 26.3191C97.7638 26.3541 97.7858 26.3934 97.8254 26.4283C97.9882 26.5811 98.1026 26.7557 98.1862 26.9478C97.7814 26.7776 97.733 26.7077 97.7198 26.6378C97.711 26.5724 97.7418 26.5025 97.557 26.4414C97.5306 26.3977 97.4822 26.3628 97.4382 26.3235C97.4646 26.3235 97.4778 26.3104 97.5218 26.3148V26.3104ZM97.7506 34.7541L97.6142 34.8021L97.3414 34.8938C97.3414 34.8938 97.3062 34.8065 97.3106 34.8065C97.403 34.7672 97.4998 34.6974 97.5966 34.6624C97.6186 34.6537 97.645 34.6493 97.667 34.645C97.6802 34.645 97.689 34.645 97.7022 34.645C97.7154 34.645 97.7374 34.645 97.755 34.645C97.8166 34.645 97.8694 34.6755 97.9266 34.7105L97.755 34.7585L97.7506 34.7541ZM98.0146 34.693C98.0454 34.6799 98.0762 34.6624 98.107 34.6581C98.4678 34.5882 98.6702 34.2608 99.1058 34.3437C99.1366 34.3481 99.141 34.4005 99.119 34.4179C98.7846 34.645 98.4018 34.7541 98.0146 34.6974V34.693Z" fill="#C1FAB4"/>
<path d="M109.991 28.9998C109.983 28.751 109.956 28.5065 109.925 28.2576L109.864 27.8909C109.842 27.7686 109.811 27.6464 109.785 27.5241C109.763 27.4019 109.723 27.2796 109.688 27.1574C109.653 27.0351 109.622 26.9129 109.578 26.7907L109.45 26.4239L109.296 26.0528C109.081 25.5595 108.834 25.0617 108.509 24.564L108.39 24.3763C108.35 24.3152 108.302 24.2497 108.262 24.1886L107.998 23.8131L107.708 23.4376C107.659 23.3765 107.611 23.311 107.558 23.2499L107.4 23.0621C106.564 22.0667 105.517 21.0975 104.395 20.1719C103.831 19.7091 103.251 19.255 102.665 18.8097L101.803 18.1505L101.416 17.8492C101.293 17.7532 101.183 17.6615 101.086 17.5829L100.716 17.2729L99.8494 16.5394C99.2686 16.0505 98.6834 15.5658 98.0938 15.0812C95.7266 13.1427 93.2494 11.2392 90.6094 9.47972C90.2794 9.25706 89.945 9.04312 89.6106 8.82483L89.4874 8.74187L89.351 8.65892L89.0782 8.49302L88.537 8.16121L88.2642 7.9953L87.9958 7.84249L87.4546 7.53251C87.0938 7.32295 86.7374 7.13521 86.381 6.94311C84.9554 6.17907 83.5562 5.49798 82.1966 4.85183C80.5598 4.07469 78.9846 3.34121 77.5018 2.59464C76.0234 1.84806 74.6418 1.08402 73.4406 0.27196C72.8642 0.158445 72.6486 0.298155 72.6134 0.542648C72.5782 0.78714 72.719 1.14515 72.8202 1.45076C72.8642 1.59484 72.917 1.72145 72.9434 1.82187C72.9698 1.92228 72.9742 2.00087 72.9434 2.0489C72.873 2.13621 72.6354 2.09692 72.1294 1.82187C71.7774 1.63413 71.5354 1.63413 71.3242 1.65596C71.1086 1.68216 70.9106 1.74328 70.6378 1.68216C70.453 1.64286 70.2638 2.0358 70.9458 2.46366C71.6806 2.87842 71.6014 3.07489 71.751 3.51148C71.9578 4.07032 71.949 4.35848 71.6762 4.3934C71.5398 4.41087 71.333 4.37157 71.0646 4.27116C70.7962 4.16637 70.4618 4.00047 70.057 3.77781C69.3574 3.35868 68.9262 3.23643 68.7986 3.38924C68.671 3.54205 68.847 3.96991 69.3794 4.65973C69.7534 5.10068 70.1274 5.48489 70.2682 5.76867C70.409 6.05246 70.321 6.26202 69.7402 6.37554C69.4058 6.43229 68.847 6.51961 68.6006 6.82523C68.4774 6.97804 68.4334 7.19197 68.5434 7.48885C68.5962 7.63293 68.693 7.81193 68.8338 7.9953C68.9746 8.17867 69.1638 8.38823 69.4102 8.61963C69.7314 8.92524 69.5598 9.07369 69.3398 9.07369C68.5654 9.06495 68.5654 9.23523 68.8822 9.50155C68.9614 9.56704 69.0626 9.63689 69.1726 9.71548C69.2826 9.7897 69.4058 9.85955 69.5334 9.93377C69.7886 10.0822 70.057 10.2394 70.2902 10.3966C70.5586 10.5756 70.827 10.724 71.0954 10.8725C71.3638 11.0165 71.6366 11.1606 71.9006 11.2741C72.433 11.5142 72.9698 11.7282 73.489 11.9115C74.0082 12.0949 74.5274 12.2783 75.051 12.466C75.5702 12.6581 76.0674 12.8459 76.5734 13.0816C77.0266 13.2912 77.4842 13.4658 77.9242 13.6841C78.1398 13.7976 78.5314 13.8588 78.4962 14.0465C78.4654 14.2037 78.1398 13.9417 77.9462 13.9286C77.9022 13.9286 77.8626 13.9286 77.8186 13.9417C77.7614 13.9417 77.6998 13.9417 77.6382 13.9417C77.669 13.9635 77.6954 13.9854 77.7262 14.0116L77.7702 14.0465L77.7922 14.0727C77.823 14.1076 77.8582 14.1382 77.8978 14.16C78.0914 14.2691 78.2938 14.3608 78.4962 14.4569C80.3178 15.3257 82.0118 16.2164 83.5034 17.1463C83.8686 17.3646 84.2866 17.644 84.6826 17.9016C85.083 18.1636 85.4834 18.4343 85.8838 18.7049C86.0026 18.7879 86.1214 18.8708 86.2446 18.9538L86.0334 18.9058C85.677 18.8359 85.3206 18.7748 84.9598 18.7093C84.6034 18.6482 84.247 18.5783 83.8862 18.5259L82.8126 18.3819C82.4562 18.3338 82.0954 18.2858 81.739 18.2596C78.8702 17.9758 76.0058 17.9627 73.1854 18.1767C67.5402 18.6002 62.0842 19.9143 56.9054 21.8266C55.0046 22.5295 53.1566 23.3416 51.3306 24.2104C51.159 23.9048 51.0006 23.5948 50.8202 23.2935C50.4506 22.6605 50.0502 22.0449 49.641 21.4293C49.223 20.8224 48.7962 20.2156 48.3386 19.6305C47.8898 19.0411 47.4058 18.4648 46.913 17.8972C46.4114 17.3384 45.8966 16.7796 45.3466 16.2513C44.8054 15.7143 44.229 15.1991 43.6394 14.697C43.3358 14.4525 43.041 14.1993 42.7286 13.9635L42.2622 13.6099L41.7782 13.265C41.6198 13.1515 41.4526 13.038 41.2898 12.9288L40.7926 12.6014C40.4494 12.3918 40.115 12.1779 39.7586 11.9814C39.0634 11.5754 38.3242 11.2174 37.5762 10.8768C36.0626 10.2176 34.4522 9.69801 32.7714 9.39676C31.095 9.08242 29.357 8.99946 27.6498 9.11298C25.9426 9.23959 24.2706 9.58013 22.691 10.0779C21.1158 10.5887 19.633 11.2523 18.2514 12.0207C17.8994 12.2084 17.5694 12.4136 17.235 12.6145C16.8962 12.8153 16.5794 13.0292 16.2582 13.2432C15.6202 13.671 15.0086 14.1163 14.397 14.5966C13.1914 15.5484 12.087 16.57 11.0574 17.6353C9.00704 19.7702 7.26464 22.0885 5.75984 24.5422C4.25944 27.0002 2.99664 29.5936 2.01544 32.3354C1.68104 33.3003 1.36424 34.2695 1.10464 35.2693C0.963836 35.7626 0.853836 36.2735 0.735036 36.7755C0.677836 37.0288 0.629436 37.2864 0.581036 37.544C0.532636 37.8015 0.479836 38.0548 0.440236 38.3167L0.312636 39.0939L0.211436 39.8841L0.163036 40.277L0.127836 40.6787C0.105836 40.945 0.0794359 41.2113 0.0618359 41.4777C0.0398359 42.019 0.00463594 42.556 0.00903594 43.1062C0.00903594 43.3812 0.000235937 43.6519 0.0178359 43.927L0.0530359 44.7565C0.347836 45.5773 0.603036 45.6777 0.809836 45.49C1.02104 45.3022 1.18384 44.8263 1.37304 44.4683C1.54024 44.1278 1.67224 43.8702 1.78664 43.8833C1.90544 43.8964 1.98904 44.1758 2.10344 44.918C2.18704 45.3939 2.32784 45.634 2.48184 45.8087L3.03184 47.1883C3.03184 47.1883 3.07584 47.2101 3.09784 47.2276C3.12424 47.2451 3.15064 47.2625 3.20344 47.3106C3.26944 47.376 3.33984 47.4415 3.40584 47.507L3.43224 47.5332L3.47184 47.5725L3.52024 47.6162C3.58624 47.6729 3.65224 47.7253 3.72264 47.7777L3.76664 47.8083C3.79744 47.8301 3.83264 47.8519 3.86784 47.8738C3.93384 47.9174 4.00424 47.9567 4.07904 47.996C4.22424 48.0746 4.38264 48.1401 4.54544 48.1881C4.70824 48.2405 4.87104 48.2711 5.02944 48.2929C5.07344 48.2973 5.09544 48.3016 5.15704 48.306C5.31104 48.3191 5.49584 48.3191 5.70704 48.2972C5.91824 48.2711 6.16024 48.2187 6.41544 48.1182C6.67064 48.0178 6.93024 47.8694 7.16344 47.6773C7.39664 47.4896 7.59024 47.2582 7.73544 47.0355C7.88064 46.8085 7.97744 46.5858 8.03904 46.3893C8.10064 46.1972 8.13584 46.0051 8.14904 45.8742L8.15784 45.7956C8.16664 45.6908 8.17104 45.586 8.16664 45.4769C8.16224 45.2629 8.12704 45.0446 8.07424 44.8438L8.05224 44.7696L8.04344 44.7434L8.02584 44.6954L7.99064 44.5949L7.95104 44.4989L7.93344 44.4596L7.92464 44.4378C8.03464 44.4727 8.14904 44.4989 8.25904 44.4989C8.65504 44.4902 9.02464 44.1845 9.28424 43.2284C9.37224 42.9141 9.59224 42.9708 9.71104 43.1018C10.1158 43.5602 10.261 43.4816 10.3182 43.2109C10.3314 43.1455 10.3402 43.0625 10.3446 42.9752C10.3446 42.8879 10.349 42.7918 10.3578 42.6914C10.371 42.4906 10.3798 42.2723 10.4062 42.0845C10.5514 41.2026 10.569 40.3512 10.6086 39.4781C10.6218 39.2598 10.6218 39.0415 10.6438 38.8232C10.6614 38.6049 10.6834 38.3822 10.7054 38.1595C10.767 37.7186 10.8418 37.2689 10.9782 36.8236C11.0882 36.4175 11.1982 36.0028 11.3434 35.6055C11.361 35.5531 11.383 35.5007 11.405 35.4439C11.427 35.3828 11.4534 35.3173 11.4754 35.2475C11.5238 35.1121 11.5722 34.9724 11.6206 34.8327C11.7262 34.5533 11.8362 34.2651 11.9418 33.9988C12.1662 33.4749 12.3686 33.0558 12.505 33.0034C12.5578 32.9815 12.549 33.0601 12.4962 33.2042C12.4478 33.3483 12.3598 33.5579 12.2586 33.7936C12.153 34.0294 12.0474 34.2957 11.9506 34.5446C11.9022 34.6712 11.8538 34.7934 11.8142 34.9069C11.7746 35.0204 11.7438 35.1296 11.7174 35.2213C11.669 35.3915 11.6426 35.54 11.6162 35.6797C11.6206 35.7365 11.6382 35.7845 11.6426 35.8412C11.6602 35.815 11.6778 35.7888 11.6954 35.7626L11.7262 35.7234L11.7878 35.6011C11.867 35.4352 11.9462 35.2649 12.0166 35.0859C12.3686 34.2171 12.747 33.3352 13.165 32.4795C14.1198 30.5323 15.2902 28.668 16.6102 26.9653C17.9302 25.2669 19.4218 23.7258 20.997 22.512L21.2918 22.285L21.5998 22.0667L21.9078 21.8484L22.2202 21.6432L22.5326 21.438L22.845 21.2503C22.9506 21.1892 23.0518 21.1193 23.1574 21.0625L23.4742 20.8879C24.3146 20.4339 25.1594 20.0627 26.0042 19.8095C26.2154 19.7484 26.4266 19.6829 26.6334 19.6349C26.739 19.6087 26.8446 19.5781 26.9458 19.5607L27.2582 19.4995C27.311 19.4908 27.3638 19.4777 27.4166 19.469L27.575 19.4471L27.8874 19.3991L28.1998 19.3686L28.3538 19.3511L28.5078 19.3424L28.8202 19.3249H29.1326C29.3394 19.3162 29.5462 19.338 29.753 19.3424L30.061 19.3686L30.215 19.3817C30.2678 19.386 30.3162 19.3948 30.369 19.4035L30.677 19.4428L30.985 19.4995L31.139 19.5257L31.293 19.5607L31.601 19.6305C31.8034 19.6916 32.0146 19.7353 32.217 19.8095C32.6306 19.9318 33.0354 20.102 33.4446 20.2767C34.2586 20.6478 35.0638 21.1018 35.8426 21.6563C36.2342 21.927 36.6126 22.2326 36.991 22.5426C37.365 22.8657 37.7346 23.1931 38.091 23.5511C38.8126 24.254 39.4902 25.0268 40.1282 25.852C40.7662 26.6728 41.3602 27.546 41.9058 28.4584C42.0642 28.7248 42.2094 28.9998 42.3634 29.2705L42.2622 29.3404L40.5902 30.4973L38.9534 31.7023C38.817 31.8027 38.6806 31.9032 38.5442 32.0079L38.1438 32.3223L37.343 32.951C37.079 33.1606 36.8062 33.3701 36.5466 33.584L35.7634 34.2389C34.7118 35.099 33.7042 36.0159 32.6966 36.9327L31.2182 38.3473C30.9674 38.5787 30.7342 38.8275 30.4966 39.072L29.7838 39.8055C29.5462 40.05 29.3042 40.2901 29.0754 40.5434L28.3846 41.303C27.927 41.8095 27.4606 42.3072 27.025 42.8398L26.3606 43.6257L26.0306 44.0186C25.9206 44.1496 25.8106 44.2806 25.705 44.4159L24.4334 46.0357C22.779 48.2274 21.2434 50.5239 19.8618 52.9208L18.8586 54.737C18.5374 55.3526 18.2338 55.9769 17.9258 56.5969C17.6046 57.2125 17.3406 57.8543 17.0546 58.4873L16.6322 59.4391C16.5618 59.5963 16.4914 59.7797 16.421 59.9499C16.3506 60.1246 16.2846 60.2948 16.2186 60.4651C15.6906 61.8404 15.255 63.2113 14.8854 64.6259C14.5158 66.036 14.2298 67.4855 14.0318 68.9874L13.9658 69.555L13.935 69.8388L13.9086 70.1269L13.8602 70.7032L13.8294 71.2926L13.8162 71.5852V71.8864L13.803 72.4845C13.8118 72.8949 13.8118 73.2922 13.8426 73.7114C13.8866 74.5365 13.9966 75.3966 14.1594 76.2698L14.3002 76.9291C14.353 77.1517 14.4146 77.3744 14.4762 77.6014L14.5686 77.9376L14.683 78.2781C14.7622 78.5052 14.8326 78.7278 14.925 78.9592C15.2726 79.8673 15.7434 80.7842 16.3242 81.6617C16.9094 82.5393 17.6354 83.3601 18.445 84.0805C18.6518 84.2551 18.8586 84.4254 19.0698 84.5956L19.2282 84.7223L19.391 84.8358L19.721 85.0628C20.1566 85.3728 20.6318 85.626 21.1026 85.8836C21.217 85.9491 21.3446 86.0058 21.4722 86.0626L21.8506 86.2285C22.1058 86.3376 22.3566 86.4512 22.625 86.5298C22.8934 86.6171 23.1618 86.7044 23.4302 86.783C23.703 86.8572 23.9802 86.9096 24.2574 86.9707L24.6754 87.0537L25.0934 87.106C25.3706 87.1366 25.6522 87.1715 25.9294 87.1846C26.2066 87.1934 26.4794 87.1977 26.7566 87.1977H26.9634L27.1658 87.1846L27.5662 87.1584C28.1118 87.1279 28.609 87.0362 29.1238 86.9489C29.3702 86.8965 29.6122 86.8397 29.8542 86.7786C29.973 86.748 30.1006 86.7219 30.215 86.6869L30.5582 86.5821C31.4954 86.3071 32.3182 85.9447 33.119 85.5605C33.5018 85.364 33.8934 85.1676 34.2498 84.9537C34.4302 84.8489 34.615 84.7441 34.791 84.6349L35.3058 84.3075L35.561 84.1416L35.8074 83.9713L36.2958 83.6308L36.7666 83.2815C36.9206 83.1636 37.079 83.0457 37.2286 82.9279C37.5278 82.6877 37.8314 82.452 38.113 82.2031C38.2538 82.0809 38.4034 81.9586 38.5398 81.8364L38.9534 81.4653C40.0578 80.4698 41.0522 79.4395 42.007 78.3916C42.953 77.3395 43.8418 76.2698 44.6866 75.1783C44.8978 74.9033 45.1046 74.6369 45.3114 74.3532L45.9274 73.4974L46.5434 72.6417L47.1198 71.7642C48.6642 69.424 50.0194 66.9835 51.1898 64.4599C52.3646 61.9364 53.337 59.3212 54.1202 56.6449C54.899 53.9642 55.4842 51.2181 55.8318 48.4151C56.1794 45.6122 56.2894 42.7569 56.1046 39.8797C56.0034 38.3822 55.801 36.9109 55.515 35.4658C55.3918 34.8545 55.2466 34.2477 55.097 33.6452C55.933 33.226 56.7734 32.82 57.6314 32.4489L58.1726 32.2088L58.7182 31.9818C59.0834 31.8333 59.4442 31.6761 59.8094 31.5364L60.9138 31.1173C61.0986 31.0431 61.2834 30.982 61.4682 30.9165L62.0226 30.7244C62.643 30.4973 63.259 30.2878 63.8794 30.0738C63.5274 30.1612 63.1754 30.2485 62.8234 30.3358C62.4714 30.4231 62.1238 30.5323 61.763 30.6414C59.9106 31.2177 58.0758 31.8988 56.2806 32.6716C55.8538 32.8637 55.427 33.047 55.0002 33.2435C54.9518 33.0689 54.899 32.8942 54.8462 32.7196C55.141 32.5799 55.4402 32.4445 55.735 32.3092L56.2366 32.0778C56.4038 31.9992 56.5754 31.9337 56.747 31.8595L57.7678 31.4273L58.7974 31.0212L59.3122 30.8204L59.8314 30.6327L60.8742 30.2572L61.9258 29.9123L62.4494 29.742L62.9774 29.5849L64.0334 29.2749L65.0982 28.9954C65.2742 28.9518 65.4502 28.8994 65.6306 28.8557L66.1674 28.7335C66.5238 28.6549 66.8802 28.5632 67.2366 28.489C67.9538 28.3537 68.6666 28.1921 69.3838 28.083C69.7446 28.0262 70.101 27.9564 70.4574 27.9083L71.5354 27.7643C72.9698 27.5984 74.4086 27.4674 75.8342 27.4412C76.5514 27.4062 77.2598 27.4324 77.9726 27.4281C78.329 27.4368 78.681 27.4586 79.033 27.4717L79.5654 27.4936L80.0934 27.5372L81.145 27.6245L82.1878 27.7555C82.3594 27.7774 82.5354 27.7905 82.707 27.8254L83.2218 27.9127L83.7366 27.9957C83.9082 28.0218 84.0798 28.048 84.2514 28.0873C84.4714 28.1354 84.4714 28.131 84.5374 28.1441L84.709 28.1747L85.0522 28.2314C85.281 28.2707 85.5142 28.2969 85.743 28.3493C87.1994 28.6069 88.6514 28.9474 90.077 29.3797C89.9626 29.4408 89.8526 29.5019 89.7426 29.563L89.0078 29.9691L88.6426 30.1743C88.5194 30.2441 88.4006 30.314 88.2862 30.3926C86.1478 31.7111 84.1502 33.2697 82.3594 34.9724C82.0646 35.2649 81.915 35.3348 82.3594 35.2213C83.059 35.0466 83.2262 35.3348 82.3418 36.2123C82.2318 36.3215 82.0382 36.5267 82.0558 36.5398C82.2406 36.7057 82.2714 36.9327 82.1482 37.2427C82.0338 37.5614 81.7654 37.9631 81.3342 38.4783C81.2682 38.5569 81.1934 38.6398 81.1186 38.7228C81.0482 38.8057 80.9822 38.8887 80.925 38.9716C80.8106 39.1332 80.7314 39.286 80.7622 39.4126L81.2462 39.0022C81.4046 38.8625 81.5806 38.7402 81.7478 38.6092C81.9458 38.4564 82.1394 38.2949 82.333 38.1421C82.1966 38.3036 82.069 38.4739 81.9238 38.6311C81.7214 38.8537 81.497 39.0677 81.2946 39.2991C81.4002 39.3078 81.5146 39.203 81.629 39.0982C81.7434 38.9978 81.849 38.893 81.9238 38.8843C82.5926 38.8144 81.8886 39.6221 81.8358 40.0369C81.7874 40.3338 80.9294 41.1589 81.9238 40.6918C81.9986 40.6569 82.0118 40.9407 81.959 41.124C81.6598 42.1326 82.2714 42.3814 83.3934 41.7571C83.6442 41.6174 83.7938 41.517 83.7366 41.8095C83.6662 42.1806 83.6398 42.3596 83.7498 42.3334C83.807 42.3203 83.895 42.2592 84.0314 42.1413C84.0974 42.0802 84.181 42.0103 84.2734 41.9274C84.3702 41.8444 84.4846 41.7527 84.6122 41.6479C84.8498 41.4558 85.083 41.2594 85.3162 41.0673C85.4306 40.9668 85.5538 40.8795 85.677 40.7878L86.0466 40.5172C85.9498 40.6394 85.8486 40.7529 85.743 40.8664C85.633 40.9756 85.523 41.0891 85.413 41.1982C85.1886 41.4209 84.951 41.6348 84.7046 41.8444C84.599 41.9361 84.4758 42.0365 84.3614 42.1456C84.247 42.2592 84.137 42.3727 84.0534 42.4775C83.8862 42.687 83.8158 42.8617 84.0138 42.901C84.2602 42.949 84.3306 43.2459 84.5066 43.4074C84.6826 43.5689 84.9466 43.5951 85.5758 43.1454C85.8794 42.9446 86.1742 42.722 86.4646 42.4906C86.5394 42.4338 86.6098 42.3727 86.6802 42.3159L86.9046 42.15C87.0542 42.0409 87.2038 41.9274 87.3534 41.8182C87.503 41.7091 87.6526 41.5999 87.8022 41.4951C87.9562 41.3903 88.1146 41.2987 88.2686 41.207C88.5854 41.0236 88.8978 40.8533 89.2234 40.7267C90.693 39.6789 92.2638 38.762 93.9006 37.9674L94.1646 37.8321L94.4374 37.7099L94.983 37.4654L95.5286 37.2209L96.083 36.9982C96.457 36.8541 96.8178 36.6882 97.2006 36.566L97.7638 36.3652L98.0454 36.2647L98.1862 36.2123L98.2214 36.1992C98.2214 36.1992 98.239 36.1905 98.2698 36.1818L98.4106 36.1425L100.659 35.5007L100.941 35.4221C100.967 35.4177 100.985 35.409 101.015 35.4046L101.103 35.3872L101.279 35.3523L101.992 35.2169L103.418 34.9462L104.131 34.8109L104.487 34.741L104.87 34.6886L106.405 34.4791L109.472 34.0599L109.78 34.0163L109.855 34.0075H109.895L109.912 33.9988C109.917 33.9988 109.925 33.9988 109.925 33.9944V33.9028L109.934 33.5404L109.947 32.8113L109.965 31.8115L109.987 30.4973L110 29.7071V29.3273L110.009 29.1395C110.009 29.0784 110.005 29.0173 110 28.9518L109.991 28.9998ZM75.6934 12.0862C75.4338 12.0076 75.1082 11.9334 74.787 11.8068C74.5054 11.6976 74.4086 11.5317 74.6066 11.5186C74.8662 11.4968 75.2182 11.6278 75.5482 11.833C75.667 11.9072 75.8958 12.012 75.6934 12.0862ZM81.497 7.98657C81.3342 7.94291 81.1758 7.89488 81.0042 7.84249C80.9602 7.82939 80.9206 7.8163 80.8766 7.8032C80.8326 7.7901 80.8018 7.78137 80.7182 7.75081C80.5774 7.69842 80.4322 7.64603 80.2826 7.58927C80.1594 7.50632 79.9702 7.3797 79.7898 7.25309C79.5302 7.06536 79.2706 6.88199 79.0154 6.69425C79.341 6.69425 79.6226 6.93874 79.935 7.06972C80.2694 7.20943 80.6082 7.34914 80.9426 7.48012C81.1538 7.55871 81.365 7.63293 81.5762 7.71151C81.7434 7.777 81.981 7.85996 81.937 8.01713C81.8842 8.2005 81.6466 8.03023 81.497 7.98657ZM85.6462 7.25309C85.567 7.3928 85.325 7.24872 85.1446 7.1745C84.8542 7.05226 84.5638 6.93874 84.2734 6.8296C83.983 6.72045 83.697 6.6244 83.4066 6.52398C82.8258 6.31878 82.2626 6.13541 81.6994 5.90838C81.3034 5.74248 80.9118 5.56784 80.5202 5.38884C80.133 5.20983 79.7502 5.0221 79.3674 4.82126C78.9538 4.62043 78.4038 4.4327 77.9682 4.22313C77.537 4.01793 77.207 3.79964 77.229 3.54205C77.2378 3.41543 77.581 3.58134 78.0166 3.82583C78.4522 4.06596 79.0066 4.38031 79.4026 4.54184L80.9734 5.17491L81.7698 5.49798L81.871 5.53728L81.937 5.56347L82.0646 5.6115L82.3154 5.70318C82.9842 5.94768 83.6662 6.214 84.3482 6.47595C84.6474 6.5982 84.9554 6.71172 85.237 6.86016C85.4086 6.95184 85.7694 7.03479 85.6506 7.24872L85.6462 7.25309ZM7.28224 45.944C7.25144 46.35 6.77184 47.1577 6.06784 47.3804C5.32424 47.6074 5.07344 47.4634 5.06904 47.4852C4.86664 47.4546 4.65544 47.3848 4.47064 47.2887C4.38264 47.2407 4.28144 47.1796 4.21984 47.1315L4.18904 47.1054C4.14504 47.0704 4.10544 47.0355 4.06144 47.0006L4.01304 46.9525L3.99544 46.9351L3.92944 46.8696L3.90304 46.839L3.84144 46.7692C3.81504 46.7342 3.78424 46.6993 3.75784 46.66L3.38384 45.7214C3.37944 45.669 3.37064 45.6122 3.36184 45.5511C3.19464 44.5731 3.41024 44.4945 3.67424 44.071C3.84584 43.796 3.99544 43.6257 4.12744 43.5471C4.25944 43.4685 4.36504 43.4904 4.45304 43.5951C4.54104 43.7043 4.62464 43.9051 4.69944 44.1933C4.73904 44.3373 4.76984 44.5033 4.81384 44.691C4.82264 44.7346 4.83584 44.7914 4.84464 44.8351C4.83144 44.8351 4.81824 44.8351 4.80944 44.8351C4.73024 44.8787 4.68624 45.0097 4.69064 45.2105C4.69064 45.311 4.70824 45.4288 4.73024 45.5642C4.74344 45.6297 4.75664 45.6995 4.76984 45.7781C4.76984 45.7956 4.77424 45.813 4.77864 45.8305V45.8523V45.8611V45.8654L4.82704 45.8392L5.04264 45.7257C5.04264 45.7257 5.06464 45.717 5.07784 45.7083C5.09104 45.7214 5.09984 45.7301 5.10864 45.7432L5.12624 45.7606L5.13944 45.7737C5.13944 45.7737 5.14824 45.7825 5.18344 45.813C5.19224 45.8174 5.17904 45.813 5.21424 45.8349C5.24064 45.8523 5.27584 45.8654 5.30664 45.8698C5.28904 45.8523 5.41224 45.9527 5.62784 45.7475C5.73344 45.5162 5.66744 45.6122 5.68504 45.5598C5.68504 45.538 5.68504 45.5162 5.67624 45.4987C5.66744 45.4725 5.67184 45.4812 5.66744 45.4725L5.65864 45.4507C5.65864 45.4507 5.64544 45.4245 5.64544 45.4201C5.63664 45.407 5.63224 45.4026 5.62784 45.3939C5.61464 45.3764 5.60584 45.3677 5.59704 45.3546L5.63224 45.3284L5.81704 45.1756L5.88744 45.1189C5.88744 45.1189 5.88744 45.0927 5.87864 45.0752L6.01504 45.4157C6.02824 45.3546 6.04144 45.2935 6.05464 45.228C6.10744 44.9573 6.14704 44.7041 6.19544 44.4858C6.25264 44.2675 6.30984 44.0841 6.38464 43.9531C6.50784 43.7436 6.68824 43.7043 6.97424 43.8746C6.93904 43.8964 6.90824 43.9269 6.88624 43.9793C6.86424 44.0405 6.85984 44.1234 6.88624 44.2369C6.89944 44.2937 6.92144 44.3548 6.95664 44.429C6.96544 44.4509 6.97864 44.4727 6.98744 44.4945C7.00504 44.5294 7.02264 44.5644 7.04464 44.5993L7.07984 44.6648L7.11944 44.7477L7.13704 44.787L7.15904 44.8394C7.17664 44.8787 7.18984 44.9224 7.20304 44.966L7.22504 45.0315C7.23824 45.0752 7.26024 45.1538 7.26904 45.2149C7.28224 45.2804 7.29104 45.3502 7.29544 45.4157C7.29984 45.4856 7.30424 45.5511 7.29984 45.6166C7.29104 45.7344 7.31304 45.634 7.26464 45.9309L7.28224 45.944ZM4.20224 35.4483C4.15824 35.1121 4.36504 34.7672 4.45304 34.4223C4.55864 34.0468 4.66424 33.6757 4.76984 33.3046C5.13064 32.2219 5.54864 31.1653 6.00624 30.1175C6.09864 29.9123 6.20424 29.6853 6.30544 29.4582C6.41104 29.2312 6.52544 29.0129 6.63104 28.8121C6.84224 28.4148 7.04024 28.1179 7.15024 28.0917C7.39224 28.0262 6.66624 29.2792 6.37144 30.0127C6.04144 30.7724 5.73784 31.5539 5.43864 32.3834C5.36384 32.5886 5.29344 32.8025 5.22304 33.0165C5.18784 33.1213 5.14824 33.2304 5.11304 33.3396L5.08664 33.4225C5.08664 33.4225 5.07784 33.4443 5.07784 33.4487V33.4618L5.06024 33.5186C5.02504 33.6714 4.98544 33.8285 4.94584 33.9901C4.87544 34.1298 4.76544 34.3437 4.65984 34.5489C4.50584 34.8545 4.35624 35.1514 4.20224 35.4527V35.4483ZM10.1378 38.081C10.1378 38.2163 10.129 38.356 10.107 38.4957C10.0718 38.7402 9.93984 38.8494 9.87384 38.6922C9.79024 38.4826 9.82104 38.1683 9.94424 37.8627C9.99264 37.7535 10.041 37.5483 10.1598 37.7055C10.151 37.819 10.1466 37.9456 10.1422 38.081H10.1378ZM13.0858 16.7621C11.3654 18.4037 9.87824 20.1719 8.56704 22.0361C7.90704 22.9661 7.29984 23.9222 6.72344 24.8958C6.14704 25.8694 5.61904 26.8692 5.12184 27.8821C4.62024 28.895 4.17584 29.9385 3.75784 30.9994C3.65664 31.2657 3.55104 31.5321 3.44984 31.7984C3.35304 32.0691 3.25624 32.3354 3.16384 32.6061L3.10664 32.7676L3.08464 32.8375L3.04504 32.9772L2.96144 33.2522C2.90424 33.4356 2.84704 33.6233 2.78984 33.8067C2.73264 33.9944 2.67984 34.1778 2.62264 34.3656C2.56544 34.5533 2.50824 34.741 2.44664 34.9288C2.38944 35.1165 2.33224 35.3086 2.27504 35.4963C2.12984 36.0028 2.04624 36.6664 1.92744 37.2165C1.82624 37.771 1.68104 38.2119 1.43024 38.2905C1.29824 38.3255 1.38184 37.8758 1.52264 37.2951C1.58864 37.0026 1.68984 36.6882 1.76904 36.3782C1.80864 36.2254 1.84824 36.0726 1.88784 35.9286C1.92744 35.7845 1.96264 35.6535 1.98464 35.5313C2.11224 34.9026 2.26624 34.2826 2.42464 33.6626L2.68424 32.7414C2.69304 32.7021 2.70624 32.6628 2.71944 32.6279L2.82944 32.3179L3.06704 31.6456C3.23424 31.2046 3.40144 30.7593 3.58184 30.3227C5.01184 26.8256 6.89504 23.5468 9.23144 20.5255C10.2478 19.2201 11.361 17.9453 12.6018 16.7796C12.7866 16.6006 13.0198 16.3866 13.2574 16.1683C13.3762 16.0592 13.4994 15.95 13.6182 15.8409C13.7414 15.7361 13.8646 15.6313 13.9834 15.5353C14.4498 15.1511 14.8546 14.8891 14.9206 14.9939C14.9998 15.1249 13.8162 16.0548 13.077 16.7665L13.0858 16.7621ZM20.2138 11.6845C20.073 11.7587 19.9014 11.8504 19.721 11.9465C19.5406 12.0425 19.347 12.1429 19.1534 12.239C18.6298 12.5184 18.093 12.776 17.587 13.0729C18.0446 12.7149 18.5242 12.3743 19.1138 11.9814C19.413 11.8548 19.7518 11.6976 20.0334 11.5797C20.3194 11.4662 20.535 11.3876 20.5614 11.3964C20.6582 11.4226 20.4954 11.5361 20.2138 11.6889V11.6845ZM33.7394 9.95997C33.5018 9.97744 33.163 9.93378 32.7538 9.88575C32.547 9.86392 32.3314 9.82463 32.0938 9.79843C31.8606 9.76787 31.6098 9.73731 31.359 9.70675C30.3382 9.58887 29.181 9.53211 28.2438 9.60196C27.9534 9.60633 27.5706 9.62379 27.1746 9.67618C26.9766 9.69801 26.7742 9.71984 26.5762 9.75041C26.3782 9.78097 26.189 9.8159 26.0086 9.84209C25.6478 9.89448 25.3486 9.95997 25.1682 9.97743C24.9878 9.9949 24.9262 9.97744 25.0538 9.89012C25.3134 9.71984 26.2374 9.50591 27.3594 9.4186C27.4298 9.41423 27.5002 9.4055 27.5706 9.40113C27.641 9.40113 27.7158 9.3924 27.7862 9.38803C27.9314 9.3793 28.081 9.37494 28.2262 9.3662C28.521 9.34874 28.8246 9.35311 29.1194 9.35311C29.4142 9.35311 29.709 9.36184 29.9906 9.37494C30.1314 9.3793 30.2678 9.38367 30.3998 9.38803C30.5318 9.39676 30.6638 9.4055 30.787 9.41423C31.0598 9.43169 31.403 9.45352 31.7594 9.50591C31.9354 9.52774 32.1158 9.55394 32.2918 9.58013C32.4678 9.61506 32.6394 9.64562 32.7978 9.67618C32.9562 9.71111 33.1058 9.73731 33.2378 9.77224C33.3654 9.80716 33.4798 9.83772 33.5634 9.86392C33.735 9.91631 33.8098 9.95124 33.735 9.95997H33.7394ZM41.7738 40.7355C41.9146 40.6263 42.073 40.5041 42.2358 40.3774C42.403 40.2552 42.5746 40.1286 42.7286 40.0194C43.0366 39.7968 43.283 39.6221 43.3226 39.6221C43.635 39.6134 42.6978 40.2246 42.315 40.539C42.0642 40.7573 41.6946 41.0673 41.3822 41.3205C41.0698 41.5737 40.819 41.7745 40.8014 41.7702C40.5902 41.7483 41.4262 41.1153 41.7738 40.7398V40.7355ZM33.977 48.2318C34.1398 48.0222 34.2762 47.8738 34.3246 47.817C35.0286 47.0399 35.627 46.3719 36.2034 45.8436C36.771 45.3022 37.2726 44.8525 37.7742 44.5033C37.6202 44.6648 37.4618 44.8438 37.3078 45.0141C37.1582 45.1887 37.013 45.3546 36.8722 45.4856C36.573 45.7694 36.2738 46.0532 35.9746 46.3326L35.7502 46.5421L35.5346 46.7604L35.1034 47.1927C34.813 47.4808 34.527 47.769 34.2366 48.0571C33.955 48.3496 33.6822 48.6509 33.4006 48.9478C33.603 48.6902 33.8098 48.437 33.9726 48.2274L33.977 48.2318ZM31.425 52.052L31.6098 51.7944C31.6714 51.7114 31.7374 51.6285 31.8034 51.5455L32.1906 51.0478L32.965 50.0524L33.779 49.0831L34.1882 48.5985L34.3906 48.354L34.6018 48.1182L35.4554 47.1796L35.8822 46.708L36.3266 46.254L37.2154 45.3459L37.4354 45.1189L37.6642 44.9006L38.1262 44.4596C40.4406 42.2373 42.931 40.1853 45.549 38.2993C45.5754 38.4521 45.6062 38.6005 45.6282 38.7533L44.7878 39.3558L44.4842 39.5741C44.383 39.6483 44.2862 39.7269 44.185 39.8011L43.591 40.2552L42.997 40.7093L42.7022 40.9363L42.4118 41.172L41.259 42.1195L40.9686 42.3552L40.687 42.5997L40.1282 43.0931L39.5694 43.5864L39.2878 43.8353L39.015 44.0929L37.9326 45.1189L37.6642 45.3764L37.4046 45.6428L36.881 46.1754L36.3574 46.708C36.2694 46.7954 36.1814 46.8827 36.0978 46.9744L35.847 47.2494L34.8438 48.3496C34.6722 48.5286 34.5138 48.7207 34.3554 48.9085L33.8758 49.4761C33.559 49.8559 33.229 50.227 32.9342 50.6243L32.0234 51.7944C31.8694 51.9865 31.7286 52.1917 31.5834 52.3925L31.1522 52.995L30.721 53.5975L30.611 53.7459L30.5098 53.8987L30.3074 54.2087L29.4978 55.4443C29.2338 55.8591 28.9918 56.2869 28.7366 56.7104L28.3582 57.3435C28.235 57.5574 28.125 57.7757 28.0062 57.9896L27.311 59.2863L26.673 60.6092C26.585 60.7926 26.4926 60.9847 26.4002 61.1768C26.3078 61.3732 26.2286 61.5784 26.1362 61.7793C25.9602 62.1897 25.7754 62.6044 25.5862 63.0105C25.485 63.22 25.4058 63.4034 25.3222 63.5911C25.2386 63.7789 25.155 63.9622 25.0714 64.1412C24.9042 64.5036 24.7414 64.8441 24.5742 65.1541C24.6842 64.7787 24.803 64.4032 24.9262 64.0364C24.9922 63.8531 25.0494 63.6697 25.1154 63.4907C25.1814 63.3117 25.243 63.1327 25.3266 62.9406C25.4806 62.5608 25.639 62.1766 25.7974 61.7967C25.8766 61.6046 25.9558 61.4125 26.035 61.2248C26.1186 61.0327 26.211 60.8493 26.299 60.6616C27.707 57.6622 29.4318 54.785 31.4206 52.0738L31.425 52.052ZM23.109 68.4198C23.3246 67.3196 23.6414 66.1932 23.9846 65.1148C24.2002 64.4207 24.4466 63.7352 24.7106 63.0759C24.7722 62.9144 24.8558 62.7354 24.9306 62.5651L25.1594 62.0456L25.617 61.0065C25.947 60.321 26.2902 59.6443 26.6246 58.9632C26.9942 58.2952 27.355 57.6273 27.7246 56.9636C27.487 57.5967 27.1922 58.256 26.8578 58.9152C26.7698 59.0767 26.6994 59.2514 26.6158 59.4173C26.5366 59.5876 26.453 59.7535 26.3694 59.9237C26.2022 60.2599 26.0306 60.5961 25.859 60.9323C25.5378 61.609 25.2298 62.2813 24.9394 62.9231C24.6754 63.53 24.4686 64.1238 24.3278 64.6739C24.099 65.3288 23.9098 65.9618 23.747 66.5731C23.5886 67.1887 23.4522 67.7781 23.3378 68.35C23.1178 69.4939 22.9594 70.5592 22.8494 71.5764C22.7834 70.6115 22.8978 69.5244 23.1134 68.4242L23.109 68.4198ZM23.6986 68.8084C23.6766 69.0311 23.6546 69.2756 23.6326 69.5157L23.549 69.6336C23.571 69.3978 23.5886 69.1577 23.6194 68.9219C23.6502 68.8826 23.7074 68.7866 23.703 68.8084H23.6986ZM23.9714 76.9422C23.9318 76.8679 23.8922 76.7981 23.857 76.7282C23.7162 76.4182 23.5094 76.1301 23.3334 75.7765C23.1662 75.4184 23.0166 75.008 23.0122 74.5409C23.0122 74.5147 23.153 74.7112 23.1838 74.8509C23.329 75.3748 23.5534 75.855 23.7426 76.213C23.7822 76.3135 23.835 76.3877 23.8746 76.4706C23.8922 76.5099 23.9098 76.5536 23.9274 76.5929C23.945 76.6322 23.9626 76.6627 23.9802 76.702C24.011 76.7719 24.0286 76.8505 24.0462 76.9203C24.0594 76.9683 24.0638 77.0164 24.0638 77.0688C24.033 77.0251 24.0022 76.9858 23.9714 76.9422ZM24.363 77.3918C24.3234 77.3526 24.2838 77.3133 24.2442 77.274C24.2266 77.2565 24.209 77.239 24.1914 77.2216C24.2354 77.2565 24.275 77.2914 24.319 77.3264C24.3982 77.3962 24.495 77.4442 24.583 77.5054C24.5918 77.5054 24.6094 77.5752 24.627 77.6101C24.5434 77.5316 24.451 77.4661 24.363 77.3918ZM26.321 77.7062C26.2946 77.7149 26.2682 77.7193 26.233 77.7193C26.1978 77.7193 26.1626 77.728 26.123 77.7193C25.969 77.6975 25.7886 77.6363 25.6522 77.5796C25.617 77.5621 25.5818 77.549 25.5422 77.5316C25.507 77.5141 25.4674 77.5097 25.4278 77.4835C25.353 77.4399 25.2738 77.3962 25.1946 77.3569C25.1198 77.3045 25.0494 77.2521 24.9746 77.2085C24.9042 77.1561 24.847 77.095 24.7766 77.0469C24.5258 76.8243 24.3102 76.5623 24.1166 76.2261L24.0902 76.2392C23.8658 75.8725 23.659 75.401 23.5314 74.8334C23.4654 74.5103 23.3598 74.0519 23.3334 73.6328C23.2982 73.218 23.3114 72.8775 23.3862 72.8731C23.4698 72.8731 23.5094 73.1962 23.549 73.5978C23.5886 74.0039 23.659 74.4536 23.7338 74.7636C23.8394 75.139 23.9538 75.4839 24.0902 75.7721C24.231 76.0515 24.3806 76.296 24.539 76.4925C24.7062 76.6802 24.8734 76.8461 25.0714 76.9946C25.1198 77.0295 25.1814 77.06 25.2342 77.0993L25.3134 77.1561C25.3442 77.1692 25.3706 77.1823 25.4014 77.1954C25.4586 77.2216 25.5114 77.2521 25.5686 77.2871C25.6214 77.3045 25.6742 77.322 25.727 77.3438C25.793 77.3831 25.8678 77.3875 25.9426 77.4093C25.9602 77.4137 25.9778 77.4224 25.9954 77.4268C26.013 77.4355 26.0306 77.4311 26.0526 77.4355C26.0878 77.4399 26.123 77.4486 26.1582 77.4573C26.1758 77.4617 26.189 77.4704 26.2066 77.4748C26.2242 77.4792 26.2374 77.4792 26.255 77.4835C26.2858 77.4923 26.3122 77.501 26.3342 77.5141C26.3782 77.5403 26.4046 77.5752 26.409 77.6145C26.409 77.6625 26.3826 77.6844 26.3342 77.6975L26.321 77.7062ZM31.8122 74.8945C31.7022 74.9906 31.5746 75.1128 31.4646 75.187C30.9542 75.5669 30.325 76.0995 29.7882 76.4706C29.2514 76.8461 28.8158 77.0557 28.6838 76.964C28.6398 76.9334 28.7322 76.8548 28.9126 76.7413C29.0006 76.6846 29.115 76.6278 29.2426 76.5449C29.3702 76.4619 29.5154 76.3921 29.6694 76.2829C29.9774 76.0908 30.3206 75.8594 30.6418 75.6193C30.963 75.3835 31.2622 75.1303 31.4778 74.9338C32.349 74.2746 33.097 73.349 33.7262 72.9997C33.1058 73.6764 32.4678 74.3182 31.8166 74.9033L31.8122 74.8945ZM38.817 66.5643C38.7598 66.6778 38.6894 66.8001 38.6102 66.9311C38.531 67.062 38.4518 67.2018 38.3506 67.3415C38.157 67.6209 37.937 67.9221 37.717 68.2321C37.607 68.3849 37.497 68.5421 37.3826 68.6993C37.2682 68.8564 37.1494 69.0136 37.0394 69.1664C36.6654 69.6336 36.1418 70.271 35.605 70.8822C35.7634 70.4718 36.1462 69.9479 36.5818 69.376C36.7974 69.0878 37.035 68.791 37.2506 68.4941C37.4618 68.1972 37.6686 67.909 37.8534 67.6296C37.9414 67.4943 38.0646 67.3153 38.1966 67.1275C38.3242 66.9354 38.4562 66.7259 38.5794 66.5425C38.8258 66.1758 39.0282 65.9094 39.0194 66.0273C39.0062 66.1583 38.9314 66.3417 38.8126 66.5687L38.817 66.5643ZM43.4194 57.147C43.1906 57.7277 42.9266 58.3651 42.7198 58.9021C42.5086 59.3518 42.2182 60.0023 41.9806 60.5175C41.7254 61.024 41.523 61.3951 41.5362 61.299C41.5714 60.9847 41.8046 60.4826 42.0466 59.9019C42.2974 59.3256 42.6142 58.6925 42.8122 58.125C42.8914 57.911 42.997 57.6404 43.107 57.3653C43.1642 57.2256 43.2214 57.0859 43.2742 56.9462C43.327 56.8065 43.3754 56.6668 43.4238 56.5358C43.6174 56.0162 43.7714 55.6277 43.7758 55.7193C43.7758 56.0293 43.6262 56.562 43.415 57.147H43.4194ZM45.8966 42.8529L45.8834 43.665C45.8218 45.8305 45.5578 48.0135 45.1178 50.1702L44.9462 50.9779C44.889 51.2486 44.8362 51.5193 44.757 51.7856C44.6162 52.3226 44.4798 52.8553 44.3346 53.3923L43.8462 54.9815C43.6702 55.5098 43.4766 56.0293 43.2962 56.5532C42.5262 58.6402 41.6066 60.679 40.5594 62.6437L39.9918 63.6915C39.7938 64.0365 39.587 64.3726 39.3846 64.7132C38.993 65.403 38.5354 66.0491 38.1086 66.7128C38.003 66.8787 37.8842 67.0359 37.7698 67.1974L37.4266 67.6776L37.0834 68.1579C37.0262 68.2365 36.969 68.3194 36.9118 68.398L36.727 68.6381C36.2342 69.2799 35.737 69.9086 35.2222 70.5155C34.197 71.7292 33.1278 72.8687 32.0366 73.8685C31.491 74.3706 30.9366 74.8247 30.391 75.2307C29.8454 75.6367 29.2998 75.9904 28.7894 76.2654C28.279 76.5449 27.795 76.7457 27.3946 76.8548C26.9942 76.964 26.6862 76.9902 26.4618 76.9771C26.233 76.9596 26.0658 76.9203 25.837 76.8068C25.8238 76.8068 25.8062 76.7937 25.793 76.785L25.749 76.7588C25.7182 76.7413 25.6874 76.7239 25.6566 76.7108C25.639 76.702 25.6214 76.6977 25.6082 76.6846L25.5642 76.6496C25.5334 76.6278 25.507 76.606 25.4762 76.5885C25.463 76.5798 25.4454 76.5711 25.4322 76.558L25.397 76.523C25.3706 76.5012 25.3442 76.4794 25.3178 76.4575C25.287 76.4401 25.265 76.4139 25.243 76.3877C25.221 76.3615 25.1946 76.3397 25.1726 76.3178C24.9878 76.1301 24.8206 75.8943 24.6622 75.5494C24.5038 75.2089 24.3674 74.7635 24.275 74.2396C24.0814 73.1918 24.0814 71.8515 24.2486 70.4631C24.4158 69.066 24.7326 67.5991 25.1638 66.1627C25.3794 65.4423 25.6258 64.7263 25.8898 64.0408C25.9558 63.8662 26.0262 63.7003 26.0922 63.53C26.1626 63.3597 26.2506 63.1676 26.3298 62.9886L26.8138 61.8971C28.1338 58.9938 29.7794 56.2171 31.6582 53.5888C35.4202 48.3278 40.1238 43.6388 45.4258 39.6964L45.725 39.4737C45.7646 39.7924 45.8042 40.1111 45.8306 40.4298C45.8438 40.5521 45.8482 40.6874 45.8526 40.8228L45.8702 41.2244L45.9054 42.0278C45.9054 42.1631 45.923 42.2941 45.9186 42.4294L45.9098 42.8355L45.8966 42.8529ZM56.5094 31.6674C56.4038 31.7154 56.2982 31.7635 56.197 31.8115C56.0958 31.8595 55.9902 31.9119 55.8934 31.9599C55.4974 32.152 55.1146 32.3398 54.7626 32.51C54.7494 32.4664 54.7362 32.4227 54.723 32.379C55.5282 31.9905 56.3378 31.6368 57.143 31.3792C56.9318 31.4753 56.7162 31.5714 56.5094 31.6674ZM57.0726 23.4463C56.483 23.6384 55.9594 23.9222 55.4182 24.1755C54.877 24.4243 54.3358 24.6819 53.7154 24.8434C53.6318 24.8653 53.6582 24.7998 53.755 24.7474C54.0718 24.5728 54.3886 24.4112 54.701 24.2584C55.0178 24.11 55.3346 23.979 55.647 23.8567C55.9594 23.7345 56.2674 23.621 56.5798 23.5293C56.8526 23.4507 57.121 23.3852 57.385 23.3241C57.2794 23.3678 57.1694 23.4158 57.0726 23.4507V23.4463ZM58.925 22.9312C58.6566 23.0229 58.4014 23.0971 58.177 23.1538C57.9878 23.2019 57.8294 23.2193 57.6886 23.2193L58.265 23.0054L59.035 22.7434C59.5498 22.5688 60.0602 22.3942 60.5838 22.2413C60.5926 22.2413 60.6322 22.3243 60.6146 22.3287C60.0646 22.4946 59.4662 22.7434 58.9294 22.9268L58.925 22.9312ZM65.4062 21.0887C64.931 21.1717 64.4734 21.2503 64.0158 21.3332C64.5042 21.1979 64.9926 21.0364 65.4854 20.9272C65.9694 20.8268 66.4534 20.77 66.9374 20.6958C66.4534 20.8224 65.965 20.9447 65.4062 21.0887ZM86.4822 7.68968C86.3854 7.63729 86.3062 7.55871 86.2182 7.48885C86.3414 7.48885 86.469 7.48012 86.6186 7.48012C86.7022 7.56744 86.8298 7.66349 86.821 7.69842C86.7858 7.82066 86.623 7.76827 86.4866 7.69405L86.4822 7.68968ZM88.9462 8.80736C88.6602 8.95144 88.3346 8.56287 88.0178 8.43626C87.8638 8.30092 87.3798 8.21796 87.5866 8.06952C87.6878 7.9953 87.8418 8.06079 88.009 8.15684C88.1762 8.25289 88.361 8.40133 88.5282 8.46682C88.7086 8.54104 89.0386 8.75934 88.9462 8.80736ZM87.6834 39.5654C87.6262 39.6134 87.5294 39.6309 87.4458 39.6614L87.6218 39.4562C87.7054 39.4126 87.789 39.3733 87.8682 39.3296C87.8066 39.4082 87.7582 39.4999 87.679 39.5654H87.6834ZM96.4966 35.1951C96.413 35.2213 96.3162 35.2082 96.2282 35.2169C96.303 35.1601 96.3778 35.1121 96.4658 35.051C96.5582 35.051 96.6462 35.051 96.7298 35.051C96.6506 35.099 96.5802 35.1645 96.4966 35.1907V35.1951ZM97.5218 26.3104C97.6054 26.3104 97.6714 26.3148 97.7374 26.3191C97.7638 26.3541 97.7858 26.3934 97.8254 26.4283C97.9882 26.5811 98.1026 26.7557 98.1862 26.9478C97.7814 26.7776 97.733 26.7077 97.7198 26.6378C97.711 26.5724 97.7418 26.5025 97.557 26.4414C97.5306 26.3977 97.4822 26.3628 97.4382 26.3235C97.4646 26.3235 97.4778 26.3104 97.5218 26.3148V26.3104ZM97.7506 34.7541L97.6142 34.8021L97.3414 34.8938C97.3414 34.8938 97.3062 34.8065 97.3106 34.8065C97.403 34.7672 97.4998 34.6974 97.5966 34.6624C97.6186 34.6537 97.645 34.6493 97.667 34.645C97.6802 34.645 97.689 34.645 97.7022 34.645C97.7154 34.645 97.7374 34.645 97.755 34.645C97.8166 34.645 97.8694 34.6755 97.9266 34.7105L97.755 34.7585L97.7506 34.7541ZM98.0146 34.693C98.0454 34.6799 98.0762 34.6624 98.107 34.6581C98.4678 34.5882 98.6702 34.2608 99.1058 34.3437C99.1366 34.3481 99.141 34.4005 99.119 34.4179C98.7846 34.645 98.4018 34.7541 98.0146 34.6974V34.693Z" fill="url(#paint0_linear_41_152)" fill-opacity="0.68"/>
<path d="M84.603 31.7988C84.603 31.7988 84.3478 31.908 84.3346 31.9298C84.2774 32.0215 84.2686 32.1001 84.2422 32.183C84.3434 32.1306 84.4446 32.0826 84.6074 31.9997C84.6118 31.9254 84.6382 31.8425 84.6074 31.7988H84.603Z" fill="#C1FAB4"/>
<path d="M86.0026 30.8339L85.9102 30.9299C85.9454 30.9299 85.985 30.9299 86.0202 30.9125C86.0554 30.895 86.0818 30.8513 86.1126 30.8164L86.0026 30.8295V30.8339Z" fill="#C1FAB4"/>
</g>
<defs>
<linearGradient id="paint0_linear_41_152" x1="110.009" y1="43.7148" x2="0.00683594" y2="43.7148" gradientUnits="userSpaceOnUse">
<stop stop-opacity="0"/>
<stop offset="1" stop-color="white"/>
</linearGradient>
<clipPath id="clip0_41_152">
<rect width="110" height="87" fill="white" transform="translate(0 0.23291)"/>
</clipPath>
</defs>
</svg>
