<svg width="50" height="49" viewBox="0 0 50 49" fill="none" xmlns="http://www.w3.org/2000/svg">
<circle cx="24.9946" cy="24.5249" r="23.5542" stroke="#7B8F76" stroke-opacity="0.61"/>
<path d="M18.1044 30.0009C17.7139 30.3914 17.7139 31.0246 18.1044 31.4151C18.4949 31.8056 19.1281 31.8056 19.5186 31.4151L18.1044 30.0009ZM32.1777 18.3418C32.1777 17.7895 31.73 17.3418 31.1777 17.3418L22.1777 17.3418C21.6254 17.3418 21.1777 17.7895 21.1777 18.3418C21.1777 18.8941 21.6254 19.3418 22.1777 19.3418H30.1777V27.3418C30.1777 27.8941 30.6254 28.3418 31.1777 28.3418C31.73 28.3418 32.1777 27.8941 32.1777 27.3418V18.3418ZM19.5186 31.4151L31.8848 19.0489L30.4706 17.6347L18.1044 30.0009L19.5186 31.4151Z" fill="#7B8F76"/>
</svg>
