<svg width="194" height="159" viewBox="0 0 194 159" fill="none" xmlns="http://www.w3.org/2000/svg">
<g clip-path="url(#clip0_42_357)">
<path d="M117.122 0.965842C117.052 0.857176 117.106 1.0357 117.269 1.43931C117.331 1.61007 117.409 1.82741 117.494 2.06026C117.494 2.04474 117.494 2.02145 117.486 1.99817C117.378 1.44708 117.199 1.09003 117.129 0.965842H117.122Z" fill="#9ED8F0"/>
<path d="M117.525 2.17692C117.51 2.13035 117.494 2.09931 117.479 2.05273C117.533 2.30888 117.572 2.58054 117.595 2.86773C117.595 2.87549 117.595 2.89101 117.595 2.89877C117.665 2.99192 117.727 3.06954 117.797 3.17044C117.711 2.81339 117.61 2.47964 117.517 2.17692H117.525Z" fill="#9ED8F0"/>
<path d="M138.121 83.5206C137.671 83.1636 137.608 82.6591 137.539 82.2011C137.197 81.8907 136.895 82.2477 136.514 82.0381C136.173 81.6345 135.769 81.1688 135.335 80.6643C135.412 80.2219 135.35 79.632 135.994 79.5543C136.693 79.4845 136.701 79.1895 136.413 78.6617C135.894 78.5608 135.661 78.8791 135.443 79.2128C135.226 79.5466 135.024 79.8881 134.536 79.8338C133.853 79.5621 134.124 78.8713 133.922 78.3823C133.713 77.8545 132.976 78.1727 132.751 77.6449C132.58 77.1559 132.852 76.7057 133.046 76.2323C133.247 75.7588 133.372 75.2698 132.937 74.6877C132.402 74.6644 131.99 74.2763 131.525 73.9348C131.067 73.5932 130.539 73.2905 129.786 73.4691C129.173 73.8727 128.778 74.6644 128.149 74.9438C127.42 75.0214 127.164 74.5712 126.869 74.2142C126.131 74.3539 125.386 74.548 125.192 73.5932C123.594 75.2543 122.12 76.8765 120.715 78.3901C120.009 79.1507 119.318 79.8881 118.635 80.5867L118.123 81.1067L117.417 81.8363C116.913 82.3796 116.447 82.9152 116.028 83.412C115.198 84.4132 114.522 85.3059 113.948 86.0122C113.801 86.1985 113.669 86.3537 113.537 86.5167C113.413 86.6642 113.281 86.8272 113.164 86.9514C113.04 87.0911 112.932 87.2075 112.823 87.3239L112.668 87.4792L112.59 87.5568L112.52 87.6189L111.969 88.1389C111.713 88.3796 111.473 88.6202 111.232 88.8608C110.751 89.342 110.301 89.8232 109.859 90.3045C109.005 91.2437 108.237 92.1673 107.531 93.0444C107.663 92.0819 107.795 91.1505 107.95 90.2502L108.074 89.5516L108.214 88.7909L108.501 87.2618C108.889 85.2127 109.308 83.1481 109.735 81.0679C110.557 77.0473 111.411 72.9412 112.179 68.7499L112.334 67.865L112.474 66.9724C112.559 66.3903 112.637 65.8236 112.707 65.2881C112.846 64.2092 112.97 63.2234 113.095 62.3308C113.157 61.8884 113.227 61.4615 113.296 61.0734C113.335 60.8638 113.366 60.7008 113.413 60.4835L113.552 59.8005C113.746 58.8768 113.972 57.9143 114.204 56.8898C114.437 55.8652 114.678 54.7941 114.903 53.6608C115.128 52.5276 115.337 51.34 115.508 50.0904L116.331 43.9197L117.968 31.656L119.66 18.9499L120.079 15.8296C120.218 14.8206 120.381 13.7417 120.536 12.5774C120.692 11.4131 120.831 10.1635 120.909 8.82845C120.932 8.49469 120.948 8.15317 120.956 7.81165C120.956 7.46237 120.979 7.12085 120.971 6.7638C120.971 6.40676 120.971 6.05748 120.956 5.69267L120.94 5.14934L120.924 4.87768V4.74573H120.917C120.917 4.74573 120.917 4.74573 120.917 4.69916L120.94 4.40421C120.94 4.3033 120.956 4.14806 120.963 4.00059C120.963 3.86864 120.971 3.66683 120.971 3.48831V3.3486V3.23993V3.03036C120.963 2.89065 120.948 2.75093 120.94 2.61122C120.917 2.33179 120.886 2.06013 120.847 1.78847C120.824 1.65651 120.8 1.52456 120.777 1.40037L120.738 1.21409L120.699 1.04333C120.653 0.818235 120.599 0.647475 120.56 0.5C120.257 0.631951 119.978 0.763903 119.737 0.973472C119.497 1.16752 119.287 1.43918 119.078 1.74189C118.86 2.08342 118.643 2.41717 118.426 2.7587C118.309 2.93722 118.185 3.11574 118.053 3.29426C117.921 3.48831 117.782 3.75221 117.634 3.90745C117.626 3.7134 117.619 3.51936 117.603 3.34083C117.588 3.19336 117.58 3.04588 117.564 2.90617C117.262 2.48703 116.951 2.1067 116.664 1.8428C116.315 1.50904 116.012 1.31499 115.795 1.2529C115.57 1.1908 115.438 1.29171 115.322 1.49352C115.291 1.54785 115.26 1.60218 115.236 1.66428L115.143 1.86608C115.073 2.01356 115.004 2.17656 114.903 2.34732C114.794 2.39389 114.678 2.39389 114.546 2.3706C114.414 2.34732 114.274 2.30075 114.103 2.26194C114.018 2.23865 113.933 2.21537 113.84 2.19984C113.746 2.18432 113.646 2.1688 113.537 2.15327C113.327 2.12222 113.095 2.12222 112.846 2.13775C112.955 2.34732 112.908 2.70436 112.776 3.00707C112.707 3.16231 112.621 3.31755 112.528 3.45726C112.435 3.59697 112.326 3.72893 112.218 3.86088C112.163 3.93073 112.109 4.00059 112.055 4.06268C112 4.1403 111.938 4.21792 111.884 4.29554C111.768 4.45854 111.659 4.62154 111.558 4.7923C111.457 4.96306 111.364 5.14158 111.271 5.3201C111.17 5.46758 111.077 5.59953 110.976 5.747C110.177 6.86471 109.323 7.85822 108.664 9.00698C108.462 9.1855 108.291 9.16998 108.167 9.11564C108.043 9.06131 107.973 8.96041 107.965 8.96041C107.282 9.1855 107.088 9.75987 106.832 10.2566C106.576 10.7534 106.266 11.1725 105.389 10.9862C105.164 11.1725 105.125 11.5141 105.024 11.778C104.923 12.0496 104.745 12.2592 104.248 12.166L103.93 14.3937L103.643 16.567L103.069 20.8904L101.912 29.5448L100.275 41.8396L99.4603 47.9481C99.2508 49.5548 98.8628 51.3245 98.4127 53.3116C98.1877 54.3051 97.9471 55.3452 97.7143 56.4473L97.5436 57.2779C97.4893 57.5728 97.4194 57.9066 97.3651 58.2093C97.2487 58.8302 97.1556 59.4279 97.078 60.01C96.9073 61.1665 96.7831 62.2299 96.659 63.2001C96.5969 63.6891 96.5348 64.1471 96.465 64.5817L96.3641 65.2182L96.2477 65.8624C95.5338 69.7899 94.7034 73.7795 93.8731 77.8467C93.4075 80.1209 92.9419 82.4185 92.4996 84.747L92.1737 86.5012L92.003 87.4404C91.9486 87.7586 91.8943 88.0768 91.8478 88.3873C91.646 89.6447 91.4753 90.8789 91.3278 92.0742C91.3123 92.2217 91.2968 92.3536 91.2735 92.4933C91.0485 92.0509 90.8467 91.655 90.6838 91.3135C90.5053 90.9332 90.3889 90.6538 90.2492 90.2657C90.1095 89.8931 89.9776 89.4817 89.8457 89.0471C89.5818 88.17 89.3413 87.1609 89.0852 86.0355C88.8291 84.91 88.5575 83.6759 88.2238 82.3331C87.8902 80.998 87.4866 79.5543 86.9279 78.0408L86.633 77.2491C86.6098 77.1714 86.5787 77.0938 86.5554 76.9929C86.5011 76.7989 86.439 76.4962 86.3382 75.9451C86.245 75.4017 86.1131 74.6256 85.9191 73.7795C85.8803 73.6088 85.795 73.2595 85.7329 73.0111L85.6786 72.8171L85.6242 72.6385L85.5234 72.3048L85.244 71.4355C84.6698 71.6838 84.1886 72.0021 83.8084 72.5609C83.6144 72.8248 83.4437 73.1663 83.273 73.5234C83.1876 73.7174 83.1022 73.9037 83.0091 74.0978C82.9238 74.3073 82.8151 74.4548 82.7142 74.6256C82.6754 74.5169 82.6444 74.4238 82.6056 74.3073C82.5668 74.1831 82.528 74.059 82.4892 73.9425C82.4582 73.8261 82.4194 73.7174 82.3883 73.6088C82.3573 73.5079 82.3262 73.407 82.303 73.3061C82.1943 72.9257 82.14 72.623 82.1322 72.4057C82.1167 71.9633 82.3185 71.8391 82.5202 71.8003L78.9739 67.1587C78.811 67.019 78.6558 66.8792 78.4928 66.7395L78.8265 67.5701L82.0779 71.8313C81.6278 71.9089 81.1855 72.1107 80.813 72.4755C80.4328 72.8326 80.1224 73.3449 79.8198 73.9037C79.6102 74.0279 79.3697 73.9969 79.0748 73.958C78.7799 73.9192 78.4307 73.8727 78.0039 73.9425C77.9496 74.2918 77.8875 74.6489 77.7944 74.9904C77.709 75.3319 77.5771 75.6579 77.4452 75.9839C77.1736 76.6359 76.8477 77.2491 76.545 77.9243C76.3898 78.2659 76.2502 78.6229 76.126 78.9955C76.0018 79.3758 75.901 79.7794 75.8234 80.2063C75.7535 80.6332 75.707 81.0757 75.6992 81.5258V81.6112C75.6992 81.6112 75.6992 81.6733 75.6992 81.6888L75.6759 81.8053C75.6604 81.8829 75.6526 81.9605 75.6371 82.0381C75.6138 82.1934 75.5906 82.3486 75.575 82.4961C75.4586 82.7367 75.2957 82.791 75.1638 82.791C75.0318 82.791 74.9232 82.7367 74.9232 82.7367C74.6516 82.9773 74.5274 83.2257 74.4654 83.4896C74.4033 83.7457 74.3955 84.0252 74.3722 84.2813C74.3179 84.8013 74.186 85.2671 73.3091 85.43C73.1617 85.6784 73.2548 85.9656 73.2548 86.2295C73.2548 86.5012 73.1617 86.7418 72.665 86.8427C72.9677 88.1001 73.2703 89.5438 73.6583 91.1195C74.0386 92.6951 74.5197 94.4416 75.2336 96.2889L75.3655 96.6304L75.513 96.9874C75.6138 97.228 75.7147 97.4687 75.8156 97.686C76.0174 98.1439 76.2191 98.5553 76.4131 98.9512C76.8011 99.7351 77.1581 100.403 77.4297 100.946C77.7013 101.489 77.8953 101.908 78.0117 102.211C78.1281 102.514 78.1746 102.7 78.1979 102.832C78.1979 102.863 78.2134 102.886 78.2134 102.917C78.2134 102.933 78.2134 102.941 78.2134 102.956V102.972V102.98L78.229 103.096C78.291 103.709 78.3764 104.322 78.5006 104.905C78.7411 106.077 79.0903 107.124 79.4085 107.978C79.7344 108.84 80.0293 109.492 80.2388 109.996C80.4483 110.501 80.588 110.858 80.6734 111.122L80.6889 111.176L80.7199 111.285L80.782 111.494L80.976 112.139C81.1545 112.752 81.3407 113.357 81.5114 113.978L82.5513 117.673C82.8927 118.907 83.2419 120.133 83.5989 121.352L83.8705 122.252C83.9636 122.555 84.049 122.858 84.1498 123.145C84.3438 123.727 84.5223 124.332 84.7629 124.837C85.6475 126.956 86.8038 128.438 87.9057 129.354L88.317 129.696L88.4178 129.781L88.5187 129.851L88.7205 129.991C88.8524 130.084 88.9921 130.177 89.124 130.262C89.2559 130.348 89.3956 130.425 89.5353 130.503C90.094 130.814 90.6915 131.085 91.4675 131.31C91.8478 131.427 92.2978 131.528 92.7712 131.597C93.2446 131.667 93.6946 131.691 94.0826 131.691C94.4784 131.691 94.8121 131.667 95.1535 131.629C95.3242 131.613 95.4872 131.59 95.6502 131.559C95.8131 131.535 95.9761 131.497 96.139 131.466C96.7831 131.318 97.4194 131.108 98.079 130.798C98.7386 130.488 99.4215 130.084 100.143 129.517C100.748 129.021 101.377 128.446 102.021 127.701C102.665 126.948 103.302 126.118 103.884 125.217C104.186 124.783 104.466 124.317 104.753 123.867C105.04 123.409 105.319 122.951 105.606 122.516C105.893 122.066 106.196 121.647 106.499 121.22C106.794 120.777 107.088 120.343 107.376 119.893C107.958 118.992 108.516 118.069 109.083 117.153L109.51 116.47L109.882 115.888L110.045 115.631L110.138 115.492L110.324 115.212C110.565 114.84 110.798 114.514 111.046 114.172C111.294 113.831 111.558 113.481 111.838 113.124C112.955 111.704 114.305 110.19 115.764 108.506C116.494 107.668 117.254 106.775 118.022 105.828L120.04 103.306C120.715 102.475 121.344 101.722 121.957 101.062C122.259 100.729 122.562 100.426 122.857 100.139C123.004 99.9913 123.152 99.8593 123.299 99.7196C123.609 99.4324 123.943 99.1142 124.222 98.8192C124.812 98.2216 125.34 97.6317 125.798 97.0806C126.263 96.5295 126.682 96.0017 127.055 95.5282L128.087 94.2242C128.397 93.8439 128.677 93.5024 128.933 93.2074C129.057 93.0755 129.181 92.928 129.298 92.8193L129.523 92.5865L129.856 92.2527L130.508 91.5774L131.152 90.9099C131.998 90.0173 132.805 89.148 133.597 88.2942C135.172 86.5866 136.646 84.9876 138.105 83.5439L138.121 83.5206ZM118.395 21.7752C118.208 23.1956 117.991 24.8101 117.774 26.4323C117.293 25.4155 117.844 22.7377 118.395 21.7752ZM117.161 28.1166C117.161 28.1632 117.138 28.3184 117.114 28.4892C116.835 28.2175 117.13 28.0235 117.161 28.1166ZM116.905 25.5086L116.936 25.6173H116.85L116.905 25.5086ZM116.734 29.6069C116.672 30.0493 116.618 30.4995 116.532 31.1515C116.292 30.4917 116.556 30.0726 116.734 29.6069ZM89.4965 93.1686V93.0599L89.5663 93.1298L89.4965 93.1686ZM90.0009 92.602C89.7914 92.3148 89.5974 91.981 89.481 91.6783C89.4499 91.6007 89.4189 91.5231 89.3956 91.4455C89.3723 91.3756 89.3568 91.298 89.3335 91.2281C89.2947 91.0884 89.2714 90.9332 89.2482 90.7857C89.2094 90.4985 89.2094 90.2113 89.2482 90.0018C89.287 90.126 89.3335 90.2502 89.3723 90.3821C89.4189 90.4985 89.4654 90.6227 89.512 90.7469C89.5353 90.809 89.5586 90.8711 89.5818 90.9332L89.6517 91.104C89.6982 91.2126 89.7448 91.329 89.8069 91.461C90.0319 91.9578 90.3346 92.5632 90.7148 93.3006C90.4665 93.1531 90.2259 92.9047 90.0009 92.6097V92.602ZM96.4184 106.899C96.4184 106.899 96.3718 106.969 96.3563 107L96.2787 106.744C96.3408 106.767 96.4106 106.767 96.465 106.829L96.4184 106.899ZM96.9538 103.725C97.2332 103.298 97.3341 103.112 97.4582 102.91C97.691 103.251 97.5902 103.476 96.9538 103.725ZM102.099 116.159C101.99 115.888 102.029 115.856 102.169 115.95C102.285 116.221 102.231 116.237 102.099 116.159ZM102.339 65.5054C102.363 65.3036 102.138 65.1561 102.634 65.0863C102.751 65.257 102.72 65.3657 102.339 65.5054ZM102.875 63.6891L102.836 63.6581H102.929L102.882 63.6891H102.875ZM102.867 63.4796L102.914 63.464L102.945 63.4951H102.867V63.4796ZM103.457 61.4227C103.216 61.3451 103.263 61.3063 103.418 61.2752C103.651 61.3451 103.627 61.3916 103.457 61.4227ZM103.868 113.753V113.699L103.915 113.753H103.868ZM103.992 113.481H104.046L104.062 113.543L103.992 113.481ZM105.094 111.937C105.071 111.719 105.156 111.618 105.575 111.634C105.451 111.828 105.583 112.069 105.094 111.937ZM130.198 80.8273C130.159 80.4081 130.345 80.2607 131.036 80.3072C130.593 80.5789 130.399 80.6953 130.198 80.8273ZM133.007 81.2076C132.875 80.9515 133.03 80.8971 133.278 80.7264C133.146 80.967 133.084 81.0679 133.007 81.2076Z" fill="#8D9CDF"/>
<path d="M138.486 83.1559L138.664 82.9774C138.486 82.9153 138.439 82.9929 138.486 83.1559Z" fill="#9ED8F0"/>
<path d="M191.447 123.626C191.013 124.053 190.609 124.418 190.074 124.255C189.74 124.03 189.709 123.743 189.748 123.448C189.795 123.145 189.911 122.819 189.872 122.532C189.833 122.221 189.577 122.128 189.329 122.02C189.081 121.911 188.84 121.794 188.794 121.484C188.747 120.933 189.119 120.522 189.337 120.064C189.391 119.947 189.438 119.839 189.461 119.714C189.484 119.598 189.492 119.474 189.484 119.357C189.445 119.109 189.313 118.861 189.042 118.581C188.801 118.527 188.592 118.387 188.367 118.209C188.149 118.03 187.924 117.813 187.707 117.603C187.49 117.386 187.28 117.168 187.055 116.982C186.947 116.889 186.846 116.796 186.737 116.718C186.683 116.679 186.621 116.648 186.566 116.61C186.512 116.579 186.458 116.547 186.388 116.532C186.062 116.594 185.565 117.223 184.735 117.394C184.526 117.37 184.347 117.331 184.207 117.269C184.068 117.207 183.959 117.122 183.874 117.021C183.703 116.819 183.625 116.563 183.524 116.33C183.4 116.33 183.276 116.346 183.144 116.361C183.012 116.377 182.88 116.392 182.748 116.408C182.477 116.447 182.213 116.478 181.996 116.462C181.577 116.431 181.321 116.206 181.515 115.538C181.274 115.701 181.049 115.88 180.816 116.051C180.591 116.229 180.374 116.416 180.149 116.602L179.381 117.285L178.061 118.488C177.65 118.868 177.262 119.218 176.89 119.544C176.525 119.87 176.176 120.157 175.842 120.428C175.508 120.7 175.19 120.941 174.88 121.166C174.725 121.282 174.569 121.383 174.414 121.492L173.669 121.989C172.668 122.656 171.675 123.339 170.682 124.03C169.168 125.086 167.686 126.172 166.204 127.267L166.646 126.133C168.175 122.245 169.813 118.302 171.427 114.266C172.583 111.386 173.724 108.452 174.81 105.448C175.082 104.703 175.345 103.942 175.617 103.189L176.385 100.931L177.844 96.6151C178.822 93.751 179.807 90.9179 180.824 88.1159C181.336 86.7187 181.856 85.3139 182.376 83.9478L184.037 79.6399C184.867 77.4666 185.697 75.1691 186.427 72.7164C186.791 71.49 187.125 70.2171 187.42 68.9053L187.529 68.4086L187.583 68.1602L187.606 68.0515L187.653 67.8342C187.668 67.7566 187.699 67.6712 187.715 67.5936C187.792 67.2753 187.917 66.8872 188.049 66.4914C188.328 65.6609 188.708 64.6674 189.135 63.5031C189.554 62.331 190.027 60.9417 190.4 59.3505L190.47 59.0555L190.532 58.7451L190.656 58.1164C190.695 57.9068 190.726 57.6817 190.757 57.4644L190.834 56.9133L190.935 56.1992L190.997 55.7335L191.067 55.229C191.153 54.5226 191.246 53.7232 191.261 52.6986C191.277 52.2018 191.261 51.5887 191.191 50.8979C191.168 50.7038 191.145 50.5098 191.122 50.3157L191.098 50.1682V50.0984L191.067 50.013L190.997 49.6637L190.92 49.3144L190.881 49.1359L190.819 48.9186C190.741 48.6314 190.648 48.352 190.547 48.0725L177.293 45.123C177.2 45.2162 176.983 45.418 176.727 45.6508C176.463 45.8915 176.152 46.1787 175.811 46.5124C176.354 46.8539 176.983 47.0247 177.611 47.1644C178.248 47.3041 178.907 47.3973 179.52 47.568C179.35 47.8242 179.062 48.0958 178.76 48.3442C178.457 48.5926 178.116 48.8254 177.743 49.0816C177.371 49.33 176.975 49.5939 176.533 49.9354C176.424 50.0285 176.315 50.1139 176.199 50.2071C176.098 50.2924 175.99 50.3856 175.889 50.471L175.586 50.7504L175.291 51.0453C175.741 50.8358 176.199 50.665 176.665 50.5253C177.146 50.37 177.611 50.2536 178.046 50.2071C178.923 50.0984 179.722 50.1372 180.521 50.1915C180.925 50.471 180.84 51.0997 181.328 51.8215C181.561 51.7439 181.802 51.6973 182.035 51.643C181.98 51.7206 181.949 51.7982 181.895 51.8758C181.709 52.1242 181.499 52.3571 181.282 52.5899C180.847 53.0556 180.382 53.5214 179.932 54.0259C179.707 54.282 179.489 54.5382 179.272 54.8409C179.218 54.9107 179.163 54.9961 179.117 55.0737C179.062 55.1513 179.016 55.2367 178.962 55.3299C178.861 55.5472 178.768 55.6171 178.682 55.7335C178.48 55.8577 178.31 55.8344 178.186 55.7801C178.069 55.7257 177.999 55.6481 177.992 55.6481C177.821 55.6791 177.681 55.718 177.565 55.7801C177.448 55.8344 177.34 55.912 177.254 55.9819C177.084 56.1293 176.952 56.3234 176.812 56.4864C176.525 56.8279 176.184 57.0996 175.338 56.7969C174.872 56.9831 175.051 57.8602 174.088 57.5109C173.894 58.062 173.654 58.714 173.39 59.4204L172.986 60.5381C172.847 60.9494 172.707 61.3453 172.56 61.7877C172.28 62.6648 172.001 63.6117 171.776 64.6751L171.566 65.6453L171.357 66.5069C170.767 68.8277 169.898 71.296 168.905 73.9039L167.26 78.1574C166.685 79.6477 166.142 81.1147 165.607 82.5894C164.536 85.5389 163.511 88.4807 162.518 91.4069L161.036 95.7846L160.33 97.8725C160.082 98.5633 159.849 99.2463 159.593 99.9371C158.599 102.693 157.521 105.456 156.403 108.258C154.89 112.053 153.299 115.919 151.74 119.862C151.646 119.295 151.553 118.783 151.499 118.372C151.46 118.123 151.437 117.914 151.414 117.72L151.328 116.835C151.018 113.73 150.482 110.943 150.017 108.398C149.551 105.859 149.155 103.57 148.992 101.536C148.325 101.684 147.751 101.955 147.208 102.312C146.657 102.669 146.16 103.135 145.617 103.64C145.151 102.064 145.687 100.876 146.207 99.7431C145.027 100.62 143.863 101.637 142.707 102.825C142.202 102.98 141.721 102.545 140.782 102.468C140.224 103.88 139.479 105.27 138.788 106.698C138.097 108.126 137.461 109.593 137.135 111.122C136.98 111.394 136.802 111.432 136.654 111.401C136.507 111.37 136.406 111.277 136.398 111.277C135.762 111.751 135.746 112.496 135.645 113.117C135.552 113.753 135.358 114.273 134.396 114.366C134.054 114.91 134.683 115.756 133.589 115.895C133.643 116.245 133.69 116.571 133.736 116.912C133.783 117.254 133.822 117.572 133.86 117.898C133.899 118.224 133.923 118.535 133.961 118.853L134.031 119.582L134.078 119.986L134.124 120.382C134.194 120.902 134.264 121.36 134.342 121.802L134.543 122.982C134.598 123.331 134.652 123.657 134.691 123.929C134.714 124.076 134.722 124.193 134.745 124.317C134.753 124.426 134.776 124.55 134.776 124.643L134.792 124.791V124.915C134.807 124.961 134.799 124.992 134.807 125.023V125.078V125.109V125.186C134.815 125.606 134.823 126.048 134.838 126.506C134.869 127.422 134.924 128.415 135.032 129.463C135.141 130.511 135.312 131.613 135.537 132.7L135.63 133.103L135.669 133.282V133.321C135.684 133.367 135.7 133.445 135.715 133.515C135.738 133.678 135.769 133.895 135.8 134.175C135.87 134.788 135.932 135.719 136.08 136.922C136.157 137.52 136.258 138.211 136.421 138.94L136.53 139.453L136.569 139.654L136.608 139.872C136.662 140.182 136.716 140.532 136.77 140.927L136.964 142.278C137.112 143.256 137.314 144.475 137.663 145.779L137.686 145.864V145.887C137.709 145.988 137.74 146.174 137.772 146.415L137.903 147.3C137.958 147.649 138.02 148.022 138.105 148.472C138.198 148.922 138.299 149.388 138.462 149.97C138.633 150.544 138.827 151.165 139.184 151.949C139.533 152.718 140.014 153.61 140.821 154.596C141.038 154.852 141.264 155.101 141.496 155.341C141.752 155.597 142.032 155.846 142.311 156.086C142.901 156.568 143.568 157.018 144.305 157.375C144.67 157.561 145.035 157.709 145.415 157.848C145.601 157.918 145.795 157.98 145.982 158.042C146.168 158.097 146.346 158.143 146.525 158.19C146.711 158.236 146.89 158.275 147.076 158.306C147.169 158.322 147.262 158.345 147.347 158.353L147.603 158.392C147.945 158.438 148.279 158.469 148.62 158.485C148.923 158.492 149.218 158.492 149.52 158.485H149.745L149.854 158.469H149.947L150.335 158.423L150.723 158.376C150.847 158.361 150.995 158.337 151.095 158.322C151.313 158.283 151.53 158.236 151.747 158.19L152.073 158.112L152.353 158.035C152.539 157.98 152.717 157.926 152.904 157.872L153.043 157.825L153.16 157.786L153.385 157.709C153.532 157.654 153.687 157.6 153.827 157.538C154.106 157.421 154.401 157.297 154.665 157.173L155.061 156.979L155.433 156.785C156.427 156.257 157.179 155.737 157.792 155.302L159.127 154.324L159.313 154.192L159.562 154.022L160.221 153.579L161.595 152.663C162.526 152.035 163.504 151.375 164.512 150.661C165.017 150.304 165.529 149.923 166.041 149.535C166.297 149.341 166.561 149.139 166.817 148.93L167.213 148.619L167.593 148.309C168.408 147.641 169.223 146.974 170.045 146.322C173.786 143.326 177.604 140.469 181.522 137.776L182.997 136.767L183.742 136.27L184.657 135.649C186.031 134.695 187.28 133.67 188.359 132.723C189.445 131.768 190.377 130.891 191.207 130.154L191.517 129.882L191.61 129.797C191.61 129.797 191.603 129.797 191.618 129.789C191.742 129.704 192.146 129.471 192.821 129.083C192.619 128.842 192.565 128.571 192.58 128.291C192.58 128.151 192.627 127.996 192.658 127.849C192.697 127.701 192.736 127.562 192.79 127.406C192.635 127.212 192.402 127.22 192.161 127.236C192.037 127.251 191.929 127.251 191.82 127.236C191.711 127.22 191.603 127.189 191.51 127.111C191.269 126.591 190.99 125.994 190.679 125.334C190.71 125.272 190.741 125.21 190.772 125.148C190.803 125.078 190.842 125.016 190.873 124.946C190.943 124.814 191.013 124.682 191.114 124.55C191.215 124.426 191.323 124.317 191.478 124.224C191.556 124.177 191.641 124.139 191.735 124.108C191.828 124.069 191.944 124.038 192.06 124.014C192.588 123.913 192.922 123.704 193.077 123.456C193.232 123.215 193.217 122.912 193.085 122.602C192.324 122.726 191.882 123.199 191.44 123.626H191.447ZM185.076 72.9958C185.154 72.5534 185.278 72.0411 185.433 71.5443C185.589 71.0398 185.767 70.5353 185.946 70.0929C186.124 69.6427 186.318 69.2546 186.481 68.9829C186.109 70.6362 185.604 72.4292 185.045 74.1368C184.983 73.8419 184.999 73.446 185.076 72.9958ZM184.37 72.9958V73.12L184.3 73.0967L184.37 72.9958ZM184.068 75.8289C184.052 75.8755 183.998 76.0307 183.936 76.2092C183.726 75.8677 184.06 75.728 184.068 75.8289ZM183.299 77.2881C183.136 77.7305 182.974 78.1652 182.733 78.8172C182.655 78.0953 183.012 77.7305 183.299 77.2881ZM167.066 98.0821C167.283 98.183 167.26 98.214 167.089 98.1985C166.864 98.0898 166.91 98.0743 167.066 98.0821ZM166.336 99.5491L166.367 99.5801L166.29 99.5568H166.336V99.5491ZM166.321 99.6965H166.274L166.235 99.6655L166.321 99.6965ZM137.717 145.965V145.942V145.973V145.988C137.717 145.988 137.717 145.988 137.717 145.973V145.965ZM151.026 121.655C151.026 121.655 151.026 121.577 151.033 121.554C151.033 121.569 151.033 121.593 151.033 121.608L151.018 121.655H151.026ZM154.75 148.899C154.618 148.674 154.657 148.666 154.789 148.79C154.929 149.023 154.875 149.007 154.75 148.899ZM154.781 134.322C154.859 134.229 154.929 134.144 154.983 134.074C155.038 133.996 155.092 133.934 155.131 133.872C155.216 133.755 155.286 133.662 155.356 133.569C155.55 133.926 155.433 134.159 154.774 134.322H154.781ZM156.155 148.208V148.161L156.194 148.231L156.155 148.2V148.208ZM156.264 148.092L156.31 148.123V148.177L156.264 148.099V148.092ZM157.226 147.579C157.241 147.393 157.319 147.354 157.66 147.587C157.528 147.68 157.606 147.952 157.226 147.579ZM165.537 100.938C165.583 100.791 165.382 100.628 165.87 100.682C165.964 100.838 165.925 100.915 165.537 100.938ZM185.496 124.286C185.488 123.836 185.713 123.688 186.442 123.813C185.953 124.053 185.728 124.17 185.496 124.286ZM188.281 125.171C188.165 124.891 188.297 124.899 188.545 124.814C188.39 125 188.351 125.07 188.281 125.171Z" fill="#9ED8F0"/>
<path d="M193.565 128.624L194 128.345C193.744 128.291 193.628 128.399 193.565 128.624Z" fill="#9ED8F0"/>
<path d="M5.02832 84.8867C5.27664 85.2981 5.61032 85.7172 6.05264 86.0898C6.12248 86.1441 6.20008 86.1907 6.26992 86.2528C6.2544 86.1364 6.23112 86.0199 6.2156 85.9035L5.02832 84.8867Z" fill="#9ED8F0"/>
<path d="M60.9626 83.6606C60.5125 83.5597 60.3883 84.0953 59.946 84.1186C59.4571 83.9245 58.8829 83.6994 58.2621 83.4511C58.1379 82.9931 57.7965 82.4731 58.3397 82.0151C58.9217 81.5184 58.7742 81.2157 58.2621 80.9129C57.7499 81.1458 57.7189 81.5882 57.6878 82.0229C57.6568 82.4575 57.6335 82.9 57.1757 83.1018C56.4385 83.2027 56.3609 82.4265 55.9418 82.0927C55.5073 81.7357 55.0106 82.3877 54.5528 82.0229C54.1803 81.6814 54.1726 81.1535 54.1027 80.6646C54.0174 80.1678 53.8622 79.6943 53.1793 79.4615C52.2558 79.9427 50.9677 79.0268 49.9046 79.9117C49.827 80.0514 49.7804 80.1988 49.7416 80.3618C49.695 80.5248 49.664 80.6878 49.6252 80.8508C49.5554 81.1768 49.4622 81.5028 49.2527 81.7434C48.663 82.1005 48.2206 81.8211 47.7938 81.6348C47.2118 82.0462 46.6531 82.4886 46.0323 81.7745C45.396 83.7926 44.6433 86.0668 44.0768 88.6981C43.9526 89.2724 43.844 89.8701 43.7431 90.4755C43.7276 90.3824 43.7121 90.2892 43.6888 90.1883C43.5336 89.2647 43.3939 88.2944 43.2542 87.2621C42.9749 85.1975 42.6955 82.9232 42.2222 80.4705C42.1446 80.0824 42.067 79.6866 41.9816 79.2907L41.7721 78.3282C41.6557 77.8004 41.5548 77.2493 41.4694 76.6905C41.2832 75.5728 41.1435 74.393 41.0271 73.1666C40.7866 70.7139 40.6546 68.0593 40.4606 65.2263L40.4218 64.6907L40.3986 64.419L40.3675 64.1086C40.3287 63.6894 40.2977 63.2703 40.2434 62.8667C40.1502 62.0439 40.0416 61.2444 39.9174 60.4683C39.6691 58.9159 39.3742 57.4489 39.0871 56.0751C38.5051 53.3196 37.9774 50.9057 37.7369 48.7789L36.2858 34.5515L36.1926 33.6589L36.1461 33.2164L36.1228 32.9991L36.1073 32.8051C36.0607 32.3005 36.0297 31.7417 35.9909 31.1595L35.8745 29.3045C35.8279 28.6447 35.7814 27.9772 35.7038 27.2553C35.6339 26.5335 35.5486 25.7961 35.4244 25.0122C35.3701 24.6318 35.2925 24.2127 35.2149 23.8168C35.1295 23.3977 35.0519 22.9941 34.9355 22.5594C34.8812 22.3421 34.8346 22.1325 34.7726 21.9152L34.5863 21.2554L34.563 21.1701V21.1468V21.1312C34.7726 21.0692 34.9666 21.0071 34.563 21.1312L34.5475 21.0692L34.4466 20.6733C34.2682 20.0058 34.0276 19.0433 33.4922 17.8014C33.368 17.9178 33.2594 18.0343 33.1585 18.174C33.0576 18.3215 32.9645 18.4767 32.8791 18.6397C32.7006 18.9579 32.5377 19.3072 32.367 19.6487C32.0333 20.3395 31.6841 21.0148 31.2728 21.6047C31.1021 21.2011 30.9624 20.7276 30.8227 20.2231C30.7451 19.9514 30.6753 19.6875 30.5977 19.4159C30.5589 19.2839 30.5201 19.1442 30.4813 19.0045C30.4425 18.8726 30.4037 18.7484 30.3649 18.6087C30.2019 18.0886 30.0234 17.5841 29.7984 17.1106C29.5811 16.6449 29.3173 16.2258 29.1233 15.9541C29.1233 16.2879 29.1621 16.6682 29.1854 17.1029C29.2086 17.5298 29.1931 17.9877 29.1466 18.4379C29.0922 18.8881 28.9991 19.3383 28.8827 19.7729C28.8206 19.9825 28.7586 20.2231 28.681 20.4327C28.6034 20.6423 28.518 20.8441 28.4249 21.0459C28.0058 21.3098 27.4471 20.8984 26.5858 21.0769C26.5314 21.8221 26.3142 22.4818 26.0814 23.1649C26.027 23.3356 25.965 23.5064 25.9106 23.7004C25.8874 23.8013 25.8563 23.8789 25.8253 23.9566L25.7322 24.1972C25.608 24.5154 25.4606 24.8259 25.3209 25.1286C24.7311 26.355 24.0638 27.4727 23.6214 28.7456C23.4585 28.9629 23.2878 28.9785 23.1558 28.9474C23.0239 28.9164 22.9386 28.8232 22.9308 28.831C22.3022 29.1803 22.2169 29.8012 22.0539 30.3601C21.8987 30.9189 21.6737 31.4157 20.7813 31.4002C20.595 31.633 20.6338 32.0056 20.5873 32.3083C20.5407 32.6265 20.4166 32.8749 19.9122 32.8904C19.9432 33.2863 19.9665 33.6821 20.0053 34.1013L20.0286 34.4118L20.0596 34.6912L20.1139 35.2423L20.339 37.4311L20.7813 41.8088L21.6814 50.6262C22.0617 53.9095 22.7368 56.8202 23.2645 59.3971C23.5361 60.6856 23.7766 61.8964 23.9551 63.0297C24.0482 63.5963 24.1258 64.1474 24.1802 64.6829C24.219 64.9546 24.2345 65.2107 24.2578 65.4669L24.2733 65.6609L24.2888 65.8938L24.3276 66.375C24.5138 68.9752 24.6458 71.7617 24.9329 74.7345C25.0726 76.217 25.2588 77.7461 25.5149 79.314C25.6468 80.0979 25.7865 80.8897 25.9572 81.6891L26.1822 82.7292C26.2443 82.9931 26.2986 83.2725 26.353 83.552C26.7177 85.4458 26.9815 87.5881 27.3074 89.971C27.4704 91.1663 27.6566 92.416 27.8894 93.72C27.9282 93.9218 27.967 94.1391 28.0058 94.3487C27.5014 93.8442 27.0203 93.3862 26.5858 92.9826L25.3364 91.8338L24.8242 91.3526L24.607 91.1353C24.5294 91.0654 24.475 91.0033 24.4052 90.9335C24.1569 90.6696 23.9474 90.4445 23.7999 90.2582C23.6292 90.0331 23.6447 90.0641 23.2334 89.4199C22.5894 88.4342 21.9142 87.4096 21.1926 86.3695C20.4709 85.3217 19.6949 84.2583 18.8646 83.1949C18.4455 82.6671 18.0187 82.1315 17.5609 81.6037C17.3436 81.3398 17.103 81.0759 16.878 80.8198L16.2417 80.1135C16.1641 80.0359 15.939 79.7564 15.6442 79.3606C15.3415 78.957 14.9613 78.4369 14.4646 77.816C13.968 77.195 13.355 76.4654 12.5014 75.6659C12.2841 75.4641 12.0435 75.2546 11.8107 75.0605C11.5546 74.8509 11.283 74.6491 11.0114 74.4473C10.7166 74.2455 10.4062 74.0437 10.0958 73.8497C9.76208 73.6556 9.41288 73.4693 9.06368 73.2986L0.06208 86.3618L0 86.4238H0.00776L0.06208 86.4859L0.2716 86.7033C0.4656 86.8973 0.76824 87.2156 1.25712 87.6425C1.2804 87.5571 1.29592 87.4717 1.31144 87.3786C1.32696 87.2932 1.34248 87.2078 1.358 87.1146C1.38128 86.9361 1.38128 86.7421 1.40456 86.5636C1.41232 86.4704 1.42008 86.385 1.42784 86.2919C1.42784 86.1987 1.42784 86.1056 1.45112 86.0202C1.4744 85.8495 1.48216 85.6632 1.52096 85.5079C1.552 85.2596 1.63736 85.0733 1.71496 84.8715C1.87792 84.6309 2.07968 84.3437 2.33576 83.9789C2.39784 84.0332 2.46768 84.0953 2.5608 84.2039C2.74704 84.4058 2.99536 84.7395 3.40664 85.182C3.81016 85.6166 4.39216 86.1522 5.1604 86.6024C5.5872 86.8585 6.04504 87.0603 6.5184 87.2311C6.54944 87.3397 6.57272 87.4484 6.61152 87.5648C6.65032 87.8986 6.52616 88.015 6.38648 88.0461C6.2468 88.0771 6.0916 88.015 6.0916 88.0228C5.9752 88.3954 6.02952 88.7834 6.22352 89.2026C6.2468 89.2569 6.27008 89.3035 6.29336 89.3578C6.30888 89.4044 6.31664 89.4277 6.3244 89.4587C6.34768 89.5208 6.37096 89.5907 6.39424 89.6528C6.4408 89.7847 6.49512 89.9011 6.54168 90.0253C6.72016 90.5221 6.79 90.9956 6.07608 91.5234C6.014 92.0667 6.8676 92.4082 6.0528 93.0214C6.79776 93.9528 7.5272 94.9696 8.27216 96.0641C8.64464 96.6151 9.02488 97.1817 9.40512 97.7639L9.98712 98.6487L10.2199 98.998L10.476 99.3706C10.6467 99.6112 10.8252 99.8441 11.0037 100.077C11.7098 100.993 12.4393 101.777 13.1144 102.452C13.7895 103.127 14.4181 103.702 14.9613 104.206C15.5122 104.711 15.9778 105.138 16.3581 105.51C16.4434 105.596 16.5521 105.696 16.6219 105.774L16.7461 105.898L16.8082 105.96L16.8392 105.999C16.8858 106.054 16.9323 106.1 16.9789 106.154C17.0332 106.224 17.0798 106.286 17.1341 106.348C17.4522 106.744 17.879 107.389 18.4222 108.25C18.9654 109.096 19.6716 110.214 20.6261 111.425C21.0917 112.03 21.6582 112.667 22.2557 113.28C22.5738 113.59 22.892 113.901 23.2334 114.196L23.7611 114.638L24.0172 114.848L24.0948 114.91C24.5061 115.236 24.9406 115.655 25.4218 116.175C25.8951 116.695 26.4073 117.316 26.9505 118.022L27.3695 118.573L28.1766 119.652C28.7896 120.475 29.4104 121.298 30.039 122.097L30.5123 122.695L30.7529 122.99C30.8305 123.091 30.9081 123.199 30.9779 123.3L31.8858 124.566C32.1962 124.985 32.4989 125.419 32.817 125.831C33.1352 126.242 33.4534 126.669 33.7793 127.065C35.0597 128.648 36.3246 129.944 37.5739 130.899C38.8155 131.862 40.0106 132.475 41.159 132.871C41.7333 133.065 42.292 133.204 42.8585 133.298C43.425 133.391 43.9914 133.43 44.6045 133.422C44.7597 133.422 44.9149 133.422 45.0701 133.406C45.233 133.391 45.3882 133.383 45.559 133.36C45.8926 133.321 46.2496 133.267 46.6143 133.173C46.7928 133.119 46.979 133.065 47.1575 133.003L47.2274 132.979C47.2274 132.979 47.2506 133.01 47.2506 133.003H47.2662L47.2972 132.987L47.4291 132.948L47.6774 132.863C47.9956 132.746 48.275 132.646 48.5155 132.506C49.0044 132.25 49.439 132.048 49.8347 131.753C50.2382 131.466 50.6185 131.155 51.0065 130.775C51.2005 130.589 51.3945 130.379 51.5962 130.123L51.7437 129.944C51.798 129.882 51.8446 129.82 51.8911 129.75L52.186 129.339C52.574 128.757 52.9387 128.105 53.2646 127.321C53.575 126.529 53.8622 125.668 54.0717 124.697C54.1338 124.465 54.1726 124.208 54.2191 123.96C54.2657 123.712 54.3122 123.463 54.351 123.207L54.4752 122.447L54.6149 121.694C54.9874 119.691 55.321 117.65 55.6547 115.616L55.903 114.087L56.1591 112.729L56.2833 112.053L56.3066 111.929L56.3221 111.844L56.3609 111.673L56.5083 110.99C56.7411 109.95 56.9894 108.879 57.2533 107.769C57.5171 106.651 57.7965 105.495 58.0681 104.292C58.3397 103.081 58.6035 101.831 58.8286 100.527C59.0536 99.2153 59.2554 97.8648 59.3873 96.4599C59.4261 96.1184 59.4416 95.7536 59.4726 95.3965L59.5347 94.5427C59.558 94.1779 59.6046 93.7976 59.6589 93.4095C59.7675 92.6255 59.9382 91.8028 60.1788 90.8947C60.6444 89.0862 61.3583 87.006 62.0955 84.592C61.529 84.5067 61.2497 84.0332 60.9858 83.6141L60.9626 83.6606ZM6.27008 86.2531C6.27784 86.3152 6.2856 86.3773 6.30112 86.4471L3.08072 83.6762L3.28248 83.3812L5.02848 84.887C5.02848 84.887 4.97416 84.8171 4.95088 84.7783C4.6948 84.3359 4.57064 83.9168 4.5008 83.552C4.43872 83.1794 4.43096 82.8456 4.45424 82.5429C4.58616 82.3411 4.8112 82.2557 5.09056 82.1548C5.32336 82.0772 5.60272 81.9763 5.88984 81.7978C5.9364 81.9763 5.98296 82.1471 6.00624 82.3256C6.08384 82.8612 6.0916 83.4045 6.09936 83.9478C6.09936 84.4989 6.10712 85.0655 6.16144 85.6554C6.16144 85.733 6.18472 85.8184 6.20024 85.896L7.62032 87.1224C7.1392 86.8818 6.6736 86.5791 6.2468 86.2453L6.27008 86.2531ZM8.04712 76.5042C7.96952 76.4654 7.89192 76.4344 7.81432 76.3955L7.69792 76.3412L7.6436 76.3179H7.62808V76.3102C8.4196 75.1614 3.42216 82.4187 1.71496 84.8948C1.746 84.8249 1.75376 84.7318 1.7848 84.6619L1.83136 84.5688L1.85464 84.5222V84.4989L1.87016 84.4834L7.9152 75.7125C7.98504 75.8367 8.05488 75.9454 8.12472 76.054C8.25664 76.2791 8.40408 76.5042 8.51272 76.7371C8.37304 76.6594 8.20232 76.5818 8.04712 76.512V76.5042ZM23.5982 92.8041L23.5594 92.7109L23.6525 92.742L23.5982 92.8041ZM23.2179 91.5078C23.117 91.3914 23.0472 91.2828 22.9774 91.1741C22.923 91.0654 22.861 90.9568 22.8299 90.8559C22.7989 90.755 22.7678 90.6618 22.7678 90.5764C22.7678 90.5299 22.7678 90.491 22.7678 90.4522C22.7678 90.4289 22.7678 90.4134 22.7678 90.3979C22.7678 90.3591 22.7523 90.328 22.7446 90.297C22.8066 90.3901 22.8144 90.4057 22.8377 90.4367L22.8998 90.5299C22.9386 90.5919 23.0006 90.6618 23.0472 90.7317C23.1093 90.8093 23.1636 90.8791 23.2257 90.9568C23.2955 91.0421 23.3731 91.1198 23.443 91.2051C23.7611 91.5544 24.1802 91.9736 24.7078 92.4703C24.1879 92.4082 23.5671 91.9658 23.1946 91.5156L23.2179 91.5078ZM25.7399 93.9218C25.6701 93.8597 25.8408 94.0149 26.0503 94.209C25.6468 94.2555 25.639 93.8907 25.7399 93.9218ZM27.4238 96.1339C27.4238 96.1339 27.3695 96.064 27.3385 96.0252C27.3152 95.9942 27.2919 95.9631 27.2686 95.9321C27.2221 95.87 27.1833 95.8001 27.1367 95.738C27.0514 95.6061 26.966 95.4664 26.8884 95.3422C26.9893 95.4353 27.0902 95.544 27.191 95.6527C27.2454 95.707 27.2919 95.7613 27.3462 95.8157C27.4006 95.87 27.4549 95.9243 27.517 96.002C27.7653 96.2814 28.0679 96.5996 28.355 96.9644C27.9593 96.7238 27.6489 96.4366 27.4238 96.1494V96.1339ZM30.9624 71.8161L30.9158 71.8393L30.8693 71.8238H30.9624V71.8161ZM30.8693 71.6996L30.9081 71.6841L30.9469 71.6996H30.8693ZM30.7374 73.1433C30.7218 73.0036 30.4658 72.9415 30.9391 72.8018C31.0866 72.895 31.0788 72.9726 30.7374 73.1433ZM31.0866 70.287C30.8382 70.2792 30.877 70.2482 31.0245 70.2016C31.265 70.2094 31.2495 70.2404 31.0866 70.287ZM31.9479 21.9152L32.1186 21.8609L32.4523 21.7522C32.561 21.7211 32.6696 21.6901 32.7782 21.6513C32.5299 21.7289 32.2583 21.8143 31.9479 21.9074V21.9152ZM35.2459 43.2447L35.277 43.1361L35.3313 43.237H35.2459V43.2447ZM36.0607 47.1334C36.1073 47.5758 36.1538 48.0183 36.2159 48.6703C35.8279 48.0881 35.9831 47.6224 36.0607 47.1334ZM36.1306 45.5966C36.1228 45.5112 36.1461 45.7208 36.1694 45.9691C35.8357 45.7673 36.0762 45.5189 36.1306 45.5966ZM35.8667 39.1853C36.0142 40.6057 36.1771 42.2124 36.3401 43.8191C35.6339 42.9498 35.5486 40.2331 35.8667 39.1853ZM43.7431 126.832C43.7431 126.599 43.7819 126.63 43.8673 126.816C43.875 127.057 43.8285 127.01 43.7431 126.832ZM46.009 126.731V126.677L46.0401 126.754L46.009 126.731ZM46.1642 126.63L46.1332 126.537L46.1642 126.56V126.63ZM46.8782 125.435C46.8782 125.155 46.917 125.062 47.1575 125.272C47.0877 125.458 47.142 125.823 46.8782 125.435ZM53.6992 86.0357C53.4819 85.6787 53.5828 85.4614 54.2346 85.1975C53.9553 85.6399 53.8311 85.8262 53.6992 86.0357ZM56.3997 85.1276C56.1669 84.9491 56.291 84.8327 56.4307 84.5532C56.4152 84.8327 56.4074 84.9569 56.3997 85.1276Z" fill="#9ED8F0"/>
<path d="M62.2511 84.0253L62.3437 83.7148C62.1507 83.7692 62.1507 83.8856 62.2511 84.0253Z" fill="#9ED8F0"/>
</g>
<defs>
<clipPath id="clip0_42_357">
<rect width="194" height="158" fill="white" transform="translate(0 0.5)"/>
</clipPath>
</defs>
</svg>
