<svg width="20" height="21" viewBox="0 0 20 21" fill="none" xmlns="http://www.w3.org/2000/svg">
<path d="M18.75 2.375H16.875V4.875H15.625V2.375H4.375V4.875H3.125V2.375H1.25C1.08424 2.375 0.925268 2.44085 0.808058 2.55806C0.690848 2.67527 0.625 2.83424 0.625 3V6.125H19.375V3C19.375 2.83424 19.3092 2.67527 19.1919 2.55806C19.0747 2.44085 18.9158 2.375 18.75 2.375Z" fill="#E1897D"/>
<path d="M4.375 1.125H3.125V2.375H4.375V1.125Z" fill="#E1897D"/>
<path d="M16.875 1.125H15.625V2.375H16.875V1.125Z" fill="#E1897D"/>
<path d="M10.625 10.5H9.375V11.75H10.625V10.5Z" fill="#E1897D"/>
<path d="M10.625 15.5H9.375V16.75H10.625V15.5Z" fill="#E1897D"/>
<path d="M15.625 15.5H14.375V16.75H15.625V15.5Z" fill="#E1897D"/>
<path d="M5.625 15.5H4.375V16.75H5.625V15.5Z" fill="#E1897D"/>
<path d="M5.625 10.5H4.375V11.75H5.625V10.5Z" fill="#E1897D"/>
<path d="M15.625 10.5H14.375V11.75H15.625V10.5Z" fill="#E1897D"/>
<path d="M0.625 19.25C0.625 19.4158 0.690848 19.5747 0.808058 19.6919C0.925268 19.8092 1.08424 19.875 1.25 19.875H18.75C18.9158 19.875 19.0747 19.8092 19.1919 19.6919C19.3092 19.5747 19.375 19.4158 19.375 19.25V7.375H0.625V19.25ZM13.125 9.875C13.125 9.70924 13.1908 9.55027 13.3081 9.43306C13.4253 9.31585 13.5842 9.25 13.75 9.25H16.25C16.4158 9.25 16.5747 9.31585 16.6919 9.43306C16.8092 9.55027 16.875 9.70924 16.875 9.875V12.375C16.875 12.5408 16.8092 12.6997 16.6919 12.8169C16.5747 12.9342 16.4158 13 16.25 13H13.75C13.5842 13 13.4253 12.9342 13.3081 12.8169C13.1908 12.6997 13.125 12.5408 13.125 12.375V9.875ZM13.125 14.875C13.125 14.7092 13.1908 14.5503 13.3081 14.4331C13.4253 14.3158 13.5842 14.25 13.75 14.25H16.25C16.4158 14.25 16.5747 14.3158 16.6919 14.4331C16.8092 14.5503 16.875 14.7092 16.875 14.875V17.375C16.875 17.5408 16.8092 17.6997 16.6919 17.8169C16.5747 17.9342 16.4158 18 16.25 18H13.75C13.5842 18 13.4253 17.9342 13.3081 17.8169C13.1908 17.6997 13.125 17.5408 13.125 17.375V14.875ZM8.125 9.875C8.125 9.70924 8.19085 9.55027 8.30806 9.43306C8.42527 9.31585 8.58424 9.25 8.75 9.25H11.25C11.4158 9.25 11.5747 9.31585 11.6919 9.43306C11.8092 9.55027 11.875 9.70924 11.875 9.875V12.375C11.875 12.5408 11.8092 12.6997 11.6919 12.8169C11.5747 12.9342 11.4158 13 11.25 13H8.75C8.58424 13 8.42527 12.9342 8.30806 12.8169C8.19085 12.6997 8.125 12.5408 8.125 12.375V9.875ZM8.125 14.875C8.125 14.7092 8.19085 14.5503 8.30806 14.4331C8.42527 14.3158 8.58424 14.25 8.75 14.25H11.25C11.4158 14.25 11.5747 14.3158 11.6919 14.4331C11.8092 14.5503 11.875 14.7092 11.875 14.875V17.375C11.875 17.5408 11.8092 17.6997 11.6919 17.8169C11.5747 17.9342 11.4158 18 11.25 18H8.75C8.58424 18 8.42527 17.9342 8.30806 17.8169C8.19085 17.6997 8.125 17.5408 8.125 17.375V14.875ZM3.125 9.875C3.125 9.70924 3.19085 9.55027 3.30806 9.43306C3.42527 9.31585 3.58424 9.25 3.75 9.25H6.25C6.41576 9.25 6.57473 9.31585 6.69194 9.43306C6.80915 9.55027 6.875 9.70924 6.875 9.875V12.375C6.875 12.5408 6.80915 12.6997 6.69194 12.8169C6.57473 12.9342 6.41576 13 6.25 13H3.75C3.58424 13 3.42527 12.9342 3.30806 12.8169C3.19085 12.6997 3.125 12.5408 3.125 12.375V9.875ZM3.125 14.875C3.125 14.7092 3.19085 14.5503 3.30806 14.4331C3.42527 14.3158 3.58424 14.25 3.75 14.25H6.25C6.41576 14.25 6.57473 14.3158 6.69194 14.4331C6.80915 14.5503 6.875 14.7092 6.875 14.875V17.375C6.875 17.5408 6.80915 17.6997 6.69194 17.8169C6.57473 17.9342 6.41576 18 6.25 18H3.75C3.58424 18 3.42527 17.9342 3.30806 17.8169C3.19085 17.6997 3.125 17.5408 3.125 17.375V14.875Z" fill="#E1897D"/>
</svg>
