<svg width="58" height="59" viewBox="0 0 58 59" fill="none" xmlns="http://www.w3.org/2000/svg">
<path d="M28.9999 2.3125C24.3637 2.31266 19.8045 3.49842 15.7557 5.75709C11.7068 8.01577 8.30285 11.2723 5.86724 15.2172C3.43162 19.1622 2.04529 23.6644 1.84 28.2961C1.6347 32.9278 2.61726 37.535 4.69429 41.68L1.81242 54.4762C1.74455 54.7757 1.75385 55.0874 1.83945 55.3823C1.92505 55.6771 2.08414 55.9454 2.30179 56.1619C2.47544 56.3343 2.68219 56.4697 2.90958 56.56C3.13698 56.6504 3.38031 56.6937 3.62492 56.6875H4.02367L16.8199 53.8419C20.4873 55.6662 24.5195 56.6383 28.6153 56.6856C32.7112 56.7328 36.7647 55.854 40.4732 54.1147C44.1817 52.3755 47.4493 49.8207 50.0318 46.6413C52.6144 43.462 54.4451 39.7401 55.3874 35.7539C56.3296 31.7676 56.3589 27.62 55.4732 23.6208C54.5874 19.6216 52.8095 15.8743 50.2722 12.6587C47.7349 9.4431 44.5038 6.84239 40.8202 5.05083C37.1367 3.25928 33.096 2.32319 28.9999 2.3125ZM28.9999 53.0625C25.1369 53.0599 21.3339 52.1076 17.9255 50.2894C17.6583 50.1451 17.3592 50.0704 17.0555 50.0719C16.9293 50.0543 16.8012 50.0543 16.6749 50.0719L6.01742 52.4281L8.37367 41.7706C8.47076 41.3477 8.41288 40.9039 8.21054 40.52C5.80133 35.9668 4.95062 30.7496 5.78862 25.6669C6.62662 20.5843 9.10716 15.9163 12.8505 12.3775C16.5939 8.83871 21.3938 6.62417 26.5155 6.07286C31.6372 5.52155 36.7984 6.66385 41.2092 9.3249C45.6199 11.9859 49.037 16.0191 50.9375 20.807C52.838 25.5949 53.1171 30.8737 51.7321 35.8352C50.3471 40.7968 47.3743 45.1679 43.2687 48.2792C39.1632 51.3905 34.1512 53.0707 28.9999 53.0625Z" fill="#6493A6"/>
<path d="M29 23.1562C27.7453 23.1562 26.5188 23.5283 25.4756 24.2254C24.4324 24.9224 23.6193 25.9132 23.1391 27.0724C22.659 28.2315 22.5334 29.507 22.7781 30.7376C23.0229 31.9682 23.6271 33.0985 24.5143 33.9857C25.4015 34.8729 26.5318 35.4771 27.7624 35.7219C28.993 35.9666 30.2685 35.841 31.4277 35.3609C32.5868 34.8807 33.5776 34.0676 34.2746 33.0244C34.9717 31.9812 35.3438 30.7547 35.3438 29.5C35.3438 27.8175 34.6754 26.204 33.4857 25.0143C32.296 23.8246 30.6825 23.1562 29 23.1562ZM29 32.2188C28.4623 32.2188 27.9366 32.0593 27.4895 31.7606C27.0425 31.4618 26.694 31.0372 26.4882 30.5404C26.2824 30.0436 26.2286 29.497 26.3335 28.9696C26.4384 28.4422 26.6973 27.9578 27.0776 27.5776C27.4578 27.1973 27.9422 26.9384 28.4696 26.8335C28.997 26.7286 29.5436 26.7824 30.0404 26.9882C30.5372 27.194 30.9618 27.5424 31.2606 27.9895C31.5593 28.4366 31.7188 28.9623 31.7188 29.5C31.7188 30.2211 31.4323 30.9126 30.9224 31.4224C30.4126 31.9323 29.7211 32.2188 29 32.2188Z" fill="#97C3D5"/>
<path d="M14.5 23.1562C13.2453 23.1562 12.0188 23.5283 10.9756 24.2254C9.93238 24.9224 9.11929 25.9132 8.63914 27.0724C8.159 28.2315 8.03337 29.507 8.27815 30.7376C8.52292 31.9682 9.1271 33.0985 10.0143 33.9857C10.9015 34.8729 12.0318 35.4771 13.2624 35.7219C14.493 35.9666 15.7685 35.841 16.9277 35.3609C18.0868 34.8807 19.0776 34.0676 19.7746 33.0244C20.4717 31.9812 20.8438 30.7547 20.8438 29.5C20.8438 27.8175 20.1754 26.204 18.9857 25.0143C17.796 23.8246 16.1825 23.1562 14.5 23.1562ZM14.5 32.2188C13.9623 32.2188 13.4366 32.0593 12.9895 31.7606C12.5424 31.4618 12.194 31.0372 11.9882 30.5404C11.7824 30.0436 11.7286 29.497 11.8335 28.9696C11.9384 28.4422 12.1973 27.9578 12.5776 27.5776C12.9578 27.1973 13.4422 26.9384 13.9696 26.8335C14.497 26.7286 15.0436 26.7824 15.5404 26.9882C16.0372 27.194 16.4618 27.5424 16.7606 27.9895C17.0593 28.4366 17.2188 28.9623 17.2188 29.5C17.2188 30.2211 16.9323 30.9126 16.4224 31.4224C15.9126 31.9323 15.2211 32.2188 14.5 32.2188Z" fill="#97C3D5"/>
<path d="M43.5 23.1562C42.2453 23.1562 41.0188 23.5283 39.9756 24.2254C38.9324 24.9224 38.1193 25.9132 37.6391 27.0724C37.159 28.2315 37.0334 29.507 37.2781 30.7376C37.5229 31.9682 38.1271 33.0985 39.0143 33.9857C39.9015 34.8729 41.0318 35.4771 42.2624 35.7219C43.493 35.9666 44.7685 35.841 45.9277 35.3609C47.0868 34.8807 48.0776 34.0676 48.7746 33.0244C49.4717 31.9812 49.8438 30.7547 49.8438 29.5C49.8438 27.8175 49.1754 26.204 47.9857 25.0143C46.796 23.8246 45.1825 23.1562 43.5 23.1562ZM43.5 32.2188C42.9623 32.2188 42.4366 32.0593 41.9895 31.7606C41.5425 31.4618 41.194 31.0372 40.9882 30.5404C40.7824 30.0436 40.7286 29.497 40.8335 28.9696C40.9384 28.4422 41.1973 27.9578 41.5776 27.5776C41.9578 27.1973 42.4422 26.9384 42.9696 26.8335C43.497 26.7286 44.0436 26.7824 44.5404 26.9882C45.0372 27.194 45.4618 27.5424 45.7606 27.9895C46.0593 28.4366 46.2188 28.9623 46.2188 29.5C46.2188 30.2211 45.9323 30.9126 45.4224 31.4224C44.9126 31.9323 44.2211 32.2188 43.5 32.2188Z" fill="#97C3D5"/>
</svg>
