<svg width="47" height="47" viewBox="0 0 47 47" fill="none" xmlns="http://www.w3.org/2000/svg">
<path opacity="0.3" d="M38.5467 8.94274C36.3479 7.48961 34.4359 8.31178 34.0726 8.48386C33.4416 8.78978 33.0019 9.22954 32.6577 9.70755C32.3135 9.24866 31.8738 8.8089 31.2428 8.48386C30.8795 8.31178 28.9675 7.48961 26.7687 8.94274C26.4819 9.13394 26.3098 9.45899 26.3481 9.80315C26.3481 10.09 26.5966 12.5947 28.719 13.6272C28.9102 13.7228 29.5985 14.0287 30.5354 14.0287C30.8987 14.0287 31.3002 13.9713 31.7208 13.8566V17.1644H33.6328V13.8566C34.0535 13.9713 34.455 14.0287 34.8183 14.0287C35.7552 14.0287 36.4244 13.7419 36.6347 13.6272C38.757 12.5756 38.9865 10.0708 39.0056 9.80315C39.0247 9.45899 38.8718 9.13394 38.585 8.94274H38.5467ZM29.5411 11.9255C28.7954 11.5622 28.4704 10.7974 28.3366 10.262C29.4455 9.78403 30.2868 10.1664 30.3824 10.2238C31.1281 10.5871 31.4531 11.3519 31.587 11.8872C30.478 12.3652 29.6367 11.9828 29.522 11.9255H29.5411ZM35.7743 11.9255C35.6787 11.9828 34.8183 12.3652 33.7284 11.8872C33.8623 11.3519 34.1873 10.5871 34.933 10.2238C35.0286 10.1664 35.889 9.78403 36.9789 10.262C36.845 10.7974 36.52 11.5622 35.7743 11.9255Z" fill="#6493A6"/>
<path opacity="0.3" d="M19.5221 6.20844C18.5087 6.70556 17.8204 7.41301 17.3615 8.10133C16.9026 7.41301 16.2143 6.70556 15.2009 6.20844C14.7803 5.99812 12.505 5.00387 10.0767 6.22756C9.69434 6.41876 9.48402 6.8394 9.5605 7.26005C9.6561 7.73805 10.2297 10.1472 12.658 11.3518C12.9256 11.4856 13.939 11.9254 15.2392 11.9254C15.6025 11.9254 15.9849 11.8871 16.3864 11.8106V17.1643H18.2984V11.8106C18.6999 11.8871 19.0823 11.9254 19.4456 11.9254C20.7649 11.9254 21.7591 11.4856 22.0459 11.3518C24.4742 10.1472 25.0478 7.73805 25.1434 7.26005C25.2199 6.8394 25.0096 6.41876 24.6272 6.22756C22.1798 4.98475 19.9236 5.979 19.503 6.20844H19.5221ZM13.5184 9.63094C12.4859 9.1147 11.9505 8.27341 11.6828 7.64245C13.0404 7.29829 14.2067 7.83365 14.3597 7.91013C15.3921 8.40726 15.9275 9.26766 16.1952 9.87951C14.8377 10.2237 13.6713 9.6883 13.5184 9.61182V9.63094ZM21.2238 9.63094C21.0708 9.70742 19.9045 10.2428 18.547 9.89863C18.8146 9.28678 19.35 8.42638 20.3825 7.92925C20.5355 7.85277 21.6827 7.31741 23.0593 7.66157C22.7916 8.27341 22.2563 9.13382 21.2429 9.63094H21.2238Z" fill="#6493A6"/>
<path d="M37.3995 18.0436C37.3613 17.5465 36.9406 17.1641 36.4435 17.1641H12.5816C12.333 17.1641 12.0845 17.2597 11.9124 17.4509L10.9564 18.4069C10.7843 18.579 10.6696 18.8275 10.6696 19.0761V21.3705C10.6696 21.5617 10.6122 21.7338 10.5166 21.9059L7.61035 26.2652C7.30443 26.7241 7.20883 27.2786 7.36179 27.814C7.51475 28.3493 7.85892 28.7891 8.35604 29.0377L10.1533 29.9363C10.4784 30.0893 10.6887 30.4334 10.6887 30.7967V31.5233C10.6887 34.1619 12.8302 36.3033 15.4687 36.3033H19.2928C19.8281 36.3033 20.2488 36.724 20.2488 37.2593V41.0834C20.2488 41.6187 20.6694 42.0394 21.2048 42.0394H31.3576C31.9694 42.0394 32.543 41.7334 32.9063 41.2363C33.2696 40.7392 33.3652 40.0891 33.174 39.5155L32.9445 38.7889C32.218 36.6092 32.39 34.2766 33.4034 32.2116L35.239 28.5597C36.7112 25.6343 37.476 22.3456 37.476 19.0761C37.476 18.7319 37.476 18.3878 37.4378 18.0436H37.3995ZM33.4799 27.6993L31.6444 31.3512C30.3824 33.8559 30.1912 36.724 31.0708 39.3817L31.3193 40.1082H22.1225V37.2402C22.1225 35.6532 20.8415 34.3722 19.2545 34.3722H15.4305C13.8435 34.3722 12.5625 33.0911 12.5625 31.5042V30.7776C12.5625 29.6878 11.9506 28.6935 10.9755 28.2155L9.1782 27.3169L12.0845 22.9575C12.4095 22.4795 12.5625 21.925 12.5625 21.3705V19.4776L12.964 19.0761H35.5066C35.5066 22.0588 34.7992 25.0416 33.4608 27.6993H33.4799Z" fill="#6493A6"/>
<path d="M20.3066 21.1409C19.8477 20.8733 19.2741 21.0262 19.0064 21.4851C18.7005 22.0014 18.146 22.3264 17.5724 22.2882C16.7502 22.2499 16.3104 21.5042 16.2913 21.4851C16.0236 21.0262 15.45 20.8733 14.9912 21.1218C14.5323 21.3895 14.3602 21.9631 14.6279 22.422C14.7235 22.5941 15.6221 24.1046 17.4768 24.2002C17.5341 24.2002 17.5915 24.2002 17.668 24.2002C18.9108 24.2002 20.0389 23.531 20.6698 22.4411C20.9375 21.9822 20.7846 21.4086 20.3257 21.1409H20.3066Z" fill="#6493A6"/>
</svg>
