<svg width="97" height="97" viewBox="0 0 97 97" fill="none" xmlns="http://www.w3.org/2000/svg">
<path d="M32.4513 46.3402C30.8913 44.2602 28.2913 43.3402 25.8513 43.8602L23.5713 30.2202C23.2113 28.1402 21.9713 26.4202 20.0913 25.4602C18.2113 24.5002 16.0913 24.5002 14.2113 25.4602C11.9713 26.5802 10.6113 28.8202 10.6113 31.3002V49.1402C10.6113 51.7002 11.3313 54.2202 12.6513 56.4202L17.8113 64.8602C18.4113 65.8202 18.6913 66.9002 18.6913 68.0602V72.4602C18.6513 74.0602 19.2513 75.5802 20.3713 76.7402C21.4913 77.9002 23.0113 78.5002 24.6513 78.5002H36.6113C39.9313 78.5002 42.6113 75.8202 42.6113 72.5002V64.5002C42.6113 61.5002 41.6113 58.5002 39.8113 56.1002L32.4913 46.3402H32.4513ZM38.5713 72.5002C38.5713 73.6202 37.6913 74.5002 36.5713 74.5002H24.6113C24.0913 74.5002 23.5713 74.3002 23.1713 73.9002C22.8113 73.5002 22.5713 73.0202 22.6113 72.4602V68.0602C22.6513 66.1802 22.1713 64.3402 21.1713 62.7402L16.0113 54.3002C15.0513 52.7402 14.5313 50.9402 14.5313 49.1002V31.2602C14.5313 30.3002 15.0513 29.4202 15.9313 28.9802C16.2913 28.7802 16.6913 28.7002 17.0513 28.7002C17.4113 28.7002 17.8513 28.7802 18.2113 28.9802C18.9313 29.3402 19.4113 30.0202 19.5713 30.8202L22.0913 46.0602C21.4913 46.7802 21.0513 47.6202 20.8113 48.5402C20.3313 50.3402 20.6513 52.3002 21.6913 53.8602L26.8513 61.5802C27.4513 62.5002 28.6913 62.7402 29.6113 62.1402C30.5313 61.5402 30.7713 60.3002 30.1713 59.3802L25.0113 51.6602C24.6113 51.0602 24.4913 50.3002 24.6913 49.6202C24.8913 48.9402 25.3313 48.3402 26.0113 47.9802C27.0913 47.4202 28.4513 47.7402 29.1713 48.7402L36.4913 58.5002C37.7713 60.2202 38.4913 62.3402 38.4913 64.5002V72.5002H38.5713Z" fill="#64568E"/>
<path d="M82.9713 25.4605C81.0913 24.5405 78.9713 24.5405 77.0913 25.4605C75.2113 26.4205 73.9713 28.1405 73.6113 30.2205L71.3313 43.8605C68.8513 43.3405 66.2913 44.2605 64.7313 46.3405L57.4113 56.1005C55.6113 58.5005 54.6113 61.5005 54.6113 64.5005V72.5005C54.6113 75.8205 57.2913 78.5005 60.6113 78.5005H72.5713C74.1713 78.5005 75.6913 77.8605 76.8513 76.7405C77.9713 75.5805 78.6113 74.0605 78.5713 72.4605V68.0605C78.5313 66.9405 78.8113 65.8205 79.4113 64.8605L84.5713 56.4205C85.8913 54.2205 86.6113 51.7005 86.6113 49.1405V31.3005C86.6113 28.8205 85.2113 26.5805 83.0113 25.4605H82.9713ZM82.5713 49.1405C82.5713 50.9805 82.0513 52.7805 81.0913 54.3405L75.9313 62.7805C74.9713 64.3805 74.4513 66.2205 74.4513 68.1005V72.5005C74.4913 73.0205 74.2913 73.5405 73.9313 73.9405C73.5713 74.3405 73.0513 74.5405 72.4913 74.5405H60.5313C59.4113 74.5405 58.5313 73.6605 58.5313 72.5405V64.5405C58.5313 62.3805 59.2513 60.2605 60.5313 58.5405L67.8513 48.7805C68.3313 48.1405 69.0913 47.7805 69.8913 47.7805C70.2913 47.7805 70.6913 47.8605 71.0513 48.0605C71.7313 48.3805 72.1713 48.9805 72.3713 49.6605C72.5713 50.3805 72.4513 51.1005 72.0113 51.7005L66.8513 59.4205C66.2513 60.3405 66.4913 61.5805 67.4113 62.1805C68.3313 62.7805 69.5713 62.5405 70.1713 61.6205L75.3313 53.9005C76.3713 52.3405 76.6913 50.4205 76.2113 48.5805C75.9713 47.6605 75.5313 46.8205 74.9313 46.1005L77.4513 30.8605C77.5713 30.0605 78.0913 29.3805 78.8113 29.0205C79.5313 28.6605 80.3713 28.6605 81.0913 29.0205C81.9713 29.4605 82.4913 30.3405 82.4913 31.3005V49.1405H82.5713Z" fill="#64568E"/>
<path opacity="0.3" d="M64.5713 18.5H62.5713C60.3713 18.5 58.5713 20.3 58.5713 22.5V24.5C58.5713 29.34 55.1313 33.38 50.5713 34.3V22.5H52.5713C53.6913 22.5 54.5713 21.62 54.5713 20.5C54.5713 19.38 53.6913 18.5 52.5713 18.5H44.5713C43.4513 18.5 42.5713 19.38 42.5713 20.5C42.5713 21.62 43.4513 22.5 44.5713 22.5H46.5713V34.3C42.0113 33.38 38.5713 29.34 38.5713 24.5V22.5C38.5713 20.3 36.7713 18.5 34.5713 18.5H32.5713C31.4513 18.5 30.5713 19.38 30.5713 20.5C30.5713 21.62 31.4513 22.5 32.5713 22.5H34.5713V24.5C34.5713 31.54 39.8113 37.3 46.5713 38.3V46.5H44.5713C43.4513 46.5 42.5713 47.38 42.5713 48.5C42.5713 49.62 43.4513 50.5 44.5713 50.5H52.5713C53.6913 50.5 54.5713 49.62 54.5713 48.5C54.5713 47.38 53.6913 46.5 52.5713 46.5H50.5713V38.3C57.3313 37.3 62.5713 31.54 62.5713 24.5V22.5H64.5713C65.6913 22.5 66.5713 21.62 66.5713 20.5C66.5713 19.38 65.6913 18.5 64.5713 18.5Z" fill="#64568E"/>
</svg>
