<svg width="20" height="21" viewBox="0 0 20 21" fill="none" xmlns="http://www.w3.org/2000/svg">
<path d="M17.4998 3.625H2.4998C2.11467 3.62646 1.73933 3.74648 1.4248 3.96875L8.34355 11.2438C8.5572 11.468 8.81416 11.6466 9.09886 11.7685C9.38356 11.8905 9.69007 11.9534 9.9998 11.9534C10.3095 11.9534 10.6161 11.8905 10.9008 11.7685C11.1855 11.6466 11.4424 11.468 11.6561 11.2438L18.5748 3.96875C18.2603 3.74648 17.8849 3.62646 17.4998 3.625Z" fill="#42356A"/>
<path d="M14.2375 10.3436L16.925 13.1936C16.9836 13.2517 17.0301 13.3208 17.0618 13.3969C17.0935 13.4731 17.1099 13.5548 17.1099 13.6373C17.1099 13.7198 17.0935 13.8015 17.0618 13.8777C17.0301 13.9538 16.9836 14.023 16.925 14.0811C16.8082 14.1904 16.6538 14.2508 16.4937 14.2498C16.4085 14.2503 16.3241 14.2334 16.2456 14.2001C16.1671 14.1668 16.0963 14.1178 16.0375 14.0561L13.375 11.2498L12.5625 12.1061C12.2321 12.4532 11.8346 12.7297 11.3941 12.9185C10.9536 13.1074 10.4793 13.2048 10 13.2048C9.52072 13.2048 9.04643 13.1074 8.60594 12.9185C8.16544 12.7297 7.76792 12.4532 7.4375 12.1061L6.625 11.2498L3.9875 14.0561C3.92868 14.1178 3.85787 14.1668 3.7794 14.2001C3.70094 14.2334 3.61649 14.2503 3.53125 14.2498C3.37986 14.2446 3.23549 14.1847 3.125 14.0811C3.06642 14.023 3.01992 13.9538 2.98819 13.8777C2.95646 13.8015 2.94013 13.7198 2.94013 13.6373C2.94013 13.5548 2.95646 13.4731 2.98819 13.3969C3.01992 13.3208 3.06642 13.2517 3.125 13.1936L5.8125 10.3436L0.69375 5.01855C0.651651 5.17564 0.628569 5.33721 0.625 5.4998V15.4998C0.625 15.9971 0.822544 16.474 1.17417 16.8256C1.52581 17.1773 2.00272 17.3748 2.5 17.3748H17.5C17.9973 17.3748 18.4742 17.1773 18.8258 16.8256C19.1775 16.474 19.375 15.9971 19.375 15.4998V5.4998C19.3714 5.33721 19.3483 5.17564 19.3062 5.01855L14.2375 10.3436Z" fill="#42356A"/>
</svg>
