<svg width="97" height="97" viewBox="0 0 97 97" fill="none" xmlns="http://www.w3.org/2000/svg">
<path d="M82.4419 40.8203C81.6019 40.1003 80.3619 40.1803 79.6019 41.0203C78.8819 41.8603 78.9619 43.1003 79.8019 43.8603C83.2019 46.7803 82.2819 49.5403 80.9219 51.3003C79.7219 52.8603 76.5219 53.5403 73.6019 52.1403C71.4419 51.1003 68.8819 51.7803 67.5619 53.7403C66.5219 55.3003 64.6819 57.3803 61.7219 58.6603C59.5619 59.5803 57.2019 59.9003 54.8019 59.5803C51.7219 59.1803 48.8019 60.2203 46.9619 62.4203C44.8019 64.9803 41.7219 66.5003 38.5219 66.5003H38.4419C34.4419 66.5003 29.7219 64.2603 28.4419 59.9403C27.2819 56.0203 29.3619 52.0603 31.8019 50.0603C34.4019 47.9003 38.1219 47.2603 41.6819 48.3403C45.2819 49.4203 49.0819 47.8203 50.7619 44.5003C51.2419 43.5003 50.8419 42.3003 49.8819 41.8203C48.8819 41.3403 47.6819 41.7403 47.2019 42.7003C46.4419 44.2603 44.6019 45.0203 42.8419 44.5003C37.9619 43.0603 32.8819 43.9403 29.2419 46.9403C26.0019 49.6203 23.4019 54.5003 24.3219 59.7003C21.8019 61.5403 18.2019 61.3403 15.9219 59.0603C13.8419 56.9803 13.4419 53.6203 15.0019 51.0603C15.9619 49.5003 16.1219 47.5803 15.4019 45.9003C14.2019 43.0603 14.4819 39.9403 16.1219 37.6603C17.4819 35.8203 19.4419 35.0203 20.8419 34.7003C22.8019 34.2603 24.2419 32.6603 24.5219 30.6603C24.8019 28.7803 25.8819 27.1003 27.4819 26.1803C28.4819 25.6203 29.6019 25.3803 30.7619 25.4603C33.4019 25.6203 35.9619 24.1803 37.6419 21.5803C38.8019 19.7803 40.6819 18.5803 42.6419 18.4203C43.7219 18.3403 44.5619 17.3803 44.4819 16.2603C44.4019 15.1803 43.4419 14.3403 42.3219 14.4203C39.1219 14.7003 36.1219 16.5403 34.2819 19.3803C33.9619 19.9003 32.7219 21.5003 31.0419 21.4203C29.0419 21.3003 27.1619 21.7003 25.4819 22.6603C22.8019 24.1803 20.9619 26.9403 20.5219 30.0603C20.4819 30.4203 20.2419 30.6603 19.8819 30.7403C17.8419 31.2203 14.9619 32.3803 12.8819 35.2203C10.3619 38.6203 9.92191 43.3003 11.6819 47.4203C11.8819 47.9003 11.8419 48.4603 11.5619 48.9003C9.0419 52.9803 9.6819 58.4203 13.0819 61.8203C15.1219 63.8603 17.8019 64.9003 20.4819 64.9003C22.2819 64.9003 24.0419 64.4203 25.6419 63.5003C28.3219 68.2203 33.8019 70.4203 38.4019 70.4203H38.4819C39.9619 70.4203 41.3619 70.1003 42.7619 69.6603L49.0419 71.9803C50.4019 72.5003 51.4819 73.4203 52.1219 74.5803C52.9219 76.1003 53.9219 77.5003 55.0019 78.8203C56.4819 80.5803 58.2419 82.1403 60.2019 83.4603C61.2819 84.1803 62.4819 84.5403 63.7219 84.5403C64.5619 84.5403 65.4019 84.3803 66.1619 84.0603C68.1619 83.2203 69.5619 81.5003 70.0019 79.3803C70.2019 78.3803 70.3619 77.3003 70.4819 76.1803C70.6819 74.3803 70.6819 72.5403 70.6019 70.7003C74.2819 70.3803 77.8019 68.6603 80.0819 65.6203C83.0819 61.7003 82.9219 57.3803 82.5619 55.0603C83.1219 54.6603 83.6819 54.1803 84.1219 53.6203C86.6819 50.3003 87.5619 45.1403 82.4419 40.7003V40.8203ZM66.5219 75.8203C66.4019 76.8203 66.2819 77.7803 66.0819 78.6603C65.9219 79.4603 65.4019 80.1003 64.6419 80.4203C63.8819 80.7403 63.0819 80.6603 62.4019 80.2203C60.7619 79.1403 59.3219 77.8203 58.0419 76.3403C57.1219 75.2603 56.3219 74.0603 55.6419 72.7803C54.5619 70.7403 52.7219 69.1803 50.4419 68.3403L47.6419 67.3003C48.4819 66.6203 49.2819 65.8603 50.0019 65.0203C50.9619 63.9003 52.5219 63.3803 54.2819 63.5803C55.4419 63.7403 56.6019 63.7403 57.7219 63.6603C58.6819 65.4203 61.1619 69.1003 66.0019 70.4603C66.2019 70.5003 66.4019 70.5403 66.6019 70.5803C66.7219 72.3403 66.7219 74.1003 66.5219 75.8603V75.8203ZM76.9619 63.3003C74.6819 66.2603 70.7219 67.5803 67.0819 66.5803C64.5219 65.8603 62.8819 64.1403 61.9219 62.8203C62.4019 62.6603 62.8419 62.5403 63.3219 62.3403C67.2019 60.7003 69.6019 57.9403 70.9219 55.9803C71.1619 55.5803 71.6019 55.6203 71.8819 55.7803C74.0819 56.8203 76.5219 57.1403 78.7619 56.7803C78.8819 58.5003 78.6819 61.0603 76.9619 63.3403V63.3003Z" fill="#64568E"/>
<path opacity="0.3" d="M52.6416 37.86C56.0816 41.62 60.5216 44.58 65.4416 46.38C65.6816 46.46 65.8816 46.5 66.1216 46.5C66.3616 46.5 66.6016 46.46 66.8016 46.38C71.7216 44.58 76.1216 41.62 79.6016 37.86C81.9616 35.3 83.8416 32.38 85.2816 29.14C86.6816 25.98 86.3616 22.34 84.4416 19.38C82.4416 16.34 79.0816 14.5 75.4816 14.5C71.5616 14.5 68.0016 16.62 66.1616 20.06C64.3216 16.62 60.7616 14.5 56.8416 14.5C53.2016 14.5 49.8816 16.34 47.8816 19.38C45.9616 22.3 45.6416 25.98 47.0416 29.14C48.4416 32.38 50.3616 35.3 52.7216 37.86H52.6416ZM51.1616 21.54C52.4016 19.62 54.5216 18.5 56.8016 18.5C59.3216 18.5 61.6016 19.9 62.7216 22.14L64.3616 25.38C65.0416 26.74 67.2416 26.74 67.9216 25.38L69.5616 22.14C70.6816 19.9 72.9616 18.5 75.4816 18.5C77.7616 18.5 79.8416 19.66 81.1216 21.54C82.3216 23.38 82.5216 25.54 81.6416 27.5C80.4016 30.34 78.7216 32.9 76.6816 35.14C73.8416 38.26 70.2016 40.74 66.1616 42.34C62.1216 40.74 58.4816 38.26 55.6416 35.14C53.6016 32.9 51.9216 30.34 50.6816 27.5C49.8416 25.54 50.0016 23.38 51.2016 21.54H51.1616Z" fill="#64568E"/>
</svg>
