<svg width="56" height="56" viewBox="0 0 56 56" fill="none" xmlns="http://www.w3.org/2000/svg">
<path d="M24.3583 43.9496C24.3575 44.8319 24.5795 45.7002 25.0038 46.4738H8.92642C7.95441 46.4715 7.02286 46.0844 6.33555 45.3971C5.64823 44.7097 5.26108 43.7782 5.25879 42.8062V37.3062C5.26566 34.8769 6.23374 32.5491 7.95152 30.8313C9.6693 29.1135 11.9971 28.1454 14.4264 28.1385H30.2838C30.6195 29.2614 31.1668 30.3098 31.8962 31.2272C29.7886 31.5894 27.8766 32.6843 26.4975 34.3187C25.1184 35.953 24.3608 38.0219 24.3583 40.1604V43.9496ZM22.6764 25.3885C20.8237 25.3885 19.0126 24.8392 17.4722 23.8099C15.9317 22.7806 14.7311 21.3176 14.0221 19.6059C13.3131 17.8943 13.1276 16.0108 13.489 14.1937C13.8505 12.3766 14.7426 10.7075 16.0527 9.39745C17.3627 8.0874 19.0318 7.19525 20.8489 6.8338C22.666 6.47236 24.5495 6.65787 26.2612 7.36686C27.9728 8.07586 29.4358 9.27649 30.4651 10.8169C31.4944 12.3574 32.0438 14.1685 32.0438 16.0212C32.0438 18.5056 31.0569 20.8882 29.3002 22.6449C27.5434 24.4016 25.1608 25.3885 22.6764 25.3885ZM51.094 43.9496C51.0918 44.6184 50.8251 45.2591 50.3522 45.732C49.8793 46.2048 49.2386 46.4715 48.5698 46.4738H29.6325C28.9637 46.4715 28.323 46.2048 27.8501 45.732C27.3772 45.2591 27.1105 44.6184 27.1083 43.9496V40.1604C27.1136 38.4884 27.7802 36.8864 28.9625 35.7041C30.1448 34.5218 31.7468 33.8552 33.4188 33.8499H44.7806C46.4526 33.8552 48.0546 34.5218 49.2369 35.7041C50.4192 36.8864 51.0858 38.4884 51.0912 40.1604L51.094 43.9496ZM45.5506 25.5043C45.5506 26.7799 45.1724 28.0269 44.4637 29.0875C43.755 30.1481 42.7477 30.9747 41.5693 31.4629C40.3908 31.951 39.094 32.0787 37.8429 31.8299C36.5918 31.581 35.4427 30.9668 34.5407 30.0648C33.6387 29.1628 33.0245 28.0136 32.7756 26.7626C32.5268 25.5115 32.6545 24.2147 33.1426 23.0362C33.6308 21.8577 34.4574 20.8505 35.518 20.1418C36.5786 19.4331 37.8256 19.0549 39.1012 19.0549C40.8117 19.0549 42.4521 19.7344 43.6616 20.9439C44.8711 22.1534 45.5506 23.7938 45.5506 25.5043Z" fill="#584592"/>
</svg>
