<svg width="97" height="97" viewBox="0 0 97 97" fill="none" xmlns="http://www.w3.org/2000/svg">
<path d="M72.7318 56.0545C71.7318 55.5745 70.5318 55.9745 70.0518 56.9345L66.2118 64.5745C63.5718 69.8145 63.1718 75.8145 65.0118 81.3745L65.5318 82.8945H46.2918V76.8945C46.2918 73.5745 43.6118 70.8945 40.2918 70.8945H32.2918C28.9718 70.8945 26.2918 68.2145 26.2918 64.8945V63.3745C26.2918 61.0945 25.0118 59.0145 22.9718 58.0145L19.2118 56.1345L25.2918 47.0145C25.9718 46.0145 26.2918 44.8545 26.2918 43.6945V38.8945C26.2918 25.6545 37.0518 14.8945 50.2918 14.8945C54.8518 14.8945 59.2518 16.1745 63.0918 18.5745C64.0118 19.1745 65.2518 18.8945 65.8518 17.9345C66.4518 17.0145 66.1718 15.7745 65.2118 15.1745C60.7318 12.3745 55.5718 10.8545 50.2918 10.8545C34.8518 10.8545 22.2918 23.4145 22.2918 38.8545V43.6545C22.2918 44.0545 22.1718 44.4145 21.9718 44.7745L15.8918 53.8945C15.2518 54.8545 15.0518 56.0145 15.3718 57.1345C15.6918 58.2545 16.4118 59.1745 17.4518 59.6945L21.2118 61.5745C21.8918 61.8945 22.3318 62.6145 22.3318 63.3745V64.8945C22.3318 70.4145 26.8118 74.8945 32.3318 74.8945H40.3318C41.4518 74.8945 42.3318 75.7745 42.3318 76.8945V84.8945C42.3318 86.0145 43.2118 86.8945 44.3318 86.8945H65.5718C66.8518 86.8945 68.0518 86.2545 68.8118 85.2145C69.5718 84.1745 69.7718 82.8145 69.3718 81.6145L68.8918 80.0945C67.3718 75.5345 67.7318 70.6545 69.8518 66.3345L73.6918 58.6945C74.1718 57.6945 73.7718 56.4945 72.8118 56.0145L72.7318 56.0545Z" fill="#8D9CDF"/>
<path opacity="0.3" d="M80.5715 27.7745C78.5715 24.7345 75.2115 22.8945 71.6115 22.8945C67.6915 22.8945 64.1315 25.0145 62.2915 28.4545C60.4515 25.0145 56.8915 22.8945 52.9715 22.8945C49.3315 22.8945 45.9715 24.7345 44.0115 27.7745C42.0915 30.6945 41.7715 34.3745 43.1715 37.5345C44.5715 40.7745 46.4915 43.6945 48.8515 46.2545C52.2915 50.0145 56.7315 52.9745 61.6515 54.7745C61.8915 54.8545 62.0915 54.8945 62.3315 54.8945C62.5715 54.8945 62.8115 54.8545 63.0115 54.7745C67.9315 52.9745 72.3315 50.0145 75.8115 46.2545C78.1315 43.6945 80.0515 40.7745 81.4915 37.5345C82.8915 34.3745 82.5715 30.6945 80.6515 27.7745H80.5715ZM77.7715 35.8945C76.5315 38.7345 74.8515 41.2945 72.8115 43.5345C69.9715 46.6545 66.3315 49.1345 62.2915 50.7345C58.2515 49.1345 54.6115 46.6545 51.7715 43.5345C49.7315 41.2945 48.0515 38.7345 46.8115 35.8945C45.9715 33.9345 46.1315 31.7745 47.3315 29.9345C48.5715 28.0145 50.6915 26.8945 52.9715 26.8945C55.4915 26.8945 57.7715 28.2945 58.8915 30.5345L60.5315 33.7745C61.2115 35.1345 63.4115 35.1345 64.0915 33.7745L65.7315 30.5345C66.8515 28.2945 69.1315 26.8945 71.6515 26.8945C73.9315 26.8945 76.0115 28.0545 77.2915 29.9345C78.4915 31.7745 78.6915 33.9345 77.8115 35.8945H77.7715Z" fill="#8D9CDF"/>
</svg>
