<svg width="97" height="97" viewBox="0 0 97 97" fill="none" xmlns="http://www.w3.org/2000/svg">
<path opacity="0.3" d="M80.3328 17.6943C75.7328 14.6543 71.7328 16.3743 70.9728 16.7343C69.6528 17.3743 68.7328 18.2943 68.0128 19.2943C67.2928 18.3343 66.3728 17.4143 65.0528 16.7343C64.2928 16.3743 60.2928 14.6543 55.6928 17.6943C55.0928 18.0943 54.7328 18.7743 54.8128 19.4943C54.8128 20.0943 55.3328 25.3343 59.7728 27.4943C60.1728 27.6943 61.6128 28.3343 63.5728 28.3343C64.3328 28.3343 65.1728 28.2143 66.0528 27.9743V34.8943H70.0528V27.9743C70.9328 28.2143 71.7728 28.3343 72.5328 28.3343C74.4928 28.3343 75.8928 27.7343 76.3328 27.4943C80.7728 25.2943 81.2528 20.0543 81.2928 19.4943C81.3328 18.7743 81.0128 18.0943 80.4128 17.6943H80.3328ZM61.4928 23.9343C59.9328 23.1743 59.2528 21.5743 58.9728 20.4543C61.2928 19.4543 63.0528 20.2543 63.2528 20.3743C64.8128 21.1343 65.4928 22.7343 65.7728 23.8543C63.4528 24.8543 61.6928 24.0543 61.4528 23.9343H61.4928ZM74.5328 23.9343C74.3328 24.0543 72.5328 24.8543 70.2528 23.8543C70.5328 22.7343 71.2128 21.1343 72.7728 20.3743C72.9728 20.2543 74.7728 19.4543 77.0528 20.4543C76.7728 21.5743 76.0928 23.1743 74.5328 23.9343Z" fill="#8D9CDF"/>
<path opacity="0.3" d="M40.5327 11.9745C38.4128 13.0145 36.9727 14.4945 36.0127 15.9345C35.0527 14.4945 33.6127 13.0145 31.4927 11.9745C30.6127 11.5345 25.8527 9.45445 20.7727 12.0145C19.9727 12.4145 19.5327 13.2945 19.6927 14.1745C19.8927 15.1745 21.0927 20.2145 26.1727 22.7345C26.7327 23.0145 28.8527 23.9345 31.5727 23.9345C32.3327 23.9345 33.1327 23.8544 33.9727 23.6944V34.8945H37.9727V23.6944C38.8127 23.8544 39.6127 23.9345 40.3727 23.9345C43.1327 23.9345 45.2127 23.0145 45.8127 22.7345C50.8927 20.2145 52.0927 15.1745 52.2927 14.1745C52.4527 13.2945 52.0127 12.4145 51.2127 12.0145C46.0928 9.41445 41.3727 11.4945 40.4927 11.9745H40.5327ZM27.9727 19.1344C25.8127 18.0545 24.6927 16.2945 24.1327 14.9745C26.9727 14.2545 29.4127 15.3745 29.7327 15.5345C31.8927 16.5745 33.0127 18.3745 33.5728 19.6545C30.7327 20.3745 28.2927 19.2545 27.9727 19.0945V19.1344ZM44.0928 19.1344C43.7728 19.2944 41.3327 20.4144 38.4927 19.6944C39.0527 18.4144 40.1727 16.6145 42.3327 15.5745C42.6527 15.4145 45.0527 14.2945 47.9327 15.0145C47.3727 16.2945 46.2527 18.0944 44.1327 19.1344H44.0928Z" fill="#8D9CDF"/>
<path d="M77.9325 36.7345C77.8525 35.6945 76.9725 34.8945 75.9325 34.8945H26.0125C25.4925 34.8945 24.9725 35.0945 24.6125 35.4945L22.6125 37.4945C22.2525 37.8545 22.0125 38.3745 22.0125 38.8945V43.6945C22.0125 44.0945 21.8925 44.4545 21.6925 44.8145L15.6125 53.9345C14.9725 54.8945 14.7725 56.0545 15.0925 57.1745C15.4125 58.2945 16.1325 59.2145 17.1725 59.7345L20.9325 61.6145C21.6125 61.9345 22.0525 62.6545 22.0525 63.4145V64.9345C22.0525 70.4545 26.5325 74.9345 32.0525 74.9345H40.0525C41.1725 74.9345 42.0525 75.8145 42.0525 76.9345V84.9345C42.0525 86.0545 42.9325 86.9345 44.0525 86.9345H65.2925C66.5725 86.9345 67.7725 86.2945 68.5325 85.2545C69.2925 84.2145 69.4925 82.8545 69.0925 81.6545L68.6125 80.1345C67.0925 75.5745 67.4525 70.6945 69.5725 66.3745L73.4125 58.7345C76.4925 52.6145 78.0925 45.7345 78.0925 38.8945C78.0925 38.1745 78.0925 37.4545 78.0125 36.7345H77.9325ZM69.7325 56.9345L65.8925 64.5745C63.2525 69.8145 62.8525 75.8145 64.6925 81.3745L65.2125 82.8945H45.9725V76.8945C45.9725 73.5745 43.2925 70.8945 39.9725 70.8945H31.9725C28.6525 70.8945 25.9725 68.2145 25.9725 64.8945V63.3745C25.9725 61.0945 24.6925 59.0145 22.6525 58.0145L18.8925 56.1345L24.9725 47.0145C25.6525 46.0145 25.9725 44.8545 25.9725 43.6945V39.7345L26.8125 38.8945H73.9725C73.9725 45.1345 72.4925 51.3745 69.6925 56.9345H69.7325Z" fill="#8D9CDF"/>
<path d="M42.1728 43.2145C41.2128 42.6545 40.0128 42.9745 39.4528 43.9345C38.8128 45.0145 37.6528 45.6945 36.4528 45.6145C34.7328 45.5345 33.8128 43.9745 33.7728 43.9345C33.2128 42.9745 32.0128 42.6545 31.0528 43.1745C30.0928 43.7345 29.7328 44.9345 30.2928 45.8945C30.4928 46.2545 32.3728 49.4145 36.2528 49.6145C36.3728 49.6145 36.4928 49.6145 36.6528 49.6145C39.2528 49.6145 41.6128 48.2145 42.9328 45.9345C43.4928 44.9745 43.1728 43.7745 42.2128 43.2145H42.1728Z" fill="#8D9CDF"/>
</svg>
