<svg width="82" height="82" viewBox="0 0 82 82" fill="none" xmlns="http://www.w3.org/2000/svg">
<rect width="82" height="82" fill="#282424"/>
<path d="M27.2312 39.1551C25.8987 37.3784 23.6778 36.5926 21.5937 37.0367L19.6462 25.3859C19.3387 23.6092 18.2795 22.1401 16.6737 21.3201C15.0678 20.5001 13.257 20.5001 11.6512 21.3201C9.73784 22.2767 8.57617 24.1901 8.57617 26.3084V41.5467C8.57617 43.7334 9.19117 45.8859 10.3187 47.7651L14.7262 54.9742C15.2387 55.7942 15.4778 56.7167 15.4778 57.7076V61.4659C15.4437 62.8326 15.9562 64.1309 16.9128 65.1217C17.8695 66.1126 19.1678 66.6251 20.5687 66.6251H30.7845C33.6203 66.6251 35.9095 64.3359 35.9095 61.5001V54.6667C35.9095 52.1042 35.0553 49.5417 33.5178 47.4917L27.2653 39.1551H27.2312ZM32.4587 61.5001C32.4587 62.4567 31.707 63.2084 30.7503 63.2084H20.5345C20.0903 63.2084 19.6462 63.0376 19.3045 62.6959C18.997 62.3542 18.792 61.9442 18.8262 61.4659V57.7076C18.8603 56.1017 18.4503 54.5301 17.5962 53.1634L13.1887 45.9542C12.3687 44.6217 11.9245 43.0842 11.9245 41.5126V26.2742C11.9245 25.4542 12.3687 24.7026 13.1203 24.3267C13.4278 24.1559 13.7695 24.0876 14.077 24.0876C14.3845 24.0876 14.7603 24.1559 15.0678 24.3267C15.6828 24.6342 16.0928 25.2151 16.2295 25.8984L18.382 38.9159C17.8695 39.5309 17.4937 40.2484 17.2887 41.0342C16.8787 42.5717 17.152 44.2459 18.0403 45.5784L22.4478 52.1726C22.9603 52.9584 24.0195 53.1634 24.8053 52.6509C25.5912 52.1384 25.7962 51.0792 25.2837 50.2934L20.8762 43.6992C20.5345 43.1867 20.432 42.5376 20.6028 41.9567C20.7737 41.3759 21.1495 40.8634 21.7303 40.5559C22.6528 40.0776 23.8145 40.3509 24.4295 41.2051L30.682 49.5417C31.7753 51.0109 32.3903 52.8217 32.3903 54.6667V61.5001H32.4587Z" fill="#E1897D"/>
<path d="M70.3833 21.3198C68.7775 20.534 66.9667 20.534 65.3608 21.3198C63.755 22.1398 62.6958 23.609 62.3883 25.3857L60.4408 37.0365C58.3225 36.5923 56.1358 37.3782 54.8033 39.1548L48.5508 47.4915C47.0133 49.5415 46.1592 52.104 46.1592 54.6665V61.4998C46.1592 64.3357 48.4483 66.6248 51.2842 66.6248H61.5C62.8667 66.6248 64.165 66.0782 65.1558 65.1215C66.1125 64.1307 66.6592 62.8323 66.625 61.4657V57.7073C66.5908 56.7507 66.83 55.794 67.3425 54.974L71.75 47.7648C72.8775 45.8857 73.4925 43.7332 73.4925 41.5465V26.3082C73.4925 24.1898 72.2967 22.2765 70.4175 21.3198H70.3833ZM70.0417 41.5465C70.0417 43.1182 69.5975 44.6557 68.7775 45.9882L64.37 53.1973C63.55 54.564 63.1058 56.1357 63.1058 57.7415V61.4998C63.14 61.944 62.9692 62.3882 62.6617 62.7298C62.3542 63.0715 61.91 63.2423 61.4317 63.2423H51.2158C50.2592 63.2423 49.5075 62.4907 49.5075 61.534V54.7007C49.5075 52.8557 50.1225 51.0448 51.2158 49.5757L57.4683 41.239C57.8783 40.6923 58.5275 40.3848 59.2108 40.3848C59.5525 40.3848 59.8942 40.4532 60.2017 40.624C60.7825 40.8973 61.1583 41.4098 61.3292 41.9907C61.5 42.6057 61.3975 43.2207 61.0217 43.7332L56.6142 50.3273C56.1017 51.1132 56.3067 52.1723 57.0925 52.6848C57.8783 53.1973 58.9375 52.9923 59.45 52.2065L63.8575 45.6123C64.7458 44.2798 65.0192 42.6398 64.6092 41.0682C64.4042 40.2823 64.0283 39.5648 63.5158 38.9498L65.6683 25.9323C65.7708 25.249 66.215 24.6682 66.83 24.3607C67.445 24.0532 68.1625 24.0532 68.7775 24.3607C69.5292 24.7365 69.9733 25.4882 69.9733 26.3082V41.5465H70.0417Z" fill="#E1897D"/>
<path opacity="0.3" d="M54.6667 15.375H52.9583C51.0792 15.375 49.5417 16.9125 49.5417 18.7917V20.5C49.5417 24.6342 46.6033 28.085 42.7083 28.8708V18.7917H44.4167C45.3733 18.7917 46.125 18.04 46.125 17.0833C46.125 16.1267 45.3733 15.375 44.4167 15.375H37.5833C36.6267 15.375 35.875 16.1267 35.875 17.0833C35.875 18.04 36.6267 18.7917 37.5833 18.7917H39.2917V28.8708C35.3967 28.085 32.4583 24.6342 32.4583 20.5V18.7917C32.4583 16.9125 30.9208 15.375 29.0417 15.375H27.3333C26.3767 15.375 25.625 16.1267 25.625 17.0833C25.625 18.04 26.3767 18.7917 27.3333 18.7917H29.0417V20.5C29.0417 26.5133 33.5175 31.4333 39.2917 32.2875V39.2917H37.5833C36.6267 39.2917 35.875 40.0433 35.875 41C35.875 41.9567 36.6267 42.7083 37.5833 42.7083H44.4167C45.3733 42.7083 46.125 41.9567 46.125 41C46.125 40.0433 45.3733 39.2917 44.4167 39.2917H42.7083V32.2875C48.4825 31.4333 52.9583 26.5133 52.9583 20.5V18.7917H54.6667C55.6233 18.7917 56.375 18.04 56.375 17.0833C56.375 16.1267 55.6233 15.375 54.6667 15.375Z" fill="#E1897D"/>
</svg>
