<svg width="181" height="96" viewBox="0 0 181 96" fill="none" xmlns="http://www.w3.org/2000/svg">
<path d="M22.9742 63.3209C23.5502 63.3209 23.1022 64.7929 22.6542 64.7929C20.4142 64.7929 18.8142 63.9609 18.6222 61.2089L18.3022 57.0489C18.1102 55.7049 18.0462 55.1289 17.3422 55.1289C15.2302 55.1289 10.0462 61.2089 3.26224 67.8649C1.91824 69.1449 0.702242 68.7609 1.79024 67.0329C10.3022 51.9289 20.5422 36.6329 31.0382 21.2729C32.4462 19.5449 34.2382 20.6969 33.9182 21.6569L27.8382 29.5289C27.5822 29.7209 27.1982 29.8489 26.8782 29.8489C19.5822 40.4089 8.76624 56.7929 4.47824 64.6649C10.2382 58.5849 14.9742 53.2089 18.1742 53.2089C19.6462 53.2089 19.8382 54.2329 20.0302 56.2169L20.4142 60.6329C20.5422 62.4249 21.3742 63.3209 22.9742 63.3209ZM37.0387 60.4409C37.8067 60.1209 38.5747 61.0809 37.8067 61.6569C34.2227 63.3849 30.1267 65.3689 26.7987 65.3689C24.3027 65.3689 23.4707 64.1529 24.0467 61.9129C25.2627 58.5849 30.3827 53.2089 34.4147 53.2089C36.1427 53.2089 36.8467 54.1689 36.5907 55.1929C35.6307 58.4569 31.2787 59.4809 27.4387 59.4809C26.4787 60.5049 25.8387 61.5929 25.6467 62.4249C25.1987 63.7689 26.0307 64.0249 27.2467 64.0249C29.4227 64.0249 33.3907 62.1689 37.0387 60.4409ZM34.1587 54.9369C32.6867 54.9369 30.3827 56.4729 28.5267 58.3289C31.0867 58.0729 33.3907 57.1129 34.4147 55.8969C34.7347 55.2569 34.6707 54.9369 34.1587 54.9369ZM42.9387 63.7689C40.3787 65.3049 38.4587 63.3849 40.1867 60.8249C41.2107 59.0969 44.8587 53.3369 45.8827 51.4809C47.4827 48.6649 48.7627 50.4569 47.5467 52.1849C46.3947 53.8489 42.0427 60.1849 41.0187 61.9129C40.5707 62.8729 41.2107 63.4489 42.2347 62.6809C44.9227 60.8249 49.3387 56.4729 52.6027 53.5929C56.4427 50.0729 58.6187 52.7609 56.6347 56.4729C55.4187 58.7129 54.0107 61.1449 52.5387 63.6409C56.6347 61.4009 60.6667 59.4169 64.6987 57.4329L64.3147 59.1609C60.0267 61.2089 55.6107 63.4489 51.1947 65.7529C47.8667 71.1929 44.0907 76.7609 41.0827 80.6649C34.1067 89.6889 27.6427 93.4009 23.8027 93.4009C19.0027 93.4009 18.4267 87.5129 27.6427 79.3209C32.5707 74.7769 40.6987 69.9769 49.6587 65.1769C51.5147 62.0409 53.1787 58.9049 54.6507 55.8969C55.8667 53.5289 54.8427 53.3369 53.3067 54.8729C49.0187 59.0329 44.0907 63.1289 42.9387 63.7689ZM39.5467 80.0889C42.2987 76.7609 45.3707 72.1529 48.3787 67.2889C40.5067 71.5769 33.2747 76.1209 28.4107 80.5369C21.3707 86.6809 20.9867 91.4169 24.6347 91.4169C27.5787 91.4169 33.0827 88.2169 39.5467 80.0889ZM86.4977 36.6969C86.7537 36.2489 87.4577 35.6089 88.8017 35.4169L96.0337 34.3929L101.346 27.0969C101.858 26.3929 102.818 25.3049 103.586 25.3049C104.29 25.3049 104.354 27.0969 103.842 27.7369L99.7457 31.7049L99.6177 31.8329L97.9537 34.2009C103.138 33.6249 109.154 33.1129 115.042 33.1129C116.002 33.1129 117.09 33.0489 118.178 33.2409C119.138 33.4329 118.498 34.7129 117.474 34.7129C116.578 34.7129 114.466 34.6489 113.506 34.6489C107.81 34.6489 102.626 35.0329 96.8017 35.7369C90.4017 44.5049 82.8497 55.7049 81.3137 59.4809C80.4817 61.2729 79.7137 64.2809 81.7617 64.2809C84.7697 64.2809 89.5057 59.8009 95.9697 57.7529C97.5057 57.4329 97.1857 58.5849 95.8417 58.9049C89.5697 60.7609 84.8977 66.0729 80.9937 66.0729C77.9857 66.0729 78.2417 62.1689 79.5857 59.4809C81.6337 54.6809 88.7377 44.6969 94.8817 35.9929L88.7377 36.9529C87.0097 37.2089 86.0497 37.5289 86.4977 36.6969ZM111.849 63.3209C112.425 63.3209 111.977 64.7929 111.529 64.7929C109.289 64.7929 107.689 63.9609 107.497 61.2089L107.177 57.0489C106.985 55.7049 106.921 55.1289 106.217 55.1289C104.105 55.1289 98.9212 61.2089 92.1372 67.8649C90.7932 69.1449 89.5772 68.7609 90.6652 67.0329C99.1772 51.9289 109.417 36.6329 119.913 21.2729C121.321 19.5449 123.113 20.6969 122.793 21.6569L116.713 29.5289C116.457 29.7209 116.073 29.8489 115.753 29.8489C108.457 40.4089 97.6412 56.7929 93.3532 64.6649C99.1132 58.5849 103.849 53.2089 107.049 53.2089C108.521 53.2089 108.713 54.2329 108.905 56.2169L109.289 60.6329C109.417 62.4249 110.249 63.3209 111.849 63.3209ZM125.914 60.4409C126.682 60.1209 127.45 61.0809 126.682 61.6569C123.098 63.3849 119.002 65.3689 115.674 65.3689C113.178 65.3689 112.346 64.1529 112.922 61.9129C114.138 58.5849 119.258 53.2089 123.29 53.2089C125.018 53.2089 125.722 54.1689 125.466 55.1929C124.506 58.4569 120.154 59.4809 116.314 59.4809C115.354 60.5049 114.714 61.5929 114.522 62.4249C114.074 63.7689 114.906 64.0249 116.122 64.0249C118.298 64.0249 122.266 62.1689 125.914 60.4409ZM123.034 54.9369C121.562 54.9369 119.258 56.4729 117.402 58.3289C119.962 58.0729 122.266 57.1129 123.29 55.8969C123.61 55.2569 123.546 54.9369 123.034 54.9369ZM143.718 51.3529C144.486 51.3529 145.126 52.5689 144.87 53.3369C144.358 54.3609 142.054 55.5769 142.566 54.5529C142.758 54.1049 142.822 53.5929 142.502 53.5929C140.646 53.5929 132.838 58.3929 130.79 61.1449C130.278 61.6569 127.974 65.4329 127.142 66.4569C126.63 67.3529 125.67 66.2649 126.182 65.2409C127.206 63.8969 130.15 59.0329 132.198 55.7689C131.878 55.9609 131.622 55.9609 131.878 55.4489L133.542 52.6969C133.926 52.1209 136.55 51.0969 136.23 52.8249C136.038 53.3369 133.798 56.5369 133.094 57.9449C134.118 56.7289 141.734 51.3529 143.718 51.3529ZM155.726 60.4409C156.494 60.1209 157.262 61.0809 156.494 61.6569C152.91 63.3849 148.814 65.3689 145.486 65.3689C142.99 65.3689 142.158 64.1529 142.734 61.9129C143.95 58.5849 149.07 53.2089 153.102 53.2089C154.83 53.2089 155.534 54.1689 155.278 55.1929C154.318 58.4569 149.966 59.4809 146.126 59.4809C145.166 60.5049 144.526 61.5929 144.334 62.4249C143.886 63.7689 144.718 64.0249 145.934 64.0249C148.11 64.0249 152.078 62.1689 155.726 60.4409ZM152.846 54.9369C151.374 54.9369 149.07 56.4729 147.214 58.3289C149.774 58.0729 152.078 57.1129 153.102 55.8969C153.422 55.2569 153.358 54.9369 152.846 54.9369ZM178.65 31.2569C179.482 29.2729 180.762 29.8489 180.506 30.9369C179.994 33.4969 168.858 52.0569 166.81 56.4089C165.402 59.1609 164.314 57.5609 165.914 54.9369C167.45 52.3769 178.138 32.9849 178.65 31.2569ZM163.034 61.2729C163.61 61.0809 163.994 61.4009 163.738 62.1049C163.29 63.1929 162.458 64.3449 161.754 65.5609C161.05 66.7769 160.282 67.3529 159.514 66.7769C159.066 66.2649 159.578 65.6889 159.578 65.6249C160.282 64.6649 161.178 63.2569 161.882 62.2969C162.266 61.7209 162.65 61.4009 163.034 61.2729Z" fill="white"/>
</svg>
