<svg width="97" height="97" viewBox="0 0 97 97" fill="none" xmlns="http://www.w3.org/2000/svg">
<path d="M71.9064 44.82C70.8264 44.58 69.7864 45.3 69.5464 46.38C68.8264 49.9 67.6664 53.3 66.0664 56.54L62.2264 64.18C59.5864 69.42 59.1864 75.42 61.0264 80.98L61.5464 82.5H42.3064V76.5C42.3064 73.18 39.6264 70.5 36.3064 70.5H28.3064C24.9864 70.5 22.3064 67.82 22.3064 64.5V62.98C22.3064 60.7 21.0264 58.62 18.9864 57.62L15.2264 55.74L21.3064 46.62C21.9864 45.62 22.3064 44.46 22.3064 43.3V38.5C22.3064 25.26 33.0664 14.5 46.3064 14.5C47.5464 14.5 48.8264 14.58 50.0264 14.78C51.1064 14.94 52.1464 14.22 52.3064 13.1C52.4664 11.98 51.7464 10.98 50.6264 10.82C49.1864 10.58 47.7464 10.5 46.2664 10.5C30.8264 10.5 18.2664 23.06 18.2664 38.5V43.3C18.2664 43.7 18.1464 44.06 17.9464 44.42L11.8664 53.54C11.2264 54.5 11.0264 55.66 11.3464 56.78C11.6664 57.9 12.3864 58.82 13.4264 59.34L17.1864 61.22C17.8664 61.54 18.3064 62.26 18.3064 63.02V64.54C18.3064 70.06 22.7864 74.54 28.3064 74.54H36.3064C37.4264 74.54 38.3064 75.42 38.3064 76.54V84.54C38.3064 85.66 39.1864 86.54 40.3064 86.54H61.5464C62.8264 86.54 64.0264 85.9 64.7864 84.86C65.5464 83.82 65.7464 82.46 65.3464 81.26L64.8664 79.74C63.3464 75.18 63.7064 70.3 65.8264 65.98L69.6664 58.34C71.4264 54.82 72.7064 51.06 73.5064 47.18C73.7064 46.1 73.0264 45.06 71.9464 44.82H71.9064Z" fill="#64568E"/>
<path opacity="0.3" d="M55.4668 42.0197C54.3468 42.0197 53.4668 42.8997 53.4668 44.0197V46.2597C53.4668 46.9797 52.5068 47.8197 51.1468 47.8197C50.1468 47.8197 49.1868 47.3397 48.9068 46.6197L47.5468 43.2197C46.5468 40.6597 43.9868 38.7397 40.7468 38.0597C35.3068 36.9397 31.5068 34.1797 31.5068 31.3797C31.5068 27.9797 37.5468 24.1797 46.1868 24.1797C47.3068 24.1797 48.1868 23.2997 48.1868 22.1797C48.1868 21.0597 47.3068 20.1797 46.1868 20.1797C35.7068 20.1797 27.5068 25.0997 27.5068 31.3797C27.5068 36.2597 32.3868 40.4197 39.9468 41.9797C41.8668 42.3797 43.3468 43.3797 43.8668 44.6997L45.2268 48.0997C46.1068 50.2997 48.5068 51.7797 51.1468 51.7797C54.6268 51.7797 57.4668 49.2997 57.4668 46.2197V43.9797C57.4668 42.8597 56.5868 41.9797 55.4668 41.9797V42.0197Z" fill="#64568E"/>
<path opacity="0.3" d="M66.3467 10.5C57.5067 10.5 50.3467 17.66 50.3467 26.5C50.3467 35.34 57.5067 42.5 66.3467 42.5C75.1867 42.5 82.3467 35.34 82.3467 26.5C82.3467 17.66 75.1867 10.5 66.3467 10.5ZM66.3467 38.5C59.7467 38.5 54.3467 33.1 54.3467 26.5C54.3467 19.9 59.7467 14.5 66.3467 14.5C72.9467 14.5 78.3467 19.9 78.3467 26.5C78.3467 33.1 72.9467 38.5 66.3467 38.5Z" fill="#64568E"/>
<path opacity="0.3" d="M70.9466 21.1L64.3466 27.7L61.7466 25.1C60.9466 24.3 59.7066 24.3 58.9066 25.1C58.1066 25.9 58.1066 27.14 58.9066 27.94L62.9066 31.94C63.3066 32.34 63.8266 32.54 64.3066 32.54C64.7866 32.54 65.3466 32.34 65.7066 31.94L73.7066 23.94C74.5066 23.14 74.5066 21.9 73.7066 21.1C72.9066 20.3 71.6666 20.3 70.8666 21.1H70.9466Z" fill="#64568E"/>
</svg>
