<svg width="38" height="58" viewBox="0 0 38 58" fill="none" xmlns="http://www.w3.org/2000/svg">
<path d="M19 0.5C15.2422 0.5 11.5687 1.61433 8.44417 3.70208C5.31964 5.78982 2.88436 8.75722 1.4463 12.229C0.00823236 15.7008 -0.368031 19.5211 0.365088 23.2067C1.09821 26.8924 2.90778 30.2778 5.56498 32.935C8.22218 35.5922 11.6077 37.4018 15.2933 38.1349C18.9789 38.868 22.7992 38.4918 26.271 37.0537C29.7428 35.6157 32.7102 33.1804 34.7979 30.0558C36.8857 26.9313 38 23.2578 38 19.5C38 14.4609 35.9982 9.62816 32.435 6.06497C28.8718 2.50178 24.0391 0.5 19 0.5ZM19 34.7C15.9937 34.7 13.055 33.8085 10.5553 32.1383C8.05571 30.4681 6.10749 28.0942 4.95704 25.3168C3.80659 22.5394 3.50558 19.4831 4.09207 16.5346C4.67857 13.5861 6.12622 10.8777 8.25198 8.75198C10.3777 6.62622 13.0861 5.17856 16.0346 4.59206C18.9831 4.00557 22.0394 4.30658 24.8168 5.45703C27.5942 6.60748 29.9681 8.55571 31.6383 11.0553C33.3085 13.555 34.2 16.4937 34.2 19.5C34.2 23.5313 32.5986 27.3975 29.748 30.248C26.8975 33.0986 23.0313 34.7 19 34.7Z" fill="#6493A6"/>
<path d="M19 0.5C15.2422 0.5 11.5687 1.61433 8.44417 3.70208C5.31964 5.78982 2.88436 8.75722 1.4463 12.229C0.00823236 15.7008 -0.368031 19.5211 0.365088 23.2067C1.09821 26.8924 2.90778 30.2778 5.56498 32.935C8.22218 35.5922 11.6077 37.4018 15.2933 38.1349C18.9789 38.868 22.7992 38.4918 26.271 37.0537C29.7428 35.6157 32.7102 33.1804 34.7979 30.0558C36.8857 26.9313 38 23.2578 38 19.5C38 14.4609 35.9982 9.62816 32.435 6.06497C28.8718 2.50178 24.0391 0.5 19 0.5ZM19 34.7C15.9937 34.7 13.055 33.8085 10.5553 32.1383C8.05571 30.4681 6.10749 28.0942 4.95704 25.3168C3.80659 22.5394 3.50558 19.4831 4.09207 16.5346C4.67857 13.5861 6.12622 10.8777 8.25198 8.75198C10.3777 6.62622 13.0861 5.17856 16.0346 4.59206C18.9831 4.00557 22.0394 4.30658 24.8168 5.45703C27.5942 6.60748 29.9681 8.55571 31.6383 11.0553C33.3085 13.555 34.2 16.4937 34.2 19.5C34.2 23.5313 32.5986 27.3975 29.748 30.248C26.8975 33.0986 23.0313 34.7 19 34.7Z" fill="black" fill-opacity="0.2"/>
<path d="M20.9 18.721V13.8C20.9 13.2961 20.6998 12.8128 20.3435 12.4565C19.9872 12.1002 19.5039 11.9 19 11.9C18.4961 11.9 18.0128 12.1002 17.6565 12.4565C17.3002 12.8128 17.1 13.2961 17.1 13.8V19.5C17.0986 19.7501 17.1465 19.9979 17.241 20.2294C17.3356 20.4609 17.4749 20.6715 17.651 20.849L21.451 24.649C21.6276 24.8271 21.8378 24.9684 22.0693 25.0649C22.3008 25.1614 22.5492 25.211 22.8 25.211C23.0508 25.211 23.2992 25.1614 23.5307 25.0649C23.7622 24.9684 23.9724 24.8271 24.149 24.649C24.3271 24.4724 24.4684 24.2622 24.5649 24.0307C24.6614 23.7992 24.711 23.5508 24.711 23.3C24.711 23.0492 24.6614 22.8008 24.5649 22.5693C24.4684 22.3378 24.3271 22.1276 24.149 21.951L20.9 18.721Z" fill="#6493A6"/>
<path d="M20.9 18.721V13.8C20.9 13.2961 20.6998 12.8128 20.3435 12.4565C19.9872 12.1002 19.5039 11.9 19 11.9C18.4961 11.9 18.0128 12.1002 17.6565 12.4565C17.3002 12.8128 17.1 13.2961 17.1 13.8V19.5C17.0986 19.7501 17.1465 19.9979 17.241 20.2294C17.3356 20.4609 17.4749 20.6715 17.651 20.849L21.451 24.649C21.6276 24.8271 21.8378 24.9684 22.0693 25.0649C22.3008 25.1614 22.5492 25.211 22.8 25.211C23.0508 25.211 23.2992 25.1614 23.5307 25.0649C23.7622 24.9684 23.9724 24.8271 24.149 24.649C24.3271 24.4724 24.4684 24.2622 24.5649 24.0307C24.6614 23.7992 24.711 23.5508 24.711 23.3C24.711 23.0492 24.6614 22.8008 24.5649 22.5693C24.4684 22.3378 24.3271 22.1276 24.149 21.951L20.9 18.721Z" fill="black" fill-opacity="0.2"/>
<path d="M32.3 42.3H29.393L23.807 51.059C23.292 51.8672 22.5816 52.5325 21.7414 52.9934C20.9012 53.4543 19.9583 53.6959 19 53.6959C18.0417 53.6959 17.0988 53.4543 16.2586 52.9934C15.4184 52.5325 14.708 51.8672 14.193 51.059L8.60701 42.3H5.70001C4.18827 42.3 2.73846 42.9005 1.6695 43.9695C0.600542 45.0384 7.88759e-06 46.4883 7.88759e-06 48V55.6C7.88759e-06 56.1039 0.200186 56.5872 0.556505 56.9435C0.912824 57.2998 1.3961 57.5 1.90001 57.5H36.1C36.6039 57.5 37.0872 57.2998 37.4435 56.9435C37.7998 56.5872 38 56.1039 38 55.6V48C38 46.4883 37.3995 45.0384 36.3305 43.9695C35.2615 42.9005 33.8117 42.3 32.3 42.3Z" fill="#97C3D5"/>
<path d="M32.3 42.3H29.393L23.807 51.059C23.292 51.8672 22.5816 52.5325 21.7414 52.9934C20.9012 53.4543 19.9583 53.6959 19 53.6959C18.0417 53.6959 17.0988 53.4543 16.2586 52.9934C15.4184 52.5325 14.708 51.8672 14.193 51.059L8.60701 42.3H5.70001C4.18827 42.3 2.73846 42.9005 1.6695 43.9695C0.600542 45.0384 7.88759e-06 46.4883 7.88759e-06 48V55.6C7.88759e-06 56.1039 0.200186 56.5872 0.556505 56.9435C0.912824 57.2998 1.3961 57.5 1.90001 57.5H36.1C36.6039 57.5 37.0872 57.2998 37.4435 56.9435C37.7998 56.5872 38 56.1039 38 55.6V48C38 46.4883 37.3995 45.0384 36.3305 43.9695C35.2615 42.9005 33.8117 42.3 32.3 42.3Z" fill="black" fill-opacity="0.2"/>
<path d="M19 49.9C19.3179 49.8995 19.6306 49.8192 19.9094 49.6665C20.1883 49.5138 20.4243 49.2936 20.596 49.026L25.479 41.426C21.2525 42.6925 16.7475 42.6925 12.521 41.426L17.404 49.026C17.5757 49.2936 17.8117 49.5138 18.0906 49.6665C18.3694 49.8192 18.6821 49.8995 19 49.9Z" fill="#6493A6"/>
<path d="M19 49.9C19.3179 49.8995 19.6306 49.8192 19.9094 49.6665C20.1883 49.5138 20.4243 49.2936 20.596 49.026L25.479 41.426C21.2525 42.6925 16.7475 42.6925 12.521 41.426L17.404 49.026C17.5757 49.2936 17.8117 49.5138 18.0906 49.6665C18.3694 49.8192 18.6821 49.8995 19 49.9Z" fill="black" fill-opacity="0.2"/>
</svg>
