<svg width="16" height="21" viewBox="0 0 16 21" fill="none" xmlns="http://www.w3.org/2000/svg">
<path d="M8 0.5C3.85813 0.5 0.5 3.85813 0.5 8C0.5 9.63094 1.03469 11.1275 1.92344 12.3531C1.93938 12.3825 1.94187 12.4153 1.96 12.4434L6.96 19.9434C7.19188 20.2913 7.5825 20.5 8 20.5C8.4175 20.5 8.80812 20.2913 9.04 19.9434L14.04 12.4434C14.0584 12.4153 14.0606 12.3825 14.0766 12.3531C14.9653 11.1275 15.5 9.63094 15.5 8C15.5 3.85813 12.1419 0.5 8 0.5ZM8 10.5C6.61937 10.5 5.5 9.38062 5.5 8C5.5 6.61937 6.61937 5.5 8 5.5C9.38062 5.5 10.5 6.61937 10.5 8C10.5 9.38062 9.38062 10.5 8 10.5Z" fill="#768D8F"/>
</svg>
