<svg width="20" height="21" viewBox="0 0 20 21" fill="none" xmlns="http://www.w3.org/2000/svg">
<g clip-path="url(#clip0_46_276)">
<path d="M10 0.5C5.85813 0.5 2.5 3.85813 2.5 8C2.5 9.63094 3.03469 11.1275 3.92344 12.3531C3.93938 12.3825 3.94187 12.4153 3.96 12.4434L8.96 19.9434C9.19188 20.2913 9.5825 20.5 10 20.5C10.4175 20.5 10.8081 20.2913 11.04 19.9434L16.04 12.4434C16.0584 12.4153 16.0606 12.3825 16.0766 12.3531C16.9653 11.1275 17.5 9.63094 17.5 8C17.5 3.85813 14.1419 0.5 10 0.5ZM10 10.5C8.61937 10.5 7.5 9.38062 7.5 8C7.5 6.61937 8.61937 5.5 10 5.5C11.3806 5.5 12.5 6.61937 12.5 8C12.5 9.38062 11.3806 10.5 10 10.5Z" fill="#E1897D"/>
</g>
<defs>
<clipPath id="clip0_46_276">
<rect width="20" height="20" fill="white" transform="translate(0 0.5)"/>
</clipPath>
</defs>
</svg>
