<svg width="150" height="48" viewBox="0 0 150 48" fill="none" xmlns="http://www.w3.org/2000/svg">
<path d="M5.53328 34.0386H8.10304L9.65734 44.1312L10.8179 34.0386H13.6363L11.4603 47.447H8.16521L6.81816 39.2196L5.47111 47.447H2.17601L0 34.0386H2.81845L3.97899 44.1312L5.53328 34.0386Z" fill="#FAFAFA"/>
<path d="M18.1341 45.043H21.3463V47.447H15.2327V34.0386H21.3463V36.4012H18.1341V39.5512H21.139V41.8308H18.1341V45.043Z" fill="#FAFAFA"/>
<path d="M25.3662 32.8781C25.2419 33.3617 25.083 33.8867 24.8896 34.4531C24.6961 35.0196 24.482 35.586 24.2471 36.1525C24.0261 36.7051 23.805 37.2301 23.584 37.7275H22.2369C22.3336 37.3406 22.4303 36.9262 22.527 36.4841C22.6376 36.0419 22.7343 35.5998 22.8172 35.1577C22.9139 34.7018 22.9968 34.2597 23.0659 33.8314C23.1488 33.4031 23.2178 33.0093 23.2731 32.6501H25.2211L25.3662 32.8781Z" fill="#FAFAFA"/>
<path d="M29.5484 41.9552V47.447H26.647V34.0386H31.8073C33.5205 34.0386 34.3771 34.9505 34.3771 36.7742V38.3285C34.3771 39.4338 33.9833 40.1384 33.1958 40.4423C33.8866 40.691 34.232 41.2575 34.232 42.1417V47.447H31.3306V42.3696C31.3306 42.0933 31.1994 41.9552 30.9369 41.9552H29.5484ZM29.5484 36.0074V39.9242H31.082C31.1925 39.9242 31.2823 39.8828 31.3514 39.7999C31.4343 39.717 31.4757 39.6203 31.4757 39.5097V36.4219C31.4757 36.3114 31.4343 36.2146 31.3514 36.1317C31.2823 36.0489 31.1925 36.0074 31.082 36.0074H29.5484Z" fill="#FAFAFA"/>
<path d="M39.1413 45.043H42.3535V47.447H36.2399V34.0386H42.3535V36.4012H39.1413V39.5512H42.1462V41.8308H39.1413V45.043Z" fill="#FAFAFA"/>
<path d="M53.547 33.8314C55.2602 33.8314 56.1167 34.7432 56.1167 36.5669V47.447H53.2154V42.9499H51.1223V47.447H48.2209V36.5669C48.2209 34.7432 49.0775 33.8314 50.7907 33.8314H53.547ZM51.1223 40.7117H53.2154V36.2146C53.2154 36.1041 53.1739 36.0074 53.091 35.9245C53.022 35.8416 52.9322 35.8002 52.8216 35.8002H51.516C51.4055 35.8002 51.3088 35.8416 51.2259 35.9245C51.1568 36.0074 51.1223 36.1041 51.1223 36.2146V40.7117Z" fill="#FAFAFA"/>
<path d="M61.1807 45.0016H64.3514V47.447H58.2793V34.0386H61.1807V45.0016Z" fill="#FAFAFA"/>
<path d="M68.6283 45.0016H71.7991V47.447H65.727V34.0386H68.6283V45.0016Z" fill="#FAFAFA"/>
<path d="M80.2445 47.447H77.3432V36.5669C77.3432 34.7432 78.1998 33.8314 79.9129 33.8314H81.4465C82.4551 33.8314 83.1735 34.163 83.6018 34.8261C84.0025 34.163 84.7209 33.8314 85.7571 33.8314H87.2907C89.0038 33.8314 89.8604 34.7432 89.8604 36.5669V47.447H86.9591V36.3183C86.9591 36.2077 86.9176 36.111 86.8347 36.0281C86.7657 35.9452 86.6758 35.9038 86.5653 35.9038H85.4462C85.3357 35.9038 85.239 35.9452 85.1561 36.0281C85.087 36.111 85.0525 36.2077 85.0525 36.3183V47.447H82.1511V36.3183C82.1511 36.2077 82.1097 36.111 82.0268 36.0281C81.9577 35.9452 81.8679 35.9038 81.7574 35.9038H80.6383C80.5278 35.9038 80.431 35.9452 80.3482 36.0281C80.2791 36.111 80.2445 36.2077 80.2445 36.3183V47.447Z" fill="#FAFAFA"/>
<path d="M97.1805 33.8314C98.8937 33.8314 99.7502 34.7432 99.7502 36.5669V47.447H96.8489V42.9499H94.7558V47.447H91.8544V36.5669C91.8544 34.7432 92.711 33.8314 94.4242 33.8314H97.1805ZM94.7558 40.7117H96.8489V36.2146C96.8489 36.1041 96.8074 36.0074 96.7246 35.9245C96.6555 35.8416 96.5657 35.8002 96.4551 35.8002H95.1495C95.039 35.8002 94.9423 35.8416 94.8594 35.9245C94.7903 36.0074 94.7558 36.1041 94.7558 36.2146V40.7117Z" fill="#FAFAFA"/>
<path d="M107.239 34.0386C108.952 34.0386 109.809 34.9505 109.809 36.7742V44.7114C109.809 46.5351 108.952 47.447 107.239 47.447H101.913V34.0386H107.239ZM106.907 45.043V36.4219C106.907 36.3114 106.866 36.2146 106.783 36.1317C106.714 36.0489 106.624 36.0074 106.514 36.0074H104.814V45.4575H106.514C106.624 45.4575 106.714 45.416 106.783 45.3332C106.866 45.2503 106.907 45.1535 106.907 45.043Z" fill="#FAFAFA"/>
<path d="M119.062 42.1831V47.447H116.16V34.0386H119.062V39.6548H121.362V34.0386H124.264V47.447H121.362V42.1831H119.062Z" fill="#FAFAFA"/>
<path d="M129.242 45.043H132.454V47.447H126.34V34.0386H132.454V36.4012H129.242V39.5512H132.247V41.8308H129.242V45.043Z" fill="#FAFAFA"/>
<path d="M137.033 41.9552V47.447H134.132V34.0386H139.292C141.005 34.0386 141.862 34.9505 141.862 36.7742V38.3285C141.862 39.4338 141.468 40.1384 140.681 40.4423C141.372 40.691 141.717 41.2575 141.717 42.1417V47.447H138.816V42.3696C138.816 42.0933 138.684 41.9552 138.422 41.9552H137.033ZM137.033 36.0074V39.9242H138.567C138.677 39.9242 138.767 39.8828 138.836 39.7999C138.919 39.717 138.961 39.6203 138.961 39.5097V36.4219C138.961 36.3114 138.919 36.2146 138.836 36.1317C138.767 36.0489 138.677 36.0074 138.567 36.0074H137.033Z" fill="#FAFAFA"/>
<path d="M146.626 45.043H149.838V47.447H143.725V34.0386H149.838V36.4012H146.626V39.5512H149.631V41.8308H146.626V45.043Z" fill="#FAFAFA"/>
<path fill-rule="evenodd" clip-rule="evenodd" d="M51.2888 27.9956H0.206253V26.5413H51.2888V27.9956ZM150 27.9956L99.6446 27.9956V26.5413L150 26.5413V27.9956Z" fill="#F59999"/>
<path d="M75.137 27.9633C70.4305 27.9471 65.7478 27.6548 61.1773 26.4438C59.9014 26.1063 58.6719 25.5671 57.4597 25.0323C56.9318 24.7993 56.4536 24.3949 56.038 23.9819C54.8474 22.7968 54.8031 21.3076 55.8783 20.0114C56.8455 18.8457 58.1613 18.2289 59.5517 17.7544C60.2987 17.4988 61.0662 17.2982 61.8293 17.0944C62.1251 17.0157 62.2752 16.9143 62.2795 16.5617C62.3259 12.8694 61.9481 9.24284 60.6991 5.74031C60.2846 4.57675 60.5988 3.57926 61.4882 2.75971C62.4565 1.8679 63.6698 1.45165 64.9037 1.10981C67.8733 0.287016 70.9173 0.0454627 73.983 0.0077199C77.5895 -0.0364931 81.1874 0.0842838 84.6902 1.03217C85.8388 1.34274 86.9841 1.79457 88.0139 2.38659C89.4463 3.21046 89.7928 4.42147 89.2736 5.99372C88.1261 9.46606 87.7656 13.0408 87.8228 16.6771C87.8282 17.0189 87.9977 17.0804 88.2535 17.1677C89.5942 17.625 90.9619 18.0261 92.2529 18.5987C92.9524 18.9093 93.599 19.4463 94.1236 20.0157C95.1966 21.1814 95.1632 22.6092 94.1506 23.8288C93.4663 24.6538 92.5638 25.1768 91.5966 25.5844C89.1721 26.6056 86.6127 27.1286 84.0166 27.4025C81.0686 27.7131 78.1055 27.7702 75.1499 27.9978C75.1456 27.9503 75.1424 28.0118 75.138 27.9643L75.137 27.9633ZM74.6901 1.773C71.9234 1.78271 68.7822 1.9628 65.7154 2.75C64.7558 2.99695 63.8188 3.41428 62.9444 3.8866C62.2331 4.2705 62.1748 4.67057 62.4392 5.42974C63.5068 8.49661 63.9947 11.6573 64.0012 14.8989C64.0045 16.3946 64.0001 16.4075 65.4391 16.8712C69.1298 18.0595 72.9284 18.4197 76.781 18.2547C79.7949 18.1253 82.7515 17.6735 85.57 16.5164C86.0158 16.3331 86.1335 16.098 86.1259 15.6375C86.0655 12.1997 86.48 8.82767 87.6134 5.56561C87.9232 4.67381 87.8563 4.25971 87.0219 3.82513C86.154 3.3733 85.2245 2.99479 84.2789 2.74785C81.2672 1.96064 78.1789 1.78918 74.6922 1.77516L74.6901 1.773ZM62.2881 18.7475C61.1342 19.139 60.0471 19.4431 59.0173 19.8798C58.402 20.1397 57.817 20.543 57.3226 20.9949C56.6835 21.5783 56.7062 22.2425 57.3517 22.8162C57.7868 23.2044 58.3006 23.5312 58.8274 23.7857C60.6419 24.6624 62.6044 25.0463 64.5712 25.3903C69.0402 26.1699 73.5491 26.2735 78.0666 26.1203C81.4486 26.0049 84.8133 25.6868 88.1056 24.8468C89.5521 24.478 91.0008 24.0908 92.2324 23.1904C93.4058 22.332 93.4047 21.4489 92.2216 20.6142C90.9198 19.6954 89.4161 19.2803 87.8228 18.9093C87.8228 19.2986 87.7883 19.6404 87.8293 19.9726C87.947 20.9291 87.4763 21.5297 86.6581 21.8737C85.8323 22.2199 84.9957 22.5747 84.1289 22.786C78.5006 24.1545 72.8356 24.1793 67.1738 23.0416C65.8309 22.772 64.5334 22.2522 63.2402 21.7778C62.5526 21.5254 62.2406 20.9431 62.2838 20.1872C62.3075 19.7623 62.2881 19.3342 62.2881 18.7486V18.7475Z" fill="#FAFAFA"/>
</svg>
