<svg width="281" height="77" viewBox="0 0 281 77" fill="none" xmlns="http://www.w3.org/2000/svg">
<path d="M22.144 47.7809C19.648 47.7809 18.688 45.6049 20.672 42.5969C21.504 41.2529 22.528 39.7809 23.296 38.5649C23.872 37.6049 24.064 37.0289 23.744 37.0289C21.952 37.0289 15.36 42.7889 11.328 46.5009C10.304 47.5249 8.704 47.5249 9.856 45.1569L14.272 37.6689C10.368 40.0369 4.608 46.5009 2.112 48.6769C0.832 49.7009 0.256 48.3569 1.216 46.8209C1.344 46.3729 3.008 44.0049 4.288 42.2129C3.968 42.4049 3.136 42.4049 3.584 41.8289C4.16 41.1249 5.056 39.3969 5.504 38.8849C6.528 37.3489 9.024 37.4769 7.808 39.3969L3.52 45.7969C6.656 42.5329 11.392 37.7329 13.952 36.3889C15.232 35.8129 16.64 36.0049 15.936 37.7329C14.976 39.5889 13.376 42.2129 12.416 43.8129C15.68 40.5489 22.848 34.7889 24.832 34.7889C27.072 34.7889 26.496 36.7729 25.152 38.8209C24.32 40.2929 23.232 42.0849 22.464 43.1089C21.248 44.9009 21.184 46.0529 22.656 46.0529C24.704 46.0529 28.544 43.7489 31.744 41.7009C33.344 40.6129 33.792 41.7009 32.192 42.7249C29.312 44.7729 24.704 47.7809 22.144 47.7809ZM33.428 47.2689C30.868 48.8049 28.948 46.8849 30.676 44.3249C31.7 42.5969 35.348 36.8369 36.372 34.9809C37.972 32.1649 39.252 33.9569 38.036 35.6849C36.884 37.3489 32.532 43.6849 31.508 45.4129C31.06 46.3729 31.7 46.9489 32.724 46.1809C35.412 44.3249 39.828 39.9729 43.092 37.0929C46.932 33.5729 49.108 36.2609 47.124 39.9729C45.908 42.2129 44.5 44.6449 43.028 47.1409C47.124 44.9009 51.156 42.9169 55.188 40.9329L54.804 42.6609C50.516 44.7089 46.1 46.9489 41.684 49.2529C38.356 54.6929 34.58 60.2609 31.572 64.1649C24.596 73.1889 18.132 76.9009 14.292 76.9009C9.492 76.9009 8.916 71.0129 18.132 62.8209C23.06 58.2769 31.188 53.4769 40.148 48.6769C42.004 45.5409 43.668 42.4049 45.14 39.3969C46.356 37.0289 45.332 36.8369 43.796 38.3729C39.508 42.5329 34.58 46.6289 33.428 47.2689ZM30.036 63.5889C32.788 60.2609 35.86 55.6529 38.868 50.7889C30.996 55.0769 23.764 59.6209 18.9 64.0369C11.86 70.1809 11.476 74.9169 15.124 74.9169C18.068 74.9169 23.572 71.7169 30.036 63.5889ZM81.787 48.9329C80.507 48.9329 79.867 47.9089 80.315 46.6929C80.827 44.7089 83.771 44.0049 88.315 43.2369C89.339 42.0209 90.107 40.9969 90.363 40.1649C90.555 39.6529 90.363 38.6289 89.659 38.6289C87.163 38.6289 80.379 42.8529 70.651 52.1329C67.259 55.3329 62.011 55.7169 65.723 49.9569C75.067 35.1089 81.019 19.6209 93.819 1.82889C94.843 0.676891 95.675 0.100891 96.251 0.100891C97.019 0.100891 96.955 1.38089 95.867 2.91689C95.547 3.23689 91.515 8.54889 91.323 8.86889C90.811 9.44489 90.363 9.82889 90.043 9.89289C80.827 23.9089 76.987 35.3009 67.067 50.3409C65.531 52.7729 66.747 53.9249 69.819 51.0449C78.907 42.3409 87.611 36.6449 90.363 36.6449C91.579 36.6449 92.731 38.1169 92.411 40.1649C92.347 40.6769 91.835 41.5729 90.875 42.7889C91.067 42.7889 91.195 42.7889 91.323 42.7249C92.923 42.4689 92.603 43.7489 91.003 44.0049L89.659 44.1969C87.675 46.5649 84.411 48.9329 81.787 48.9329ZM82.299 47.3969C83.323 47.3969 85.115 46.2449 86.715 44.7729C83.771 45.4129 82.235 46.1169 82.043 46.8849C81.979 47.2049 82.107 47.3969 82.299 47.3969ZM95.624 47.8449C94.152 47.8449 93.704 47.1409 94.28 45.7969C96.008 41.9569 100.168 37.0929 103.56 37.0929C104.84 37.0929 106.248 37.9889 106.952 39.0129L107.464 38.6289C108.232 38.1169 108.936 38.1809 108.872 38.8849L108.808 39.7169C108.808 42.3409 109.128 43.3009 110.344 43.3009C111.56 43.3009 113.352 42.4049 116.104 41.3169C117.448 40.8049 117.512 41.8929 116.168 42.5969C113.608 43.6849 111.304 44.7089 109.832 44.7089C108.232 44.7089 107.144 44.1329 106.952 41.6369L106.888 40.9969C103.88 43.1729 98.632 47.8449 95.624 47.8449ZM96.328 46.3729C97.992 46.3729 104.072 41.3809 105.736 40.2289C105.032 39.0129 103.688 38.7569 102.984 38.7569C101.256 38.7569 97.096 43.5569 96.072 45.7969C95.88 46.1809 96.008 46.3729 96.328 46.3729ZM116.857 49.6369C113.849 49.6369 112.697 47.7809 113.657 45.4129C115.065 41.5729 122.809 34.8529 126.841 34.8529C129.977 34.8529 129.273 38.4369 126.393 40.4849C124.985 41.1889 124.857 40.0369 125.305 39.5889C126.521 38.3729 127.545 36.3889 126.201 36.3889C123.001 36.3889 116.536 42.5329 115.385 45.9249C114.873 47.3329 115.321 48.0369 116.793 48.0369C118.905 48.0369 123.065 46.5649 126.905 44.1969C127.929 43.6209 128.312 44.7089 127.481 45.4129C124.409 47.7809 119.097 49.6369 116.857 49.6369ZM130.743 47.3969C130.487 47.4609 130.295 47.5249 130.167 47.5249C128.887 49.7649 127.671 51.9409 126.391 54.3089C124.727 57.1889 123.319 56.2929 125.367 53.0929C126.583 51.1089 127.671 49.1889 128.887 47.1409C128.695 46.9489 128.567 46.6289 128.567 46.2449C128.567 45.2849 129.911 44.1969 131.255 43.2369C137.399 33.1889 143.927 22.6289 151.095 12.1329C153.143 9.18889 155.127 9.06089 154.231 10.7889L149.111 20.4529C148.599 21.4769 147.639 21.2209 147.191 20.6449C142.775 27.5569 138.295 34.2129 133.751 41.5729C138.487 38.5649 145.207 35.1089 146.871 34.5969C149.431 33.8929 147.703 35.6209 145.719 36.5809C140.599 39.1409 135.543 41.7009 132.535 43.5569L130.999 46.0529H131.063C139.767 43.3009 142.263 43.5569 140.727 49.5089C140.535 50.2129 139.063 49.7649 139.255 48.9329C140.087 45.4129 140.535 44.4529 130.743 47.3969ZM134.772 75.6209C131.252 75.8129 130.356 73.8929 131.828 70.6289C134.708 64.1649 151.028 50.2129 162.228 44.0689C163.444 40.6769 163.252 38.4369 160.756 38.4369C159.604 38.4369 149.62 47.5249 148.468 48.1009C146.42 49.3169 145.268 47.2689 145.972 45.5409C147.572 42.9169 151.284 38.1809 153.908 38.1809C155.124 38.1809 155.892 38.7569 156.276 39.9729C158.58 37.9889 160.692 36.3889 161.78 36.3889C165.044 36.3889 165.364 39.0769 164.148 42.9809C166.9 41.6369 169.012 40.8689 170.548 40.8689C172.66 40.8689 172.084 42.5329 169.908 42.5329C168.372 42.5329 166.132 43.3009 163.572 44.7729L163.252 45.5409C158.452 56.9329 142.772 75.3649 134.772 75.6209ZM135.412 73.8929C142.132 73.8929 156.916 56.2929 161.524 45.8609C150.964 52.0689 135.732 65.1889 133.428 70.5649C132.468 72.6769 132.916 73.8929 135.412 73.8929ZM148.532 46.5649C150.324 45.2849 152.82 42.9809 155.188 40.9329C154.804 40.4209 154.356 40.1649 153.78 40.1649C152.564 40.1649 151.22 41.4449 148.66 44.7729C148.02 45.6049 146.804 47.7809 148.532 46.5649ZM183.895 34.8529C184.663 34.8529 185.303 36.0689 185.047 36.8369C184.535 37.8609 182.231 39.0769 182.743 38.0529C182.935 37.6049 182.999 37.0929 182.679 37.0929C180.823 37.0929 173.015 41.8929 170.967 44.6449C170.455 45.1569 168.151 48.9329 167.319 49.9569C166.806 50.8529 165.846 49.7649 166.358 48.7409C167.383 47.3969 170.327 42.5329 172.375 39.2689C172.055 39.4609 171.799 39.4609 172.055 38.9489L173.719 36.1969C174.103 35.6209 176.727 34.5969 176.407 36.3249C176.215 36.8369 173.975 40.0369 173.271 41.4449C174.295 40.2289 181.911 34.8529 183.895 34.8529ZM202.367 42.4689C200.575 43.6209 196.927 45.9249 194.367 45.0929C193.471 44.8369 192.831 44.3889 192.447 43.8129C190.399 46.3089 187.647 48.4209 185.279 48.4209C183.039 48.4209 182.783 46.3729 183.999 43.8129C185.215 40.8689 188.095 38.2449 189.183 38.2449C189.247 38.2449 189.375 38.3089 189.567 38.3729C189.567 37.9889 189.695 37.6689 190.015 37.3489C190.847 36.5169 192.063 35.9409 193.599 35.9409C195.647 35.9409 195.903 37.6689 194.943 39.7809C194.495 40.6129 194.111 41.4449 193.535 42.4049C193.663 43.2369 194.111 43.6849 194.815 43.8769C196.927 44.3889 199.871 42.1489 201.663 41.2529C202.175 40.9329 202.879 41.9569 202.367 42.4689ZM191.423 38.3089C190.847 38.8849 190.399 39.0769 190.015 38.9489C190.079 39.3969 189.951 39.7169 189.759 39.7169C187.903 39.7169 186.111 43.0449 185.407 44.5809C185.151 45.3489 184.831 46.6929 185.855 46.6929C188.031 46.6929 190.399 44.0049 191.935 41.6369C192.127 40.5489 192.511 39.3329 193.343 38.2449C193.343 37.8609 193.215 37.6689 192.895 37.6689C192.319 37.6689 191.871 37.8609 191.423 38.3089ZM202.418 48.2289C200.69 48.2289 199.666 47.2689 199.986 45.7329C200.434 43.6849 202.098 40.8049 204.338 37.7969C205.362 36.2609 207.858 36.4529 207.154 37.4769C206.706 38.1809 205.682 39.4609 205.106 40.4209C204.658 40.9969 204.274 41.2529 203.826 41.1889C202.674 43.0449 202.034 44.4529 201.906 45.4769C201.714 46.4369 202.034 46.8209 202.546 46.8209C205.042 46.8209 210.354 41.3809 216.05 35.5569C216.753 34.6609 218.994 35.1089 217.842 36.6449C213.042 42.9809 212.722 44.7729 214.706 44.7729C216.434 44.7729 222.578 41.6369 223.026 41.6369C223.602 41.5729 223.602 42.0209 222.898 42.4689C220.786 43.8769 215.794 46.4369 213.746 46.4369C210.674 46.4369 211.314 44.0689 213.362 40.7409C209.074 45.0289 204.658 48.2289 202.418 48.2289ZM232.699 47.7169C230.971 47.7169 229.755 46.5649 231.227 43.9409L233.339 40.5489C233.787 39.7169 233.915 39.2689 233.723 39.2689C233.467 39.2689 233.019 39.5249 232.315 39.9729C229.115 41.9569 222.523 47.5249 221.371 47.5249C220.859 47.5249 219.963 46.8849 220.155 46.1809C220.667 44.3249 224.507 38.4369 226.299 37.0929C227.579 36.3249 227.899 37.1569 227.387 37.9889C227.259 38.4369 225.851 40.7409 225.851 40.8689C225.339 41.3809 224.891 41.3809 224.635 41.1889C223.355 42.9809 222.395 44.8369 221.883 46.0529C224.251 44.1969 228.923 40.4849 231.483 38.6289C232.699 37.7969 233.787 37.2849 234.747 37.2849C236.539 37.2849 236.091 38.9489 235.131 40.8049L233.147 44.1969C232.571 45.2849 232.699 45.7969 233.531 45.7969C236.155 45.7969 240.187 42.2769 242.811 41.4449C243.643 41.1889 244.027 41.9569 242.939 42.4689C240.315 43.8129 235.259 47.7169 232.699 47.7169ZM240.471 48.4209C237.27 48.4209 244.247 38.1809 247.831 38.1809C249.559 38.1809 250.135 40.1649 249.879 41.9569C257.047 36.6449 267.991 26.5969 278.423 11.4289C279.447 10.2129 280.855 9.95689 280.471 11.4289C265.111 32.2289 256.023 47.0769 247.447 63.3329C246.679 63.9089 246.039 63.0769 246.231 62.7569C251.607 51.5569 258.455 39.9089 267.415 27.5569C255.831 40.1649 244.055 48.4209 240.471 48.4209ZM242.199 46.6289C242.711 46.6289 245.079 45.4129 248.663 42.8529C248.727 41.8289 248.727 39.9729 247.767 39.9729C245.719 39.7809 240.663 46.6289 242.199 46.6289Z" fill="white"/>
</svg>
