<svg width="230" height="69" viewBox="0 0 230 69" fill="none" xmlns="http://www.w3.org/2000/svg">
<path d="M22.144 39.7809C19.648 39.7809 18.688 37.6049 20.672 34.5969C21.504 33.2529 22.528 31.7809 23.296 30.5649C23.872 29.6049 24.064 29.0289 23.744 29.0289C21.952 29.0289 15.36 34.7889 11.328 38.5009C10.304 39.5249 8.704 39.5249 9.856 37.1569L14.272 29.6689C10.368 32.0369 4.608 38.5009 2.112 40.6769C0.832 41.7009 0.256 40.3569 1.216 38.8209C1.344 38.3729 3.008 36.0049 4.288 34.2129C3.968 34.4049 3.136 34.4049 3.584 33.8289C4.16 33.1249 5.056 31.3969 5.504 30.8849C6.528 29.3489 9.024 29.4769 7.808 31.3969L3.52 37.7969C6.656 34.5329 11.392 29.7329 13.952 28.3889C15.232 27.8129 16.64 28.0049 15.936 29.7329C14.976 31.5889 13.376 34.2129 12.416 35.8129C15.68 32.5489 22.848 26.7889 24.832 26.7889C27.072 26.7889 26.496 28.7729 25.152 30.8209C24.32 32.2929 23.232 34.0849 22.464 35.1089C21.248 36.9009 21.184 38.0529 22.656 38.0529C24.704 38.0529 28.544 35.7489 31.744 33.7009C33.344 32.6129 33.792 33.7009 32.192 34.7249C29.312 36.7729 24.704 39.7809 22.144 39.7809ZM33.428 39.2689C30.868 40.8049 28.948 38.8849 30.676 36.3249C31.7 34.5969 35.348 28.8369 36.372 26.9809C37.972 24.1649 39.252 25.9569 38.036 27.6849C36.884 29.3489 32.532 35.6849 31.508 37.4129C31.06 38.3729 31.7 38.9489 32.724 38.1809C35.412 36.3249 39.828 31.9729 43.092 29.0929C46.932 25.5729 49.108 28.2609 47.124 31.9729C45.908 34.2129 44.5 36.6449 43.028 39.1409C47.124 36.9009 51.156 34.9169 55.188 32.9329L54.804 34.6609C50.516 36.7089 46.1 38.9489 41.684 41.2529C38.356 46.6929 34.58 52.2609 31.572 56.1649C24.596 65.1889 18.132 68.9009 14.292 68.9009C9.492 68.9009 8.916 63.0129 18.132 54.8209C23.06 50.2769 31.188 45.4769 40.148 40.6769C42.004 37.5409 43.668 34.4049 45.14 31.3969C46.356 29.0289 45.332 28.8369 43.796 30.3729C39.508 34.5329 34.58 38.6289 33.428 39.2689ZM30.036 55.5889C32.788 52.2609 35.86 47.6529 38.868 42.7889C30.996 47.0769 23.764 51.6209 18.9 56.0369C11.86 62.1809 11.476 66.9169 15.124 66.9169C18.068 66.9169 23.572 63.7169 30.036 55.5889ZM81.403 35.9409C82.171 35.6209 82.939 36.5809 82.171 37.1569C78.587 38.8849 74.491 40.8689 71.163 40.8689C68.667 40.8689 67.835 39.6529 68.411 37.4129C69.627 34.0849 74.747 28.7089 78.779 28.7089C80.507 28.7089 81.211 29.6689 80.955 30.6929C79.995 33.9569 75.643 34.9809 71.803 34.9809C70.843 36.0049 70.203 37.0929 70.011 37.9249C69.563 39.2689 70.395 39.5249 71.611 39.5249C73.787 39.5249 77.755 37.6689 81.403 35.9409ZM78.523 30.4369C77.051 30.4369 74.747 31.9729 72.891 33.8289C75.451 33.5729 77.755 32.6129 78.779 31.3969C79.099 30.7569 79.035 30.4369 78.523 30.4369ZM83.783 40.4209C80.583 40.4209 87.559 30.1809 91.143 30.1809C92.871 30.1809 93.447 32.1649 93.191 33.9569C100.359 28.6449 111.303 18.5969 121.735 3.42889C122.759 2.21289 124.167 1.95689 123.783 3.42889C108.423 24.2289 99.335 39.0769 90.759 55.3329C89.991 55.9089 89.351 55.0769 89.543 54.7569C94.919 43.5569 101.767 31.9089 110.727 19.5569C99.143 32.1649 87.367 40.4209 83.783 40.4209ZM85.511 38.6289C86.023 38.6289 88.391 37.4129 91.975 34.8529C92.039 33.8289 92.039 31.9729 91.079 31.9729C89.031 31.7809 83.975 38.6289 85.511 38.6289ZM109.105 40.2289C107.377 40.2289 106.353 39.2689 106.673 37.7329C107.121 35.6849 108.785 32.8049 111.025 29.7969C112.049 28.2609 114.545 28.4529 113.841 29.4769C113.393 30.1809 112.369 31.4609 111.793 32.4209C111.345 32.9969 110.961 33.2529 110.513 33.1889C109.361 35.0449 108.721 36.4529 108.593 37.4769C108.401 38.4369 108.721 38.8209 109.233 38.8209C111.729 38.8209 117.041 33.3809 122.737 27.5569C123.441 26.6609 125.681 27.1089 124.529 28.6449C119.729 34.9809 119.409 36.7729 121.393 36.7729C123.121 36.7729 129.265 33.6369 129.713 33.6369C130.289 33.5729 130.289 34.0209 129.585 34.4689C127.473 35.8769 122.481 38.4369 120.433 38.4369C117.361 38.4369 118.001 36.0689 120.049 32.7409C115.761 37.0289 111.345 40.2289 109.105 40.2289ZM130.107 41.6369C127.099 41.6369 125.947 39.7809 126.907 37.4129C128.315 33.5729 136.059 26.8529 140.091 26.8529C143.227 26.8529 142.523 30.4369 139.643 32.4849C138.235 33.1889 138.107 32.0369 138.555 31.5889C139.771 30.3729 140.795 28.3889 139.451 28.3889C136.251 28.3889 129.786 34.5329 128.635 37.9249C128.123 39.3329 128.571 40.0369 130.043 40.0369C132.155 40.0369 136.315 38.5649 140.155 36.1969C141.179 35.6209 141.562 36.7089 140.731 37.4129C137.659 39.7809 132.347 41.6369 130.107 41.6369ZM144.249 39.8449C142.777 39.8449 142.329 39.1409 142.905 37.7969C144.633 33.9569 148.793 29.0929 152.185 29.0929C153.465 29.0929 154.873 29.9889 155.577 31.0129L156.089 30.6289C156.857 30.1169 157.561 30.1809 157.497 30.8849L157.433 31.7169C157.433 34.3409 157.753 35.3009 158.969 35.3009C160.185 35.3009 161.977 34.4049 164.729 33.3169C166.073 32.8049 166.137 33.8929 164.793 34.5969C162.233 35.6849 159.929 36.7089 158.457 36.7089C156.857 36.7089 155.769 36.1329 155.577 33.6369L155.513 32.9969C152.505 35.1729 147.257 39.8449 144.249 39.8449ZM144.953 38.3729C146.617 38.3729 152.697 33.3809 154.361 32.2289C153.657 31.0129 152.313 30.7569 151.609 30.7569C149.881 30.7569 145.721 35.5569 144.697 37.7969C144.505 38.1809 144.633 38.3729 144.953 38.3729ZM171.05 12.1969C171.306 11.7489 172.01 11.1089 173.354 10.9169L180.586 9.89289L185.898 2.59689C186.41 1.89289 187.37 0.804893 188.138 0.804893C188.842 0.804893 188.906 2.59689 188.394 3.23689L184.298 7.20489L184.17 7.33289L182.506 9.70089C187.69 9.12489 193.706 8.61289 199.594 8.61289C200.554 8.61289 201.642 8.54889 202.73 8.74089C203.69 8.93289 203.05 10.2129 202.026 10.2129C201.13 10.2129 199.018 10.1489 198.058 10.1489C192.362 10.1489 187.178 10.5329 181.354 11.2369C174.954 20.0049 167.402 31.2049 165.866 34.9809C165.034 36.7729 164.266 39.7809 166.314 39.7809C169.322 39.7809 174.058 35.3009 180.522 33.2529C182.058 32.9329 181.738 34.0849 180.394 34.4049C174.122 36.2609 169.45 41.5729 165.546 41.5729C162.538 41.5729 162.794 37.6689 164.138 34.9809C166.186 30.1809 173.29 20.1969 179.434 11.4929L173.29 12.4529C171.562 12.7089 170.602 13.0289 171.05 12.1969ZM178.865 42.1489C177.649 42.1489 176.945 41.0609 177.265 40.0369C177.777 37.4769 180.593 33.5729 182.641 30.1809C183.217 29.4769 183.537 28.7089 184.497 28.9009C185.201 29.7329 184.817 30.6929 184.113 31.6529C182.385 34.2129 179.441 38.0529 178.737 39.7809C178.417 40.4209 178.545 40.7409 178.993 40.7409C181.617 40.7409 186.609 36.3889 190.577 33.8289C192.305 32.6129 192.881 33.5089 191.089 34.7889C187.121 37.5409 181.873 42.1489 178.865 42.1489ZM186.801 25.9569C186.225 26.1489 185.841 25.8289 186.097 25.1249C186.417 24.1009 189.169 19.5569 190.129 18.5969C191.089 17.5729 191.857 17.1249 192.561 17.8289C192.881 18.5329 192.305 18.9169 192.241 18.9809C190.961 20.1329 188.657 23.7169 187.953 24.9329C187.569 25.5089 187.185 25.8289 186.801 25.9569ZM208.43 34.4689C206.638 35.6209 202.99 37.9249 200.43 37.0929C199.534 36.8369 198.894 36.3889 198.51 35.8129C196.462 38.3089 193.71 40.4209 191.342 40.4209C189.102 40.4209 188.846 38.3729 190.062 35.8129C191.278 32.8689 194.158 30.2449 195.246 30.2449C195.31 30.2449 195.438 30.3089 195.63 30.3729C195.63 29.9889 195.758 29.6689 196.078 29.3489C196.91 28.5169 198.126 27.9409 199.662 27.9409C201.71 27.9409 201.966 29.6689 201.006 31.7809C200.558 32.6129 200.174 33.4449 199.598 34.4049C199.726 35.2369 200.174 35.6849 200.878 35.8769C202.99 36.3889 205.934 34.1489 207.726 33.2529C208.238 32.9329 208.942 33.9569 208.43 34.4689ZM197.486 30.3089C196.91 30.8849 196.462 31.0769 196.078 30.9489C196.142 31.3969 196.014 31.7169 195.822 31.7169C193.966 31.7169 192.174 35.0449 191.47 36.5809C191.214 37.3489 190.894 38.6929 191.918 38.6929C194.094 38.6929 196.462 36.0049 197.998 33.6369C198.19 32.5489 198.574 31.3329 199.406 30.2449C199.406 29.8609 199.278 29.6689 198.958 29.6689C198.382 29.6689 197.934 29.8609 197.486 30.3089ZM217.824 39.7169C216.096 39.7169 214.88 38.5649 216.352 35.9409L218.464 32.5489C218.912 31.7169 219.04 31.2689 218.848 31.2689C218.592 31.2689 218.144 31.5249 217.44 31.9729C214.24 33.9569 207.648 39.5249 206.496 39.5249C205.984 39.5249 205.088 38.8849 205.28 38.1809C205.792 36.3249 209.632 30.4369 211.424 29.0929C212.704 28.3249 213.024 29.1569 212.512 29.9889C212.384 30.4369 210.976 32.7409 210.976 32.8689C210.464 33.3809 210.016 33.3809 209.76 33.1889C208.48 34.9809 207.52 36.8369 207.008 38.0529C209.376 36.1969 214.048 32.4849 216.608 30.6289C217.824 29.7969 218.912 29.2849 219.872 29.2849C221.664 29.2849 221.216 30.9489 220.256 32.8049L218.272 36.1969C217.696 37.2849 217.824 37.7969 218.656 37.7969C221.28 37.7969 225.312 34.2769 227.936 33.4449C228.768 33.1889 229.152 33.9569 228.064 34.4689C225.44 35.8129 220.384 39.7169 217.824 39.7169Z" fill="white"/>
</svg>
