<svg width="20" height="21" viewBox="0 0 20 21" fill="none" xmlns="http://www.w3.org/2000/svg">
<path d="M17.8308 13.8184L14.8558 12.8746C14.4761 12.7527 14.0704 12.7359 13.6819 12.8261C13.2934 12.9164 12.9367 13.1103 12.6496 13.3871L11.4683 14.5246C10.5772 14.0224 9.73044 13.4453 8.93709 12.7996C8.47525 12.4307 8.056 12.0115 7.68709 11.5496C7.03941 10.7675 6.46019 9.93105 5.95584 9.04963L7.09334 7.87463C7.37016 7.58621 7.56392 7.22837 7.65413 6.83892C7.74434 6.44947 7.72766 6.04288 7.60584 5.66213L6.68084 2.67463C6.51159 2.14504 6.15021 1.69801 5.66785 1.42154C5.18548 1.14508 4.61709 1.05922 4.07459 1.18088L2.82459 1.46213C2.4634 1.55012 2.13001 1.72722 1.85488 1.97724C1.57975 2.22725 1.37165 2.54222 1.24959 2.89338C-1.21291 9.61213 4.51834 14.9996 5.03084 15.4996C5.41834 15.9246 9.15584 19.9059 14.2308 19.9059C15.3861 19.8999 16.531 19.6883 17.6121 19.2809C17.9648 19.1552 18.2802 18.9427 18.5292 18.6631C18.7782 18.3835 18.9529 18.0457 19.0371 17.6809L19.3183 16.4309C19.4406 15.8884 19.3558 15.3198 19.0806 14.8365C18.8055 14.3532 18.3598 13.9901 17.8308 13.8184Z" fill="#42356A"/>
<path d="M10.8495 2.48688C11.761 2.3026 12.7039 2.34715 13.5939 2.61656C14.4839 2.88596 15.2933 3.37181 15.9495 4.03063L16.4683 4.54938C17.1271 5.20563 17.613 6.01498 17.8824 6.90499C18.1518 7.79501 18.1963 8.73793 18.012 9.64938C17.9957 9.73026 17.9955 9.81357 18.0115 9.89451C18.0275 9.97545 18.0594 10.0524 18.1053 10.121C18.1512 10.1896 18.2102 10.2483 18.2789 10.294C18.3477 10.3396 18.4248 10.3712 18.5058 10.3869H18.6245C18.7708 10.3898 18.9134 10.3414 19.0276 10.2501C19.1418 10.1587 19.2203 10.0302 19.2495 9.88688C19.4792 8.77132 19.4281 7.61618 19.1008 6.52526C18.7735 5.43434 18.1803 4.44182 17.3745 3.63688L16.8495 3.11188C16.0446 2.3061 15.0521 1.71292 13.9612 1.38565C12.8702 1.05837 11.7151 1.00725 10.5995 1.23688C10.4384 1.27007 10.2968 1.36545 10.2056 1.50235C10.1143 1.63925 10.0807 1.80662 10.112 1.96813C10.1248 2.05138 10.1542 2.13118 10.1986 2.20276C10.243 2.27434 10.3014 2.33621 10.3703 2.38466C10.4391 2.43311 10.5171 2.46714 10.5995 2.48471C10.6818 2.50227 10.7669 2.50301 10.8495 2.48688Z" fill="#8173AE"/>
<path d="M10.488 5.49946C11.0623 5.38488 11.6561 5.41393 12.2165 5.58402C12.7769 5.75411 13.2867 6.05998 13.7005 6.47446L14.0442 6.81821C14.4524 7.23189 14.7531 7.73932 14.9198 8.29609C15.0865 8.85286 15.1142 9.44201 15.0005 10.012C14.984 10.0924 14.9836 10.1753 14.9992 10.2559C15.0148 10.3365 15.0462 10.4132 15.0914 10.4817C15.1367 10.5502 15.195 10.6091 15.2631 10.655C15.3311 10.701 15.4075 10.7331 15.488 10.7495H15.613C15.7592 10.7524 15.9018 10.704 16.016 10.6126C16.1302 10.5213 16.2087 10.3928 16.238 10.2495C16.3933 9.47333 16.3548 8.67087 16.1258 7.91319C15.8969 7.1555 15.4846 6.46598 14.9255 5.90571L14.5755 5.55571C14.0162 4.9973 13.3275 4.58583 12.5707 4.35793C11.814 4.13003 11.0126 4.09277 10.238 4.24946C10.1559 4.26588 10.0779 4.2983 10.0083 4.34487C9.93876 4.39145 9.87907 4.45127 9.83264 4.52091C9.73887 4.66156 9.70481 4.8337 9.73797 4.99946C9.77112 5.16522 9.86876 5.31103 10.0094 5.40479C10.1501 5.49856 10.3222 5.53262 10.488 5.49946Z" fill="#8173AE"/>
<path d="M10.1192 8.48077C10.3559 8.43114 10.6013 8.44176 10.8328 8.51165C11.0643 8.58154 11.2745 8.70846 11.4442 8.88077L11.6192 9.05577C11.7915 9.22416 11.9185 9.43331 11.9884 9.66384C12.0583 9.89436 12.0689 10.1388 12.0192 10.3745C12.0009 10.4554 11.9988 10.5391 12.0131 10.6208C12.0274 10.7025 12.0579 10.7805 12.1027 10.8504C12.1475 10.9202 12.2057 10.9804 12.274 11.0274C12.3423 11.0745 12.4193 11.1075 12.5005 11.1245H12.6192C12.7654 11.1275 12.908 11.0791 13.0222 10.9877C13.1364 10.8963 13.215 10.7678 13.2442 10.6245C13.3321 10.1855 13.3101 9.73161 13.1804 9.30312C13.0506 8.87462 12.8171 8.4848 12.5005 8.16827L12.3317 7.99952C12.0152 7.68307 11.6252 7.45005 11.1965 7.32135C10.7678 7.19264 10.3139 7.17225 9.87546 7.26202C9.79389 7.27699 9.71612 7.30805 9.64668 7.35337C9.57723 7.3987 9.5175 7.45739 9.47096 7.52603C9.42443 7.59467 9.39202 7.67189 9.37562 7.75318C9.35922 7.83447 9.35917 7.91821 9.37546 7.99952C9.39252 8.08005 9.42533 8.15641 9.47199 8.22422C9.51864 8.29203 9.57824 8.34996 9.64735 8.39467C9.71645 8.43939 9.79371 8.47002 9.87469 8.48479C9.95566 8.49957 10.0388 8.4982 10.1192 8.48077Z" fill="#8173AE"/>
</svg>
