<svg width="119" height="14" viewBox="0 0 119 14" fill="none" xmlns="http://www.w3.org/2000/svg">
<g clip-path="url(#clip0_47_357)">
<path d="M118.395 2.59739C117.824 2.49443 117.153 2.72273 116.634 2.51681C116.177 2.14525 116.296 1.74236 116.334 1.3708C115.839 1.02163 115.325 0.703792 115.758 0.0546875H1.9278C2.1182 1.05744 2.78936 1.83189 3.55572 2.71378C2.13724 2.9197 1.10908 2.46309 0 2.06467C0.84728 2.95999 1.6898 3.85531 2.58468 4.80434C2.67512 5.18933 2.27052 5.51164 2.15152 6.20551C4.32684 7.21722 6.12136 8.95414 8.4014 9.85393C8.5918 10.0017 8.5918 10.1404 8.54896 10.2389C8.50612 10.3419 8.41568 10.4045 8.41568 10.409C8.9726 11.47 10.729 10.8433 10.61 12.2758C11.0051 12.5981 11.8334 12.2355 11.8 13.0502H117.482C117.415 12.5936 117.71 12.2713 117.967 11.9714C117.943 11.5998 117.505 11.6311 117.386 11.2999C117.42 10.8746 117.463 10.3822 117.505 9.84945C117.834 9.64353 118.167 9.26302 118.638 9.58086C118.767 9.66591 118.871 9.71963 118.967 9.74649C118.967 9.74649 118.976 9.74649 118.981 9.74649C118.99 9.76887 118.99 9.79573 119.005 9.82259V10.9686C119.005 10.7403 119.005 10.3329 119.005 9.82259V9.02129C119.005 8.45724 119.005 7.83499 119.005 7.20827C118.71 7.36943 118.467 7.60221 118.424 8.06777C118.681 8.31846 118.748 8.66763 118.81 9.03471C118.362 9.075 117.886 9.32122 117.524 8.9228C117.267 8.38113 117.862 8.1394 118.034 7.74098C118.219 7.32018 117.572 7.0874 117.753 6.65765C117.981 6.20999 118.553 6.13389 119 5.89215V3.2823C118.891 3.02266 118.714 2.78093 118.395 2.59291V2.59739ZM21.6152 1.5633L21.7056 1.52748V1.59463L21.6152 1.5633ZM18.2784 0.770941H22.2958C21.4914 1.26337 19.1542 1.11116 18.2784 0.770941ZM23.7952 1.0843H24.1189C23.919 1.33499 23.7238 1.12011 23.7952 1.0843ZM25.109 1.26784H26.437C25.9039 1.52748 25.5184 1.36633 25.109 1.26784ZM69.1247 7.87976C69.1771 7.68726 69.239 7.70069 69.3104 7.83499C69.258 8.03644 69.1961 8.0051 69.1247 7.87976ZM72.1521 8.09016L72.1188 8.05434L72.1521 8.02301V8.08568V8.09016ZM72.3996 8.09911V8.02748L72.4377 8.0633L72.3996 8.09911ZM74.3893 8.10806C74.6035 7.99615 74.7558 8.0051 75.0366 8.29608C74.751 8.29608 74.594 8.49752 74.3893 8.10806ZM114.269 6.97996C114.507 6.7248 114.706 6.75613 115.087 7.18589C114.654 7.07845 114.468 7.02921 114.269 6.97996ZM115.706 8.82879C115.787 8.60944 115.916 8.67211 116.177 8.71688C115.949 8.7706 115.849 8.79746 115.706 8.82879Z" fill="#E1897D"/>
<path d="M117.977 13.0597H118.224C118.143 12.921 118.057 12.9433 117.977 13.0597Z" fill="#E1897D"/>
</g>
<defs>
<clipPath id="clip0_47_357">
<rect width="119" height="13" fill="white" transform="translate(0 0.0595703)"/>
</clipPath>
</defs>
</svg>
