<svg width="32" height="32" viewBox="0 0 32 32" fill="none" xmlns="http://www.w3.org/2000/svg">
<g clip-path="url(#clip0_91_288)">
<path d="M25.4135 2.8146C19.4823 1.90785 11.7323 13.9363 4.50352 10.2846C4.22161 9.52175 3.94987 8.75498 3.66797 7.99354C12.1876 9.61039 16.0592 -1.0943 24.5784 0.523511C24.8613 1.28495 25.1306 2.0522 25.4135 2.8146Z" fill="#ED4C5C"/>
<path d="M26.2475 5.10522C21.2376 4.12776 10.9446 15.5915 5.33848 12.5757C5.05512 11.8138 4.78629 11.0466 4.50293 10.2846C13.0226 11.9015 16.8937 1.19632 25.4129 2.81462C25.6958 3.57605 25.9651 4.3433 26.2475 5.10522Z" fill="#FF8736"/>
<path d="M27.0839 7.39694C22.2072 6.52942 13.161 18.8839 6.17441 14.867C5.89105 14.1051 5.62126 13.3378 5.33887 12.5759C13.8581 14.1932 17.7306 3.489 26.2484 5.10585C26.5317 5.86825 26.8015 6.63502 27.0839 7.39694Z" fill="#FFCE31"/>
<path d="M27.9203 9.68763C23.2166 8.9509 12.8631 22.1908 7.00938 17.1577C6.72651 16.3962 6.45768 15.6285 6.1748 14.8666C14.6925 16.4849 18.5646 5.77872 27.0843 7.39654C27.3667 8.15846 27.6375 8.92523 27.9203 9.68763Z" fill="#83BF4F"/>
<path d="M28.7533 11.9791C23.3971 11.0907 13.8913 24.7947 7.84336 19.4496C7.56048 18.6872 7.28923 17.9209 7.00781 17.1585C15.527 18.7753 19.3991 8.07113 27.9188 9.68846C28.2012 10.4504 28.4714 11.2167 28.7533 11.9791Z" fill="#275FD9"/>
<path d="M29.5878 14.2706C21.0711 12.6527 17.198 23.3579 8.6793 21.7401C8.39642 20.9787 8.12614 20.2114 7.84375 19.4495C16.3629 21.0663 20.2345 10.3617 28.7537 11.979C29.0361 12.7419 29.3069 13.5086 29.5878 14.2706Z" fill="#9028E0"/>
<path d="M2.54427 7.86636C3.12423 7.86636 3.59439 7.39621 3.59439 6.81624C3.59439 6.23627 3.12423 5.76611 2.54427 5.76611C1.9643 5.76611 1.49414 6.23627 1.49414 6.81624C1.49414 7.39621 1.9643 7.86636 2.54427 7.86636Z" fill="#3E4347"/>
<path d="M3.45094 7.37549L2.21094 7.82547L10.7873 31.3569H12.19L3.45094 7.37549Z" fill="#3E4347"/>
<path d="M1.82715 7.91365L3.80146 7.19678L3.98068 7.68939L2.00588 8.40626L1.82715 7.91365Z" fill="#3E4347"/>
</g>
<defs>
<clipPath id="clip0_91_288">
<rect width="31" height="31" fill="white" transform="translate(0.0410156 0.356445)"/>
</clipPath>
</defs>
</svg>
