<svg width="97" height="97" viewBox="0 0 97 97" fill="none" xmlns="http://www.w3.org/2000/svg">
<path d="M58.8975 54.6198V50.2998C58.8975 50.2998 58.8975 50.1798 58.8575 50.0998C62.7375 47.3798 65.5375 43.1398 66.1775 38.1398L66.7775 33.3798C67.4175 28.2998 65.8575 23.2198 62.4575 19.3798C59.0575 15.4998 54.0975 13.2998 48.9375 13.2998C43.7775 13.2998 38.8175 15.5398 35.4175 19.3798C32.0175 23.2198 30.4575 28.3398 31.0975 33.3798L31.6975 38.1398C32.3375 43.1398 35.0975 47.3798 39.0175 50.0998C39.0175 50.1798 38.9775 50.2198 38.9775 50.2998V54.6198C27.7775 55.6198 18.9775 65.0598 18.9775 76.4998V80.4998C18.9775 83.8198 21.6575 86.4998 24.9775 86.4998H44.9775C46.5375 86.4998 47.8975 85.8998 48.9775 84.9398C50.0575 85.8998 51.4175 86.4998 52.9775 86.4998H72.9775C76.2975 86.4998 78.9775 83.8198 78.9775 80.4998V76.4998C78.9775 65.0598 70.1775 55.6198 58.9775 54.6198H58.8975ZM35.6175 37.6198L35.0175 32.8598C34.5375 28.9398 35.7375 24.9798 38.3775 21.9798C41.0175 18.9798 44.8575 17.2198 48.8975 17.2198C52.9375 17.2198 56.7775 18.9398 59.4175 21.9798C62.0575 24.9398 63.2575 28.9398 62.7775 32.8598L62.1775 37.6198C61.3375 44.2598 55.6175 49.2598 48.8975 49.2598C42.1775 49.2598 36.4575 44.2598 35.6175 37.6198ZM48.8975 53.2598C51.0175 53.2598 53.0175 52.8598 54.8975 52.1798V55.7398C52.5775 58.3798 49.2975 58.4998 48.8975 58.4998C45.7775 58.4998 43.7375 56.6598 42.8975 55.7798V52.1798C44.7775 52.8598 46.7775 53.2598 48.8975 53.2598ZM44.8975 82.4998H24.8975C23.7775 82.4998 22.8975 81.6198 22.8975 80.4998C22.8975 79.3798 23.7775 78.4998 24.8975 78.4998H40.8975C42.0175 78.4998 42.8975 77.6198 42.8975 76.4998C42.8975 73.9798 44.5375 71.8198 46.8975 71.0598V80.4998C46.8975 81.6198 46.0175 82.4998 44.8975 82.4998ZM48.8575 66.5398C48.8575 66.5398 48.5775 66.5398 48.4575 66.5398L46.2975 67.0998C42.6575 68.0198 39.9375 70.9398 39.1775 74.4998H34.9775V68.4998C34.9775 67.3798 34.0975 66.4998 32.9775 66.4998C31.8575 66.4998 30.9775 67.3798 30.9775 68.4998V74.4998H24.9775C24.3375 74.4998 23.7375 74.6198 23.1375 74.8198C23.9775 65.9798 31.1375 58.9798 40.0575 58.5398C41.3775 59.9798 44.4175 62.4998 48.9775 62.4998C49.8975 62.4998 54.4975 62.2998 57.8975 58.5398C66.8175 58.9798 73.9775 66.0198 74.8175 74.8198C74.2175 74.6198 73.6175 74.4998 72.9775 74.4998H66.9775V68.4998C66.9775 67.3798 66.0975 66.4998 64.9775 66.4998C63.8575 66.4998 62.9775 67.3798 62.9775 68.4998V74.4998H58.7775C58.0175 70.9398 55.2975 68.0198 51.6575 67.0998L49.4975 66.5398C49.3375 66.5398 49.1775 66.5398 48.9775 66.5398H48.8575ZM72.8975 82.4998H52.8975C51.7775 82.4998 50.8975 81.6198 50.8975 80.4998V71.0598C53.2575 71.7798 54.8975 73.9798 54.8975 76.4998C54.8975 77.6198 55.7775 78.4998 56.8975 78.4998H72.8975C74.0175 78.4998 74.8975 79.3798 74.8975 80.4998C74.8975 81.6198 74.0175 82.4998 72.8975 82.4998Z" fill="#64568E"/>
<path d="M48.8977 45.5802C52.2577 45.5802 54.1777 43.1802 54.5377 42.7002C55.1777 41.8202 54.9777 40.5402 54.0977 39.9002C53.2177 39.2602 51.9378 39.4602 51.2978 40.3402C51.2978 40.3802 50.3778 41.5802 48.9378 41.5802C48.8578 41.5802 47.4177 41.5802 46.5777 40.3402C45.9377 39.4602 44.6978 39.2202 43.7778 39.9002C42.8978 40.5402 42.6577 41.7802 43.3377 42.7002C45.2977 45.4602 48.3778 45.5802 48.9778 45.5802H48.8977Z" fill="#64568E"/>
<path opacity="0.3" d="M80.8975 26.5H78.8975V24.5C78.8975 23.38 78.0175 22.5 76.8975 22.5C75.7775 22.5 74.8975 23.38 74.8975 24.5V26.5H72.8975C71.7775 26.5 70.8975 27.38 70.8975 28.5C70.8975 29.62 71.7775 30.5 72.8975 30.5H74.8975V32.5C74.8975 33.62 75.7775 34.5 76.8975 34.5C78.0175 34.5 78.8975 33.62 78.8975 32.5V30.5H80.8975C82.0175 30.5 82.8975 29.62 82.8975 28.5C82.8975 27.38 82.0175 26.5 80.8975 26.5Z" fill="#95BC8B"/>
<path opacity="0.3" d="M24.8975 38.5H22.8975V36.5C22.8975 35.38 22.0175 34.5 20.8975 34.5C19.7775 34.5 18.8975 35.38 18.8975 36.5V38.5H16.8975C15.7775 38.5 14.8975 39.38 14.8975 40.5C14.8975 41.62 15.7775 42.5 16.8975 42.5H18.8975V44.5C18.8975 45.62 19.7775 46.5 20.8975 46.5C22.0175 46.5 22.8975 45.62 22.8975 44.5V42.5H24.8975C26.0175 42.5 26.8975 41.62 26.8975 40.5C26.8975 39.38 26.0175 38.5 24.8975 38.5Z" fill="#95BC8B"/>
</svg>
