<svg width="47" height="47" viewBox="0 0 47 47" fill="none" xmlns="http://www.w3.org/2000/svg">
<path d="M39.6139 20.1853C39.2124 19.8411 38.6197 19.8794 38.2564 20.2809C37.9122 20.6824 37.9505 21.2751 38.352 21.6384C39.9772 23.0342 39.5375 24.3535 38.8874 25.1948C38.3138 25.9404 36.7842 26.2655 35.3884 25.5963C34.3559 25.0992 33.1322 25.4242 32.5012 26.3611C32.0041 27.1068 31.1246 28.101 29.7097 28.7129C28.6772 29.1526 27.5491 29.3056 26.4019 29.1526C24.9297 28.9614 23.5339 29.4586 22.6544 30.5102C21.6219 31.7338 20.1496 32.4604 18.62 32.4604H18.5818C16.6698 32.4604 14.4136 31.3897 13.8018 29.3247C13.2473 27.4509 14.2415 25.558 15.4078 24.602C16.6507 23.5696 18.4288 23.2636 20.1305 23.7799C21.8513 24.2961 23.6677 23.5313 24.4708 21.9443C24.7002 21.4663 24.509 20.8927 24.0501 20.6633C23.5721 20.4338 22.9985 20.6251 22.7691 21.0839C22.4058 21.8296 21.5263 22.1929 20.685 21.9443C18.3523 21.256 15.9241 21.6767 14.1842 23.1107C12.6354 24.3917 11.3926 26.7244 11.8324 29.21C10.6278 30.0895 8.907 29.9939 7.81715 28.9041C6.82291 27.9098 6.63171 26.3037 7.37739 25.08C7.83627 24.3344 7.91275 23.4166 7.56859 22.6135C6.99499 21.256 7.12883 19.7646 7.91275 18.6748C8.56284 17.7953 9.49973 17.4129 10.1689 17.2599C11.1058 17.0496 11.7941 16.2848 11.928 15.3288C12.0618 14.4301 12.5781 13.6271 13.3429 13.1873C13.8209 12.9196 14.3562 12.8049 14.9107 12.8432C16.1727 12.9196 17.3963 12.2313 18.1994 10.9885C18.7539 10.1281 19.6525 9.55449 20.5894 9.47801C21.1056 9.43977 21.5072 8.98089 21.4689 8.44552C21.4307 7.92928 20.9718 7.52776 20.4364 7.566C18.9068 7.69984 17.4728 8.57936 16.5933 9.93689C16.4403 10.1855 15.8476 10.9503 15.0446 10.912C14.0886 10.8547 13.1899 11.0459 12.3869 11.5047C11.1058 12.2313 10.2263 13.5506 10.016 15.042C9.99685 15.2141 9.88213 15.3288 9.71005 15.367C8.73492 15.5965 7.35827 16.1509 6.36402 17.5085C5.15945 19.1337 4.94913 21.3707 5.79042 23.3401C5.88602 23.5695 5.8669 23.8372 5.73306 24.0476C4.52849 25.9978 4.83441 28.5981 6.45962 30.2234C7.43475 31.1985 8.7158 31.6956 9.99685 31.6956C10.8573 31.6956 11.6985 31.4662 12.4633 31.0264C13.7444 33.2826 16.3639 34.3342 18.5627 34.3342H18.6009C19.3084 34.3342 19.9776 34.1812 20.6468 33.9709L23.6486 35.0799C24.2987 35.3284 24.815 35.7682 25.1209 36.3227C25.5033 37.0492 25.9813 37.7185 26.4975 38.3494C27.205 39.1907 28.0463 39.9364 28.9831 40.5674C29.4994 40.9115 30.073 41.0836 30.6657 41.0836C31.0672 41.0836 31.4688 41.0071 31.832 40.8542C32.7881 40.4526 33.4573 39.6305 33.6676 38.6171C33.7632 38.1391 33.8397 37.6229 33.897 37.0875C33.9926 36.2271 33.9926 35.3476 33.9544 34.468C35.7134 34.3151 37.396 33.4929 38.4858 32.0398C39.9199 30.166 39.8434 28.101 39.6713 26.9921C39.939 26.8009 40.2067 26.5714 40.417 26.3037C41.6407 24.7168 42.0613 22.2503 39.6139 20.1279V20.1853ZM32.0041 36.9154C31.9468 37.3934 31.8894 37.8523 31.7938 38.2729C31.7173 38.6553 31.4688 38.9613 31.1055 39.1142C30.7422 39.2672 30.3598 39.2289 30.0347 39.0186C29.2508 38.5024 28.5625 37.8714 27.9507 37.164C27.5109 36.6477 27.1285 36.0741 26.8034 35.4623C26.2872 34.4871 25.4077 33.7415 24.3178 33.3399L22.9794 32.8428C23.3809 32.5178 23.7633 32.1545 24.1075 31.753C24.5664 31.2176 25.3121 30.969 26.1534 31.0646C26.7078 31.1411 27.2623 31.1411 27.7977 31.1029C28.2566 31.9442 29.442 33.7032 31.7556 34.3533C31.8512 34.3724 31.9468 34.3915 32.0424 34.4107C32.0997 35.252 32.0997 36.0932 32.0041 36.9345V36.9154ZM36.9945 30.9308C35.9046 32.3457 34.0117 32.9767 32.2718 32.4987C31.0481 32.1545 30.2642 31.3323 29.8053 30.7014C30.0347 30.6249 30.2451 30.5675 30.4745 30.4719C32.3292 29.688 33.4764 28.3687 34.1073 27.4318C34.2221 27.2406 34.4324 27.2597 34.5662 27.3362C35.6178 27.8333 36.7842 27.9863 37.8549 27.8142C37.9122 28.6364 37.8166 29.8601 36.9945 30.9499V30.9308Z" fill="#6493A6"/>
<path opacity="0.3" d="M25.3696 18.7702C27.0139 20.5675 29.1362 21.9823 31.488 22.8428C31.6027 22.881 31.6983 22.9001 31.8131 22.9001C31.9278 22.9001 32.0425 22.881 32.1381 22.8428C34.4899 21.9823 36.5931 20.5675 38.2565 18.7702C39.3846 17.5465 40.2833 16.1507 40.9716 14.602C41.6408 13.0915 41.4878 11.3516 40.5701 9.93666C39.6141 8.48353 38.008 7.604 36.2872 7.604C34.4134 7.604 32.7117 8.61737 31.8322 10.2617C30.9527 8.61737 29.251 7.604 27.3772 7.604C25.6373 7.604 24.0503 8.48353 23.0943 9.93666C22.1765 11.3324 22.0235 13.0915 22.6928 14.602C23.362 16.1507 24.2797 17.5465 25.4078 18.7702H25.3696ZM24.6621 10.9691C25.2549 10.0514 26.2682 9.51602 27.3581 9.51602C28.5626 9.51602 29.6525 10.1852 30.1878 11.2559L30.9718 12.8047C31.2968 13.4548 32.3484 13.4548 32.6735 12.8047L33.4574 11.2559C33.9928 10.1852 35.0826 9.51602 36.2872 9.51602C37.377 9.51602 38.3713 10.0705 38.9831 10.9691C39.5567 11.8487 39.6523 12.8812 39.2317 13.818C38.6389 15.1756 37.8359 16.3993 36.8608 17.47C35.5032 18.9614 33.7633 20.1468 31.8322 20.9116C29.901 20.1468 28.1611 18.9614 26.8036 17.47C25.8285 16.3993 25.0254 15.1756 24.4327 13.818C24.0312 12.8812 24.1076 11.8487 24.6812 10.9691H24.6621Z" fill="#6493A6"/>
</svg>
