<svg width="97" height="97" viewBox="0 0 97 97" fill="none" xmlns="http://www.w3.org/2000/svg">
<path d="M82.397 41.2144C81.557 40.4944 80.317 40.5744 79.557 41.4144C78.837 42.2544 78.917 43.4944 79.757 44.2544C83.157 47.1744 82.237 49.9344 80.877 51.6944C79.677 53.2544 76.477 53.9344 73.557 52.5344C71.397 51.4944 68.837 52.1744 67.517 54.1344C66.477 55.6944 64.637 57.7744 61.677 59.0544C59.517 59.9744 57.157 60.2944 54.757 59.9744C51.677 59.5744 48.757 60.6144 46.917 62.8144C44.757 65.3744 41.677 66.8944 38.477 66.8944H38.397C34.397 66.8944 29.677 64.6544 28.397 60.3344C27.237 56.4144 29.317 52.4544 31.757 50.4544C34.357 48.2944 38.077 47.6544 41.637 48.7344C45.237 49.8144 49.037 48.2144 50.717 44.8944C51.197 43.8944 50.797 42.6944 49.837 42.2144C48.837 41.7344 47.637 42.1344 47.157 43.0944C46.397 44.6544 44.557 45.4144 42.797 44.8944C37.917 43.4544 32.837 44.3344 29.197 47.3344C25.957 50.0144 23.357 54.8944 24.277 60.0944C21.757 61.9344 18.157 61.7344 15.877 59.4544C13.797 57.3744 13.397 54.0144 14.957 51.4544C15.917 49.8944 16.077 47.9744 15.357 46.2944C14.157 43.4544 14.437 40.3344 16.077 38.0544C17.437 36.2144 19.397 35.4144 20.797 35.0944C22.757 34.6544 24.197 33.0544 24.477 31.0544C24.757 29.1744 25.837 27.4944 27.437 26.5744C28.437 26.0144 29.557 25.7744 30.717 25.8544C33.357 26.0144 35.917 24.5744 37.597 21.9744C38.757 20.1744 40.637 18.9744 42.597 18.8144C43.677 18.7344 44.517 17.7744 44.437 16.6544C44.357 15.5744 43.397 14.7344 42.277 14.8144C39.077 15.0944 36.077 16.9344 34.237 19.7744C33.917 20.2944 32.677 21.8944 30.997 21.8144C28.997 21.6944 27.117 22.0944 25.437 23.0544C22.757 24.5744 20.917 27.3344 20.477 30.4544C20.437 30.8144 20.197 31.0544 19.837 31.1344C17.797 31.6144 14.917 32.7744 12.837 35.6144C10.317 39.0144 9.87698 43.6944 11.637 47.8144C11.837 48.2944 11.797 48.8544 11.517 49.2944C8.99698 53.3744 9.63698 58.8144 13.037 62.2144C15.077 64.2544 17.757 65.2944 20.437 65.2944C22.237 65.2944 23.997 64.8144 25.597 63.8944C28.277 68.6144 33.757 70.8144 38.357 70.8144H38.437C39.917 70.8144 41.317 70.4944 42.717 70.0544L48.997 72.3744C50.357 72.8944 51.437 73.8144 52.077 74.9744C52.877 76.4944 53.877 77.8944 54.957 79.2144C56.437 80.9744 58.197 82.5344 60.157 83.8544C61.237 84.5744 62.437 84.9344 63.677 84.9344C64.517 84.9344 65.357 84.7744 66.117 84.4544C68.117 83.6144 69.517 81.8944 69.957 79.7744C70.157 78.7744 70.317 77.6944 70.437 76.5744C70.637 74.7744 70.637 72.9344 70.557 71.0944C74.237 70.7744 77.757 69.0544 80.037 66.0144C83.037 62.0944 82.877 57.7744 82.517 55.4544C83.077 55.0544 83.637 54.5744 84.077 54.0144C86.637 50.6944 87.517 45.5344 82.397 41.0944V41.2144ZM66.477 76.2144C66.357 77.2144 66.237 78.1744 66.037 79.0544C65.877 79.8544 65.357 80.4944 64.597 80.8144C63.837 81.1344 63.037 81.0544 62.357 80.6144C60.717 79.5344 59.277 78.2144 57.997 76.7344C57.077 75.6544 56.277 74.4544 55.597 73.1744C54.517 71.1344 52.677 69.5744 50.397 68.7344L47.597 67.6944C48.437 67.0144 49.237 66.2544 49.957 65.4144C50.917 64.2944 52.477 63.7744 54.237 63.9744C55.397 64.1344 56.557 64.1344 57.677 64.0544C58.637 65.8144 61.117 69.4944 65.957 70.8544C66.157 70.8944 66.357 70.9344 66.557 70.9744C66.677 72.7344 66.677 74.4944 66.477 76.2544V76.2144ZM76.917 63.6944C74.637 66.6544 70.677 67.9744 67.037 66.9744C64.477 66.2544 62.837 64.5344 61.877 63.2144C62.357 63.0544 62.797 62.9344 63.277 62.7344C67.157 61.0944 69.557 58.3344 70.877 56.3744C71.117 55.9744 71.557 56.0144 71.837 56.1744C74.037 57.2144 76.477 57.5344 78.717 57.1744C78.837 58.8944 78.637 61.4544 76.917 63.7344V63.6944Z" fill="#8D9CDF"/>
<path opacity="0.3" d="M52.5967 38.2545C56.0367 42.0145 60.4767 44.9745 65.3967 46.7745C65.6367 46.8545 65.8367 46.8945 66.0767 46.8945C66.3167 46.8945 66.5567 46.8545 66.7567 46.7745C71.6767 44.9745 76.0767 42.0145 79.5567 38.2545C81.9167 35.6945 83.7967 32.7745 85.2367 29.5345C86.6367 26.3745 86.3167 22.7345 84.3967 19.7745C82.3967 16.7345 79.0367 14.8945 75.4367 14.8945C71.5167 14.8945 67.9567 17.0145 66.1167 20.4545C64.2767 17.0145 60.7167 14.8945 56.7967 14.8945C53.1567 14.8945 49.8367 16.7345 47.8367 19.7745C45.9167 22.6945 45.5967 26.3745 46.9967 29.5345C48.3967 32.7745 50.3167 35.6945 52.6767 38.2545H52.5967ZM51.1167 21.9345C52.3567 20.0145 54.4767 18.8945 56.7567 18.8945C59.2767 18.8945 61.5567 20.2945 62.6767 22.5345L64.3167 25.7745C64.9967 27.1345 67.1967 27.1345 67.8767 25.7745L69.5167 22.5345C70.6367 20.2945 72.9167 18.8945 75.4367 18.8945C77.7167 18.8945 79.7967 20.0545 81.0767 21.9345C82.2767 23.7745 82.4767 25.9345 81.5967 27.8945C80.3567 30.7345 78.6767 33.2945 76.6367 35.5345C73.7967 38.6545 70.1567 41.1345 66.1167 42.7345C62.0767 41.1345 58.4367 38.6545 55.5967 35.5345C53.5567 33.2945 51.8767 30.7345 50.6367 27.8945C49.7967 25.9345 49.9567 23.7745 51.1567 21.9345H51.1167Z" fill="#8D9CDF"/>
</svg>
